<svg xmlns="http://www.w3.org/2000/svg" viewBox="0 0 80 91.429">
  <path id="Icon_awesome-book" data-name="Icon awesome-book" d="M80,64.286v-60A4.275,4.275,0,0,0,75.714,0H17.143A17.147,17.147,0,0,0,0,17.143V74.286A17.147,17.147,0,0,0,17.143,91.429H75.714A4.275,4.275,0,0,0,80,87.143V84.286a4.319,4.319,0,0,0-1.589-3.339c-.75-2.75-.75-10.589,0-13.339A4.256,4.256,0,0,0,80,64.286ZM22.857,23.929a1.075,1.075,0,0,1,1.071-1.071H61.786a1.075,1.075,0,0,1,1.071,1.071V27.5a1.075,1.075,0,0,1-1.071,1.071H23.929A1.075,1.075,0,0,1,22.857,27.5Zm0,11.429a1.075,1.075,0,0,1,1.071-1.071H61.786a1.075,1.075,0,0,1,1.071,1.071v3.571A1.075,1.075,0,0,1,61.786,40H23.929a1.075,1.075,0,0,1-1.071-1.071ZM68.107,80H17.143a5.714,5.714,0,0,1,0-11.429H68.107A64.287,64.287,0,0,0,68.107,80Z" fill="currentColor"/>
</svg>
