<svg xmlns="http://www.w3.org/2000/svg" viewBox="0 0 80 64">
  <path id="Icon_awesome-city" data-name="Icon awesome-city" d="M77,24H60V3a3,3,0,0,0-3-3H39a3,3,0,0,0-3,3v9H28V2a2,2,0,0,0-2-2H24a2,2,0,0,0-2,2V12H14V2a2,2,0,0,0-2-2H10A2,2,0,0,0,8,2V12H3a3,3,0,0,0-3,3V60a4,4,0,0,0,4,4H76a4,4,0,0,0,4-4V27A3,3,0,0,0,77,24ZM16,50.5A1.5,1.5,0,0,1,14.5,52h-5A1.5,1.5,0,0,1,8,50.5v-5A1.5,1.5,0,0,1,9.5,44h5A1.5,1.5,0,0,1,16,45.5Zm0-12A1.5,1.5,0,0,1,14.5,40h-5A1.5,1.5,0,0,1,8,38.5v-5A1.5,1.5,0,0,1,9.5,32h5A1.5,1.5,0,0,1,16,33.5Zm0-12A1.5,1.5,0,0,1,14.5,28h-5A1.5,1.5,0,0,1,8,26.5v-5A1.5,1.5,0,0,1,9.5,20h5A1.5,1.5,0,0,1,16,21.5Zm16,24A1.5,1.5,0,0,1,30.5,52h-5A1.5,1.5,0,0,1,24,50.5v-5A1.5,1.5,0,0,1,25.5,44h5A1.5,1.5,0,0,1,32,45.5Zm0-12A1.5,1.5,0,0,1,30.5,40h-5A1.5,1.5,0,0,1,24,38.5v-5A1.5,1.5,0,0,1,25.5,32h5A1.5,1.5,0,0,1,32,33.5Zm0-12A1.5,1.5,0,0,1,30.5,28h-5A1.5,1.5,0,0,1,24,26.5v-5A1.5,1.5,0,0,1,25.5,20h5A1.5,1.5,0,0,1,32,21.5Zm20,12A1.5,1.5,0,0,1,50.5,40h-5A1.5,1.5,0,0,1,44,38.5v-5A1.5,1.5,0,0,1,45.5,32h5A1.5,1.5,0,0,1,52,33.5Zm0-12A1.5,1.5,0,0,1,50.5,28h-5A1.5,1.5,0,0,1,44,26.5v-5A1.5,1.5,0,0,1,45.5,20h5A1.5,1.5,0,0,1,52,21.5Zm0-12A1.5,1.5,0,0,1,50.5,16h-5A1.5,1.5,0,0,1,44,14.5v-5A1.5,1.5,0,0,1,45.5,8h5A1.5,1.5,0,0,1,52,9.5Zm20,36A1.5,1.5,0,0,1,70.5,52h-5A1.5,1.5,0,0,1,64,50.5v-5A1.5,1.5,0,0,1,65.5,44h5A1.5,1.5,0,0,1,72,45.5Zm0-12A1.5,1.5,0,0,1,70.5,40h-5A1.5,1.5,0,0,1,64,38.5v-5A1.5,1.5,0,0,1,65.5,32h5A1.5,1.5,0,0,1,72,33.5Z" fill="currentColor"/>
</svg>
