<svg xmlns="http://www.w3.org/2000/svg" viewBox="0 0 104 104">
  <path id="Icon_awesome-globe-europe" data-name="Icon awesome-globe-europe" d="M52,.563a52,52,0,1,0,52,52A51.991,51.991,0,0,0,52,.563Zm41.935,52a41.752,41.752,0,0,1-2.265,13.5H87.415a3.313,3.313,0,0,1-2.39-1.006l-6.71-6.835a2.5,2.5,0,0,1,.021-3.5L80.956,52.1V50.277a2.381,2.381,0,0,0-.692-1.677l-1.971-1.971a2.381,2.381,0,0,0-1.677-.692H73.261a2.372,2.372,0,0,1-1.677-4.047l1.971-1.971a2.381,2.381,0,0,1,1.677-.692h6.71a2.38,2.38,0,0,0,2.369-2.369V34.887a2.38,2.38,0,0,0-2.369-2.369h-7.7a3.365,3.365,0,0,0-3.355,3.355v.944A3.364,3.364,0,0,1,68.606,40l-6.626,2.2A1.668,1.668,0,0,0,60.827,43.8v.461a1.682,1.682,0,0,1-1.677,1.677H55.8a1.682,1.682,0,0,1-1.677-1.677,1.682,1.682,0,0,0-1.677-1.677h-.65a1.709,1.709,0,0,0-1.51.923L48.31,47.425a3.339,3.339,0,0,1-3,1.845H40.677a3.365,3.365,0,0,1-3.355-3.355v-5.3a3.367,3.367,0,0,1,.985-2.369l4.215-4.215a5.188,5.188,0,0,0,1.51-3.669,1.688,1.688,0,0,1,1.153-1.594l8.387-2.789a2.44,2.44,0,0,0,.923-.566l5.619-5.619a2.372,2.372,0,0,0-1.677-4.047H54.1L50.742,19.1v1.677a1.682,1.682,0,0,1-1.677,1.677H45.71a1.682,1.682,0,0,1-1.677-1.677V16.582A1.688,1.688,0,0,1,44.7,15.24l6.06-4.55c.4-.021.8-.063,1.2-.063A41.987,41.987,0,0,1,93.935,52.563ZM27.279,30.148a2.381,2.381,0,0,1,.692-1.677L33.3,23.145a2.372,2.372,0,0,1,4.047,1.677v3.355a2.381,2.381,0,0,1-.692,1.677l-1.971,1.971A2.381,2.381,0,0,1,33,32.517H29.648A2.38,2.38,0,0,1,27.279,30.148ZM54.118,94.393V92.9a3.365,3.365,0,0,0-3.355-3.355H46.527A14.516,14.516,0,0,1,39.1,87.075l-4.655-3.5a9.523,9.523,0,0,1-3.816-7.632V70.93a9.528,9.528,0,0,1,4.634-8.177l9-5.389A9.666,9.666,0,0,1,49.169,56h6.542a9.565,9.565,0,0,1,6.206,2.285l9.058,7.779h3.837a6.7,6.7,0,0,1,4.739,1.971l3.627,3.627a3.842,3.842,0,0,0,2.7,1.111h2.81A41.861,41.861,0,0,1,54.118,94.393Z" transform="translate(0 -0.563)" fill="currentColor"/>
</svg>
