<svg xmlns="http://www.w3.org/2000/svg" viewBox="0 0 104 72.8">
  <path id="Icon_awesome-hands" data-name="Icon awesome-hands" d="M33.28,31.54a5.2,5.2,0,0,0-8.32,6.24l6.191,8.255a2.6,2.6,0,0,1-.244,3.4l-2.08,2.08a2.584,2.584,0,0,1-3.835-.179L10.4,33.815V9.7A5.2,5.2,0,1,0,0,9.7V45.19a7.808,7.808,0,0,0,1.706,4.875L18.622,71.889a9.7,9.7,0,0,1,1.69,3.526A2.546,2.546,0,0,0,22.8,77.3H44.2a2.608,2.608,0,0,0,2.6-2.6V56.5a20.832,20.832,0,0,0-4.16-12.48L33.28,31.54ZM98.8,4.5a5.194,5.194,0,0,0-5.2,5.2V33.815L79.007,51.333a2.61,2.61,0,0,1-3.835.179l-2.08-2.08a2.6,2.6,0,0,1-.244-3.4L79.04,37.78a5.2,5.2,0,1,0-8.32-6.24L61.36,44.02A20.832,20.832,0,0,0,57.2,56.5V74.7a2.608,2.608,0,0,0,2.6,2.6H81.2a2.56,2.56,0,0,0,2.486-1.885,9.7,9.7,0,0,1,1.69-3.526l16.916-21.824A7.808,7.808,0,0,0,104,45.19V9.7A5.194,5.194,0,0,0,98.8,4.5Z" transform="translate(0 -4.5)" fill="currentColor"/>
</svg>
