<svg xmlns="http://www.w3.org/2000/svg" viewBox="0 0 108.006 96">
  <path id="hand-holding-seedling-solid" d="M90,0H78A29.8,29.8,0,0,0,58.163,7.65a35.8,35.8,0,0,1,7.8,21.75A30.013,30.013,0,0,0,90,0ZM48,30V51a3.009,3.009,0,0,0,3,3h6a3.009,3.009,0,0,0,3-3V30A29.992,29.992,0,0,0,30,0H18A29.992,29.992,0,0,0,48,30Zm57.994,31.519a6.207,6.207,0,0,0-7.988,0L80.681,75.375A11.937,11.937,0,0,1,73.181,78H51a3,3,0,0,1,0-6H65.681a6.242,6.242,0,0,0,6.244-4.987A6.007,6.007,0,0,0,66,60H36a22.068,22.068,0,0,0-13.894,4.931L13.388,72H3a3.009,3.009,0,0,0-3,3V93a3.009,3.009,0,0,0,3,3H69.9a12.015,12.015,0,0,0,7.5-2.625l28.35-22.687A6,6,0,0,0,105.994,61.519Z" fill="currentColor"/>
</svg>
