<svg xmlns="http://www.w3.org/2000/svg" viewBox="0 0 104 34.665">
  <path id="Icon_awesome-hand-holding" data-name="Icon awesome-hand-holding" d="M102.062,23.962a5.976,5.976,0,0,0-7.691,0L77.689,37.3a11.494,11.494,0,0,1-7.222,2.528H49.108a2.889,2.889,0,1,1,0-5.777H63.245a6.011,6.011,0,0,0,6.012-4.8A5.784,5.784,0,0,0,63.552,22.5H34.665a21.249,21.249,0,0,0-13.378,4.748l-8.4,6.807h-10A2.9,2.9,0,0,0,0,36.944V54.276a2.9,2.9,0,0,0,2.889,2.889H67.307a11.569,11.569,0,0,0,7.222-2.528l27.3-21.846A5.775,5.775,0,0,0,102.062,23.962Z" transform="translate(104 57.165) rotate(180)" fill="currentColor"/>
</svg>
