<svg xmlns="http://www.w3.org/2000/svg" width="85.075" height="85.075" viewBox="0 0 85.075 85.075">
  <path id="Icon_awesome-check-circle" data-name="Icon awesome-check-circle" d="M85.638,43.1A42.538,42.538,0,1,1,43.1.562,42.538,42.538,0,0,1,85.638,43.1ZM38.18,65.623l31.56-31.56a2.744,2.744,0,0,0,0-3.881L65.859,26.3a2.744,2.744,0,0,0-3.881,0L36.239,52.04,24.222,40.023a2.745,2.745,0,0,0-3.881,0L16.46,43.9a2.744,2.744,0,0,0,0,3.881L34.3,65.623a2.744,2.744,0,0,0,3.881,0Z" transform="translate(-0.563 -0.563)" fill="currentColor"/>
</svg>
