<svg xmlns="http://www.w3.org/2000/svg" viewBox="0 0 104 104">
  <path id="Icon_awesome-envira" data-name="Icon awesome-envira" d="M0,2.25c110.871,0,85.1,73.659,85.22,85.034L104,106.25H97.964L81.621,89.721c-9.054.975-28.879,8.009-49.771-8.589C10.911,64.534,12.071,44.663,0,2.25ZM18.5,12.929c-11.538-5.455-1.207,2.136-1.207,2.136C27.788,22.307,32.616,32.173,38.234,42.9c7.313,13.975,18.339,32.43,33.475,38.93,15.089,6.5,7.939,2.9,1.393-1.973-6.546-4.921-15.832-20.2-21.125-30.225C44.618,35.7,37.816,22.1,18.5,12.929Z" transform="translate(0 -2.25)" fill="currentColor"/>
</svg>
