<svg xmlns="http://www.w3.org/2000/svg" viewBox="0 0 104 83.193">
  <path id="Icon_awesome-hands-helping" data-name="Icon awesome-hands-helping" d="M79.3,31.2H54.6v9.1a11.7,11.7,0,0,1-23.4,0V20.538L20.656,26.875a10.378,10.378,0,0,0-5.054,8.9v7.686l-13,7.507a5.188,5.188,0,0,0-1.9,7.1L13.7,80.6a5.2,5.2,0,0,0,7.1,1.9l16.8-9.7H59.8A10.41,10.41,0,0,0,70.2,62.4h2.6A5.194,5.194,0,0,0,78,57.2V46.8h1.3a3.891,3.891,0,0,0,3.9-3.9V35.1A3.891,3.891,0,0,0,79.3,31.2Zm24-6.077L90.3,2.6A5.2,5.2,0,0,0,83.2.7L66.4,10.4H49.792a10.478,10.478,0,0,0-5.509,1.576l-5.444,3.4a5.165,5.165,0,0,0-2.437,4.4V40.3a6.5,6.5,0,0,0,13,0V26H79.3a9.106,9.106,0,0,1,9.1,9.1v4.631l13-7.507a5.205,5.205,0,0,0,1.9-7.1Z" transform="translate(0.002 -0.001)" fill="currentColor"/>
</svg>
