<?xml version="1.0" encoding="utf-8"?>
<!-- Generator: Adobe Illustrator 23.0.6, SVG Export Plug-In . SVG Version: 6.00 Build 0)  -->
<svg version="1.1" id="Layer_1" xmlns="http://www.w3.org/2000/svg" xmlns:xlink="http://www.w3.org/1999/xlink" x="0px" y="0px"
	 viewBox="0 0 330 228" style="enable-background:new 0 0 330 228;" xml:space="preserve">
<style type="text/css">
	.st0{fill:#080808;}
	.st1{fill:#242423;}
	.st2{fill:#1D1D1B;}
</style>
<g>
	<rect x="68.3" y="100.5" class="st0" width="89.6" height="3.8"/>
	<rect x="63.2" y="106.9" class="st0" width="99.6" height="3.8"/>
	<rect x="58.5" y="113.3" class="st0" width="109.2" height="3.8"/>
	<rect x="68.3" y="53.7" class="st0" width="89.6" height="3.8"/>
	<polygon class="st0" points="86.4,50.7 113.1,42.7 139.2,50.7 150.1,50.7 113.1,39.3 75.5,50.7 	"/>
	<polygon class="st0" points="68.3,50.7 112.8,37.1 157.9,50.7 157.9,46.7 113.1,32.9 68.3,46.7 	"/>
	<path class="st0" d="M73.5,95.5c0,0,0,2.8,3.2,2.8c3.2,0,3-2.8,3-2.8V59.1h-2.3v36.6c0,0,0,0.7-0.9,0.7c-0.8,0-0.7-0.8-0.7-0.8
		V59.1h-2.3V95.5z"/>
	<polygon class="st0" points="88.3,98.4 90.1,98.4 90.1,75.8 92.5,98.4 94.5,98.4 94.5,59.1 92.5,59.1 92.5,77.9 91.2,59.1 
		88.3,59.1 	"/>
	<polygon class="st0" points="103.2,98.4 109.2,98.4 109.2,96.3 105.8,96.3 105.8,78.5 108.4,78.5 108.4,76.4 105.8,76.4 
		105.8,61.1 108.4,61.1 108.4,59.1 103.2,59.1 	"/>
	<path class="st0" d="M137.8,70.7v-8.8c0,0-0.1-2.8-3.1-2.8c-3,0-3,2.8-3,2.8v33.6c0,0-0.1,2.8,3,2.8c3.1,0,3.1-2.8,3.1-2.8v-9.9
		h-2.3v9.9c0,0,0,0.8-0.8,0.8c-0.7,0-0.8-0.8-0.8-0.8V61.9c0,0,0-0.8,0.8-0.8c0.8,0,0.8,0.8,0.8,0.8v8.8H137.8z"/>
	<path class="st0" d="M150.5,95.5c0,0,0.1,0.8-0.8,0.8c-0.9,0-0.9-0.8-0.9-0.8V61.9c0,0,0-0.8,0.8-0.8c0.9,0,0.9,0.8,0.9,0.8V95.5
		L150.5,95.5z M152.7,78V61.9c0,0,0.2-2.8-3.1-2.8c-3.3,0-3.3,2.8-3.3,2.8v33.6c0,0,0,2.8,3.1,2.8c3.3,0,3.3-2.8,3.3-2.8V78z"/>
	<path class="st0" d="M120.6,95.5c0,0,0,0.8-0.6,0.7c-0.6-0.1-0.6-0.7-0.6-0.7v-9.9h-2.4v9.9c0,0-0.1,2.8,3,2.8
		c3.1,0,3.1-2.8,3.1-2.8v-7c0,0,0,0.4,0-1.5c0-4.6-3.7-13.4-3.7-16.3c0-0.4,0-0.8,0-0.8v-8.1c0,0-0.1-0.8,0.6-0.8
		c0.7,0,0.7,0.8,0.7,0.8v8.8h2.4v-8.8c0,0,0.1-2.9-3-2.8c-3.1,0.1-3.1,2.8-3.1,2.8v5.9c0,0,0,1,0,1.6c0,4.9,3.7,13.2,3.7,17.1
		c0,2.5,0,0.9,0,0.9V95.5z"/>
	<path class="st1" d="M89.3,142.3c0,1.2,0.3,2.2,1,2.9c0.7,0.7,1.5,1.1,2.5,1.1c1,0,1.9-0.4,2.5-1.1c0.7-0.7,1-1.7,1-3
		c0-0.8-0.1-1.6-0.4-2.2c-0.3-0.6-0.7-1.1-1.2-1.4c-0.5-0.3-1.1-0.5-1.8-0.5c-1,0-1.8,0.3-2.5,1C89.6,139.6,89.3,140.7,89.3,142.3
		L89.3,142.3z M87.9,142.2c0-1.7,0.5-3,1.4-4c0.9-1,2.1-1.4,3.5-1.4c0.9,0,1.8,0.2,2.5,0.7c0.8,0.4,1.3,1.1,1.7,1.9
		c0.4,0.8,0.6,1.7,0.6,2.7c0,1-0.2,2-0.6,2.8c-0.4,0.8-1,1.4-1.8,1.9c-0.8,0.4-1.6,0.6-2.5,0.6c-1,0-1.8-0.2-2.6-0.7
		c-0.8-0.5-1.3-1.1-1.7-1.9C88.1,144,87.9,143.1,87.9,142.2z"/>
	<path class="st1" d="M99.2,147.2v-7.4h1.1v1.1c0.3-0.5,0.6-0.9,0.8-1c0.2-0.2,0.5-0.2,0.8-0.2c0.4,0,0.9,0.1,1.3,0.4l-0.4,1.2
		c-0.3-0.2-0.6-0.3-0.9-0.3c-0.3,0-0.5,0.1-0.7,0.2c-0.2,0.2-0.4,0.4-0.5,0.7c-0.1,0.4-0.2,0.9-0.2,1.5v3.9H99.2z"/>
	<path class="st1" d="M104.7,143.4c0,1,0.2,1.7,0.6,2.1c0.4,0.4,0.9,0.7,1.5,0.7c0.6,0,1.1-0.2,1.5-0.7c0.4-0.4,0.6-1.1,0.6-2.1
		c0-0.9-0.2-1.6-0.6-2c-0.4-0.5-0.9-0.7-1.5-0.7c-0.6,0-1,0.2-1.4,0.7C104.9,141.8,104.7,142.5,104.7,143.4L104.7,143.4z
		 M103.7,147.8l1.2,0.2c0.1,0.4,0.2,0.7,0.4,0.8c0.3,0.2,0.7,0.3,1.3,0.3c0.6,0,1-0.1,1.3-0.3c0.3-0.2,0.5-0.6,0.6-1
		c0.1-0.3,0.1-0.8,0.1-1.6c-0.5,0.6-1.2,1-2.1,1c-1,0-1.8-0.4-2.4-1.1c-0.6-0.7-0.8-1.6-0.8-2.6c0-0.7,0.1-1.4,0.4-2
		c0.3-0.6,0.6-1.1,1.1-1.4c0.5-0.3,1.1-0.5,1.7-0.5c0.9,0,1.6,0.4,2.2,1.1v-0.9h1.1v6.4c0,1.2-0.1,2-0.4,2.4
		c-0.2,0.5-0.6,0.9-1.1,1.1c-0.5,0.3-1.1,0.4-1.9,0.4c-0.9,0-1.6-0.2-2.1-0.6C103.9,149.2,103.7,148.6,103.7,147.8z"/>
	<path class="st1" d="M116.6,143.5c-0.5,0.2-1.1,0.3-2.1,0.5c-0.5,0.1-0.9,0.2-1.1,0.3c-0.2,0.1-0.4,0.2-0.5,0.4
		c-0.1,0.2-0.2,0.4-0.2,0.6c0,0.3,0.1,0.6,0.4,0.8c0.3,0.2,0.6,0.3,1.1,0.3c0.5,0,0.9-0.1,1.3-0.3c0.4-0.2,0.7-0.5,0.8-0.9
		c0.1-0.3,0.2-0.7,0.2-1.3L116.6,143.5L116.6,143.5z M116.7,146.3c-0.5,0.4-0.9,0.7-1.3,0.8c-0.4,0.2-0.9,0.2-1.4,0.2
		c-0.8,0-1.4-0.2-1.9-0.6c-0.4-0.4-0.7-0.9-0.7-1.5c0-0.4,0.1-0.7,0.2-1c0.2-0.3,0.4-0.5,0.7-0.7c0.3-0.2,0.6-0.3,0.9-0.4
		c0.2-0.1,0.6-0.1,1.1-0.2c1-0.1,1.8-0.3,2.2-0.4c0-0.2,0-0.3,0-0.3c0-0.5-0.1-0.9-0.4-1.1c-0.3-0.3-0.8-0.4-1.4-0.4
		c-0.6,0-1,0.1-1.3,0.3c-0.3,0.2-0.5,0.6-0.6,1.1l-1.2-0.2c0.1-0.5,0.3-0.9,0.6-1.3c0.3-0.3,0.6-0.6,1.1-0.7c0.5-0.2,1-0.3,1.7-0.3
		c0.6,0,1.1,0.1,1.5,0.2c0.4,0.1,0.7,0.3,0.9,0.6c0.2,0.2,0.3,0.5,0.4,0.8c0,0.2,0.1,0.6,0.1,1.2v1.7c0,1.2,0,1.9,0.1,2.2
		c0.1,0.3,0.2,0.6,0.3,0.9h-1.3C116.8,147,116.7,146.6,116.7,146.3z"/>
	<path class="st1" d="M119.8,147.2v-7.4h1.1v1.1c0.5-0.8,1.3-1.2,2.4-1.2c0.4,0,0.9,0.1,1.2,0.2c0.4,0.2,0.7,0.4,0.8,0.6
		c0.2,0.3,0.3,0.6,0.4,0.9c0,0.2,0.1,0.6,0.1,1.2v4.5h-1.3v-4.5c0-0.5,0-0.9-0.1-1.1c-0.1-0.3-0.3-0.5-0.5-0.6
		c-0.2-0.2-0.5-0.2-0.9-0.2c-0.5,0-1,0.2-1.4,0.5c-0.4,0.3-0.6,1-0.6,1.9v4H119.8z"/>
	<path class="st1" d="M127.7,147.2v-7.4h1.3v7.4H127.7L127.7,147.2z M127.7,138.4V137h1.3v1.4H127.7z"/>
	<path class="st1" d="M130.3,145l1.2-0.2c0.1,0.5,0.3,0.9,0.6,1.1c0.3,0.3,0.8,0.4,1.3,0.4c0.6,0,1-0.1,1.3-0.4
		c0.3-0.2,0.4-0.5,0.4-0.8c0-0.3-0.1-0.5-0.4-0.7c-0.2-0.1-0.6-0.3-1.3-0.4c-0.9-0.2-1.6-0.4-1.9-0.6c-0.4-0.2-0.6-0.4-0.8-0.7
		c-0.2-0.3-0.3-0.6-0.3-1c0-0.3,0.1-0.6,0.2-0.9c0.2-0.3,0.4-0.5,0.6-0.7c0.2-0.1,0.5-0.3,0.8-0.4c0.3-0.1,0.7-0.1,1.1-0.1
		c0.6,0,1.1,0.1,1.5,0.3c0.4,0.2,0.8,0.4,1,0.7c0.2,0.3,0.4,0.7,0.4,1.1l-1.2,0.2c-0.1-0.4-0.2-0.7-0.5-0.9
		c-0.3-0.2-0.6-0.3-1.1-0.3c-0.6,0-1,0.1-1.2,0.3c-0.2,0.2-0.4,0.4-0.4,0.7c0,0.2,0.1,0.3,0.2,0.4c0.1,0.1,0.3,0.2,0.5,0.3
		c0.1,0,0.5,0.2,1.1,0.3c0.9,0.2,1.5,0.4,1.9,0.6c0.4,0.2,0.6,0.4,0.8,0.7c0.2,0.3,0.3,0.6,0.3,1.1c0,0.4-0.1,0.8-0.4,1.2
		c-0.2,0.4-0.6,0.7-1.1,0.9c-0.5,0.2-1,0.3-1.6,0.3c-1,0-1.7-0.2-2.2-0.6C130.8,146.4,130.5,145.8,130.3,145z"/>
	<path class="st1" d="M142.7,143.5c-0.5,0.2-1.1,0.3-2.1,0.5c-0.5,0.1-0.9,0.2-1.1,0.3c-0.2,0.1-0.4,0.2-0.5,0.4
		c-0.1,0.2-0.2,0.4-0.2,0.6c0,0.3,0.1,0.6,0.4,0.8c0.3,0.2,0.6,0.3,1.1,0.3c0.5,0,0.9-0.1,1.3-0.3c0.4-0.2,0.7-0.5,0.8-0.9
		c0.1-0.3,0.2-0.7,0.2-1.3L142.7,143.5L142.7,143.5z M142.8,146.3c-0.5,0.4-0.9,0.7-1.3,0.8c-0.4,0.2-0.9,0.2-1.4,0.2
		c-0.8,0-1.4-0.2-1.9-0.6c-0.4-0.4-0.7-0.9-0.7-1.5c0-0.4,0.1-0.7,0.2-1c0.2-0.3,0.4-0.5,0.7-0.7c0.3-0.2,0.6-0.3,0.9-0.4
		c0.2-0.1,0.6-0.1,1.1-0.2c1-0.1,1.8-0.3,2.2-0.4c0-0.2,0-0.3,0-0.3c0-0.5-0.1-0.9-0.4-1.1c-0.3-0.3-0.8-0.4-1.4-0.4
		c-0.6,0-1,0.1-1.3,0.3c-0.3,0.2-0.5,0.6-0.6,1.1l-1.2-0.2c0.1-0.5,0.3-0.9,0.6-1.3c0.3-0.3,0.6-0.6,1.1-0.7c0.5-0.2,1-0.3,1.7-0.3
		c0.6,0,1.1,0.1,1.5,0.2c0.4,0.1,0.7,0.3,0.9,0.6c0.2,0.2,0.3,0.5,0.4,0.8c0,0.2,0.1,0.6,0.1,1.2v1.7c0,1.2,0,1.9,0.1,2.2
		c0.1,0.3,0.2,0.6,0.3,0.9h-1.3C142.9,147,142.8,146.6,142.8,146.3z"/>
	<path class="st1" d="M148.6,146.1l0.2,1.1c-0.4,0.1-0.7,0.1-0.9,0.1c-0.5,0-0.8-0.1-1.1-0.2c-0.2-0.1-0.4-0.3-0.5-0.6
		c-0.1-0.2-0.2-0.7-0.2-1.5v-4.3h-0.9v-1h0.9V138l1.3-0.8v2.6h1.3v1h-1.3v4.3c0,0.4,0,0.6,0.1,0.7c0,0.1,0.1,0.2,0.2,0.2
		c0.1,0.1,0.2,0.1,0.4,0.1C148.2,146.1,148.4,146.1,148.6,146.1z"/>
	<path class="st1" d="M149.8,147.2v-7.4h1.3v7.4H149.8L149.8,147.2z M149.8,138.4V137h1.3v1.4H149.8z"/>
	<path class="st1" d="M153.8,143.5c0,0.9,0.2,1.7,0.6,2.1c0.4,0.5,0.9,0.7,1.6,0.7c0.6,0,1.1-0.2,1.5-0.7c0.4-0.5,0.6-1.2,0.6-2.2
		c0-0.9-0.2-1.6-0.6-2.1c-0.4-0.5-0.9-0.7-1.5-0.7c-0.6,0-1.1,0.2-1.6,0.7C154,141.9,153.8,142.6,153.8,143.5L153.8,143.5z
		 M152.5,143.5c0-1.4,0.4-2.4,1.1-3c0.6-0.5,1.4-0.8,2.3-0.8c1,0,1.8,0.3,2.5,1c0.6,0.7,1,1.6,1,2.8c0,1-0.1,1.7-0.4,2.2
		c-0.3,0.5-0.7,1-1.2,1.3c-0.5,0.3-1.1,0.5-1.8,0.5c-1,0-1.9-0.3-2.5-1C152.9,145.7,152.5,144.8,152.5,143.5z"/>
	<path class="st1" d="M160.9,147.2v-7.4h1.1v1.1c0.5-0.8,1.3-1.2,2.4-1.2c0.4,0,0.9,0.1,1.2,0.2c0.4,0.2,0.7,0.4,0.8,0.6
		c0.2,0.3,0.3,0.6,0.4,0.9c0,0.2,0.1,0.6,0.1,1.2v4.5h-1.3v-4.5c0-0.5,0-0.9-0.1-1.1c-0.1-0.3-0.3-0.5-0.5-0.6
		c-0.2-0.2-0.5-0.2-0.9-0.2c-0.5,0-1,0.2-1.4,0.5c-0.4,0.3-0.6,1-0.6,1.9v4H160.9z"/>
	<path class="st1" d="M24,159.1c0,0.9,0.2,1.7,0.6,2.1c0.4,0.5,0.9,0.7,1.4,0.7c0.5,0,1-0.2,1.4-0.7c0.4-0.4,0.6-1.1,0.6-2
		c0-1-0.2-1.8-0.6-2.2c-0.4-0.5-0.9-0.7-1.4-0.7c-0.6,0-1,0.2-1.4,0.7C24.2,157.4,24,158.1,24,159.1L24,159.1z M28,162.8v-0.9
		c-0.5,0.7-1.2,1.1-2.1,1.1c-0.6,0-1.1-0.2-1.6-0.5c-0.5-0.3-0.9-0.8-1.1-1.4c-0.3-0.6-0.4-1.3-0.4-2c0-0.7,0.1-1.4,0.4-2
		c0.2-0.6,0.6-1.1,1.1-1.4c0.5-0.3,1-0.5,1.6-0.5c0.4,0,0.8,0.1,1.2,0.3c0.3,0.2,0.6,0.4,0.8,0.7v-3.7h1.3v10.2H28z"/>
	<path class="st1" d="M32,158.4h4.1c-0.1-0.6-0.2-1.1-0.5-1.4c-0.4-0.5-0.9-0.7-1.5-0.7c-0.6,0-1.1,0.2-1.4,0.6
		C32.3,157.2,32.1,157.7,32,158.4L32,158.4z M36.2,160.4l1.3,0.2c-0.2,0.8-0.6,1.3-1.1,1.8c-0.6,0.4-1.3,0.6-2.1,0.6
		c-1.1,0-1.9-0.3-2.6-1c-0.6-0.7-0.9-1.6-0.9-2.8c0-1.2,0.3-2.2,1-2.9c0.6-0.7,1.5-1,2.5-1c1,0,1.8,0.3,2.4,1
		c0.6,0.7,0.9,1.6,0.9,2.8c0,0.1,0,0.2,0,0.3H32c0,0.8,0.3,1.4,0.7,1.9c0.4,0.4,0.9,0.6,1.5,0.6c0.5,0,0.8-0.1,1.2-0.4
		C35.7,161.3,36,160.9,36.2,160.4z"/>
	<path class="st1" d="M39,162.8v-7.4h1.1v1.1c0.3-0.5,0.6-0.9,0.8-1c0.2-0.2,0.5-0.2,0.8-0.2c0.4,0,0.9,0.1,1.3,0.4l-0.4,1.2
		c-0.3-0.2-0.6-0.3-0.9-0.3c-0.3,0-0.5,0.1-0.7,0.2c-0.2,0.2-0.4,0.4-0.5,0.7c-0.1,0.4-0.2,0.9-0.2,1.5v3.9H39z"/>
	<path class="st1" d="M50.8,162.8l-3.9-10.2h1.5L51,160c0.2,0.6,0.4,1.2,0.5,1.7c0.2-0.6,0.3-1.1,0.5-1.7l2.8-7.4h1.4l-4,10.2H50.8z
		"/>
	<path class="st1" d="M57.4,158.4h4.1c-0.1-0.6-0.2-1.1-0.5-1.4c-0.4-0.5-0.9-0.7-1.5-0.7c-0.6,0-1.1,0.2-1.4,0.6
		C57.6,157.2,57.4,157.7,57.4,158.4L57.4,158.4z M61.5,160.4l1.3,0.2c-0.2,0.8-0.6,1.3-1.1,1.8c-0.6,0.4-1.3,0.6-2.1,0.6
		c-1.1,0-1.9-0.3-2.6-1c-0.6-0.7-0.9-1.6-0.9-2.8c0-1.2,0.3-2.2,1-2.9c0.6-0.7,1.5-1,2.5-1c1,0,1.8,0.3,2.4,1
		c0.6,0.7,0.9,1.6,0.9,2.8c0,0.1,0,0.2,0,0.3h-5.5c0,0.8,0.3,1.4,0.7,1.9c0.4,0.4,0.9,0.6,1.5,0.6c0.5,0,0.8-0.1,1.2-0.4
		C61,161.3,61.3,160.9,61.5,160.4z"/>
	<path class="st1" d="M64.3,162.8v-7.4h1.1v1.1c0.3-0.5,0.6-0.9,0.8-1c0.2-0.2,0.5-0.2,0.8-0.2c0.4,0,0.9,0.1,1.3,0.4l-0.4,1.2
		c-0.3-0.2-0.6-0.3-0.9-0.3c-0.3,0-0.5,0.1-0.7,0.2c-0.2,0.2-0.4,0.4-0.5,0.7c-0.1,0.4-0.2,0.9-0.2,1.5v3.9H64.3z"/>
	<path class="st1" d="M70,158.4h4.1c-0.1-0.6-0.2-1.1-0.5-1.4c-0.4-0.5-0.9-0.7-1.5-0.7c-0.6,0-1.1,0.2-1.4,0.6
		C70.3,157.2,70.1,157.7,70,158.4L70,158.4z M74.1,160.4l1.3,0.2c-0.2,0.8-0.6,1.3-1.1,1.8c-0.6,0.4-1.3,0.6-2.1,0.6
		c-1.1,0-1.9-0.3-2.6-1c-0.6-0.7-0.9-1.6-0.9-2.8c0-1.2,0.3-2.2,1-2.9c0.6-0.7,1.5-1,2.5-1c1,0,1.8,0.3,2.4,1
		c0.6,0.7,0.9,1.6,0.9,2.8c0,0.1,0,0.2,0,0.3H70c0,0.8,0.3,1.4,0.7,1.9c0.4,0.4,0.9,0.6,1.5,0.6c0.5,0,0.8-0.1,1.2-0.4
		C73.7,161.3,74,160.9,74.1,160.4z"/>
	<path class="st1" d="M77,162.8v-7.4h1.3v7.4H77L77,162.8z M77,154v-1.4h1.3v1.4H77z"/>
	<path class="st1" d="M80.2,162.8v-7.4h1.1v1.1c0.5-0.8,1.3-1.2,2.4-1.2c0.4,0,0.9,0.1,1.2,0.2c0.4,0.2,0.7,0.4,0.8,0.6
		c0.2,0.3,0.3,0.6,0.4,0.9c0,0.2,0.1,0.6,0.1,1.2v4.5h-1.3v-4.5c0-0.5,0-0.9-0.1-1.1c-0.1-0.3-0.3-0.5-0.5-0.6
		c-0.2-0.2-0.5-0.2-0.9-0.2c-0.5,0-1,0.2-1.4,0.5c-0.4,0.3-0.6,1-0.6,1.9v4H80.2z"/>
	<path class="st1" d="M90.8,161.6l0.2,1.1c-0.4,0.1-0.7,0.1-0.9,0.1c-0.5,0-0.8-0.1-1.1-0.2c-0.2-0.1-0.4-0.3-0.5-0.6
		c-0.1-0.2-0.2-0.7-0.2-1.5v-4.3h-0.9v-1h0.9v-1.8l1.3-0.8v2.6h1.3v1h-1.3v4.3c0,0.4,0,0.6,0.1,0.7c0,0.1,0.1,0.2,0.2,0.2
		c0.1,0.1,0.2,0.1,0.4,0.1C90.4,161.7,90.6,161.7,90.8,161.6z"/>
	<path class="st1" d="M93,158.4h4.1c-0.1-0.6-0.2-1.1-0.5-1.4c-0.4-0.5-0.9-0.7-1.5-0.7c-0.6,0-1.1,0.2-1.4,0.6
		C93.3,157.2,93,157.7,93,158.4L93,158.4z M97.1,160.4l1.3,0.2c-0.2,0.8-0.6,1.3-1.1,1.8c-0.6,0.4-1.3,0.6-2.1,0.6
		c-1.1,0-1.9-0.3-2.6-1c-0.6-0.7-0.9-1.6-0.9-2.8c0-1.2,0.3-2.2,1-2.9c0.6-0.7,1.5-1,2.5-1c1,0,1.8,0.3,2.4,1
		c0.6,0.7,0.9,1.6,0.9,2.8c0,0.1,0,0.2,0,0.3h-5.5c0,0.8,0.3,1.4,0.7,1.9c0.4,0.4,0.9,0.6,1.5,0.6c0.5,0,0.8-0.1,1.2-0.4
		C96.7,161.3,96.9,160.9,97.1,160.4z"/>
	<path class="st1" d="M100,162.8v-7.4h1.1v1.1c0.5-0.8,1.3-1.2,2.4-1.2c0.4,0,0.9,0.1,1.2,0.2c0.4,0.2,0.7,0.4,0.8,0.6
		c0.2,0.3,0.3,0.6,0.4,0.9c0,0.2,0.1,0.6,0.1,1.2v4.5h-1.3v-4.5c0-0.5,0-0.9-0.1-1.1c-0.1-0.3-0.3-0.5-0.5-0.6
		c-0.2-0.2-0.5-0.2-0.9-0.2c-0.5,0-1,0.2-1.4,0.5c-0.4,0.3-0.6,1-0.6,1.9v4H100z"/>
	<polygon class="st1" points="112,162.8 112,152.5 113.4,152.5 118.8,160.6 118.8,152.5 120.1,152.5 120.1,162.8 118.7,162.8 
		113.3,154.7 113.3,162.8 	"/>
	<path class="st1" d="M126.9,159c-0.5,0.2-1.1,0.3-2.1,0.5c-0.5,0.1-0.9,0.2-1.1,0.3c-0.2,0.1-0.4,0.2-0.5,0.4
		c-0.1,0.2-0.2,0.4-0.2,0.6c0,0.3,0.1,0.6,0.4,0.8c0.3,0.2,0.6,0.3,1.1,0.3c0.5,0,0.9-0.1,1.3-0.3c0.4-0.2,0.7-0.5,0.8-0.9
		c0.1-0.3,0.2-0.7,0.2-1.3L126.9,159L126.9,159z M127,161.8c-0.5,0.4-0.9,0.7-1.3,0.8c-0.4,0.2-0.9,0.2-1.4,0.2
		c-0.8,0-1.4-0.2-1.9-0.6c-0.4-0.4-0.7-0.9-0.7-1.5c0-0.4,0.1-0.7,0.2-1c0.2-0.3,0.4-0.5,0.7-0.7c0.3-0.2,0.6-0.3,0.9-0.4
		c0.2-0.1,0.6-0.1,1.1-0.2c1-0.1,1.8-0.3,2.2-0.4c0-0.2,0-0.3,0-0.3c0-0.5-0.1-0.9-0.4-1.1c-0.3-0.3-0.8-0.4-1.4-0.4
		c-0.6,0-1,0.1-1.3,0.3c-0.3,0.2-0.5,0.6-0.6,1.1l-1.2-0.2c0.1-0.5,0.3-0.9,0.6-1.3c0.3-0.3,0.6-0.6,1.1-0.7c0.5-0.2,1-0.3,1.7-0.3
		c0.6,0,1.1,0.1,1.5,0.2c0.4,0.1,0.7,0.3,0.9,0.6c0.2,0.2,0.3,0.5,0.4,0.9c0,0.2,0.1,0.6,0.1,1.2v1.7c0,1.2,0,1.9,0.1,2.2
		c0.1,0.3,0.2,0.6,0.3,0.9h-1.3C127.1,162.5,127,162.2,127,161.8z"/>
	<path class="st1" d="M132.8,161.6l0.2,1.1c-0.4,0.1-0.7,0.1-0.9,0.1c-0.5,0-0.8-0.1-1.1-0.2c-0.2-0.1-0.4-0.3-0.5-0.6
		c-0.1-0.2-0.2-0.7-0.2-1.5v-4.3h-0.9v-1h0.9v-1.8l1.3-0.8v2.6h1.3v1h-1.3v4.3c0,0.4,0,0.6,0.1,0.7c0,0.1,0.1,0.2,0.2,0.2
		c0.1,0.1,0.2,0.1,0.4,0.1C132.4,161.7,132.6,161.7,132.8,161.6z"/>
	<path class="st1" d="M134,162.8v-7.4h1.3v7.4H134L134,162.8z M134,154v-1.4h1.3v1.4H134z"/>
	<path class="st1" d="M138,159.1c0,0.9,0.2,1.7,0.6,2.1c0.4,0.5,0.9,0.7,1.6,0.7c0.6,0,1.1-0.2,1.5-0.7c0.4-0.5,0.6-1.2,0.6-2.2
		c0-0.9-0.2-1.6-0.6-2.1c-0.4-0.5-0.9-0.7-1.5-0.7c-0.6,0-1.1,0.2-1.6,0.7C138.2,157.4,138,158.1,138,159.1L138,159.1z M136.7,159.1
		c0-1.4,0.4-2.4,1.1-3c0.6-0.5,1.4-0.8,2.3-0.8c1,0,1.8,0.3,2.5,1c0.6,0.7,1,1.6,1,2.8c0,1-0.1,1.7-0.4,2.2c-0.3,0.5-0.7,1-1.2,1.3
		c-0.5,0.3-1.1,0.5-1.8,0.5c-1,0-1.9-0.3-2.5-1C137,161.3,136.7,160.3,136.7,159.1z"/>
	<path class="st1" d="M145.1,162.8v-7.4h1.1v1.1c0.5-0.8,1.3-1.2,2.4-1.2c0.4,0,0.9,0.1,1.2,0.2c0.4,0.2,0.7,0.4,0.8,0.6
		c0.2,0.3,0.3,0.6,0.4,0.9c0,0.2,0.1,0.6,0.1,1.2v4.5h-1.3v-4.5c0-0.5,0-0.9-0.1-1.1c-0.1-0.3-0.3-0.5-0.5-0.6
		c-0.2-0.2-0.5-0.2-0.9-0.2c-0.5,0-1,0.2-1.4,0.5c-0.4,0.3-0.6,1-0.6,1.9v4H145.1z"/>
	<path class="st1" d="M154,158.4h4.1c-0.1-0.6-0.2-1.1-0.5-1.4c-0.4-0.5-0.9-0.7-1.5-0.7c-0.6,0-1.1,0.2-1.4,0.6
		C154.2,157.2,154,157.7,154,158.4L154,158.4z M158.1,160.4l1.3,0.2c-0.2,0.8-0.6,1.3-1.1,1.8c-0.6,0.4-1.3,0.6-2.1,0.6
		c-1.1,0-1.9-0.3-2.6-1c-0.6-0.7-0.9-1.6-0.9-2.8c0-1.2,0.3-2.2,1-2.9c0.6-0.7,1.5-1,2.5-1c1,0,1.8,0.3,2.4,1
		c0.6,0.7,0.9,1.6,0.9,2.8c0,0.1,0,0.2,0,0.3h-5.5c0,0.8,0.3,1.4,0.7,1.9c0.4,0.4,0.9,0.6,1.5,0.6c0.5,0,0.8-0.1,1.2-0.4
		C157.6,161.3,157.9,160.9,158.1,160.4z"/>
	<path class="st1" d="M160.9,162.8v-7.4h1.1v1.1c0.5-0.8,1.3-1.2,2.4-1.2c0.4,0,0.9,0.1,1.2,0.2c0.4,0.2,0.7,0.4,0.8,0.6
		c0.2,0.3,0.3,0.6,0.4,0.9c0,0.2,0.1,0.6,0.1,1.2v4.5h-1.3v-4.5c0-0.5,0-0.9-0.1-1.1c-0.1-0.3-0.3-0.5-0.5-0.6
		c-0.2-0.2-0.5-0.2-0.9-0.2c-0.5,0-1,0.2-1.4,0.5c-0.4,0.3-0.6,1-0.6,1.9v4H160.9z"/>
	<path class="st1" d="M8.5,178.3v-6.4H7.4v-1h1.1v-0.8c0-0.5,0-0.9,0.1-1.1c0.1-0.3,0.3-0.6,0.6-0.8c0.3-0.2,0.7-0.3,1.3-0.3
		c0.4,0,0.7,0,1.2,0.1l-0.2,1.1c-0.3,0-0.5-0.1-0.7-0.1c-0.4,0-0.6,0.1-0.8,0.2c-0.2,0.2-0.2,0.5-0.2,0.9v0.7h1.4v1H9.7v6.4H8.5z"/>
	<path class="st1" d="M15.7,170v-1.4H17v1.4H15.7L15.7,170z M13.1,170v-1.4h1.3v1.4H13.1L13.1,170z M17,178.3v-1.1
		c-0.6,0.8-1.4,1.2-2.3,1.2c-0.4,0-0.8-0.1-1.2-0.2c-0.4-0.2-0.7-0.4-0.8-0.6c-0.2-0.3-0.3-0.6-0.4-0.9c-0.1-0.2-0.1-0.6-0.1-1.2
		v-4.6h1.3v4.1c0,0.7,0,1.1,0.1,1.3c0.1,0.3,0.2,0.6,0.5,0.8c0.3,0.2,0.6,0.3,0.9,0.3c0.4,0,0.7-0.1,1.1-0.3
		c0.3-0.2,0.6-0.5,0.7-0.8c0.1-0.3,0.2-0.8,0.2-1.4v-4h1.3v7.4H17z"/>
	<path class="st1" d="M20,178.3v-7.4h1.1v1.1c0.3-0.5,0.6-0.9,0.8-1c0.2-0.2,0.5-0.2,0.8-0.2c0.4,0,0.9,0.1,1.3,0.4l-0.4,1.2
		c-0.3-0.2-0.6-0.3-0.9-0.3c-0.3,0-0.5,0.1-0.7,0.2c-0.2,0.2-0.4,0.4-0.5,0.7c-0.1,0.4-0.2,0.9-0.2,1.5v3.9H20z"/>
	<path class="st1" d="M30.2,177.1h2.5c0.4,0,0.7,0,0.9,0c0.3-0.1,0.6-0.1,0.8-0.3c0.2-0.1,0.4-0.3,0.5-0.6c0.1-0.2,0.2-0.5,0.2-0.9
		c0-0.4-0.1-0.7-0.3-1c-0.2-0.3-0.5-0.5-0.8-0.6c-0.3-0.1-0.8-0.2-1.5-0.2h-2.4V177.1L30.2,177.1z M30.2,172.4h2.2
		c0.6,0,1,0,1.3-0.1c0.3-0.1,0.6-0.3,0.8-0.5c0.2-0.2,0.3-0.5,0.3-0.9c0-0.3-0.1-0.6-0.2-0.9c-0.2-0.3-0.4-0.4-0.7-0.5
		c-0.3-0.1-0.8-0.1-1.5-0.1h-2V172.4L30.2,172.4z M28.9,178.3v-10.2h3.8c0.8,0,1.4,0.1,1.9,0.3c0.5,0.2,0.8,0.5,1.1,1
		c0.3,0.4,0.4,0.9,0.4,1.3c0,0.4-0.1,0.8-0.4,1.2c-0.2,0.4-0.6,0.7-1.1,0.9c0.6,0.2,1.1,0.5,1.4,0.9c0.3,0.4,0.5,1,0.5,1.5
		c0,0.5-0.1,0.9-0.3,1.3c-0.2,0.4-0.5,0.7-0.7,0.9c-0.3,0.2-0.7,0.4-1.1,0.5c-0.4,0.1-1,0.2-1.6,0.2H28.9z"/>
	<path class="st1" d="M38.3,178.3v-7.4h1.3v7.4H38.3L38.3,178.3z M38.3,169.5v-1.4h1.3v1.4H38.3z"/>
	<rect x="41.4" y="168.1" class="st1" width="1.3" height="10.2"/>
	<path class="st1" d="M45.4,174.6c0,0.9,0.2,1.7,0.6,2.1c0.4,0.5,0.9,0.7,1.4,0.7c0.5,0,1-0.2,1.4-0.7c0.4-0.4,0.6-1.1,0.6-2
		c0-1-0.2-1.8-0.6-2.2c-0.4-0.5-0.9-0.7-1.4-0.7c-0.6,0-1,0.2-1.4,0.7C45.6,172.9,45.4,173.6,45.4,174.6L45.4,174.6z M49.4,178.3
		v-0.9c-0.5,0.7-1.2,1.1-2.1,1.1c-0.6,0-1.1-0.2-1.6-0.5c-0.5-0.3-0.9-0.8-1.1-1.4c-0.3-0.6-0.4-1.3-0.4-2c0-0.7,0.1-1.4,0.4-2
		c0.2-0.6,0.6-1.1,1.1-1.4c0.5-0.3,1-0.5,1.6-0.5c0.4,0,0.8,0.1,1.2,0.3c0.3,0.2,0.6,0.4,0.8,0.7v-3.7h1.3v10.2H49.4z"/>
	<path class="st1" d="M57.3,178.3v-1.1c-0.6,0.8-1.4,1.2-2.3,1.2c-0.4,0-0.8-0.1-1.2-0.2c-0.4-0.2-0.7-0.4-0.8-0.6
		c-0.2-0.3-0.3-0.6-0.4-0.9c-0.1-0.2-0.1-0.6-0.1-1.2v-4.6h1.3v4.1c0,0.7,0,1.1,0.1,1.3c0.1,0.3,0.2,0.6,0.5,0.8
		c0.3,0.2,0.6,0.3,0.9,0.3c0.4,0,0.7-0.1,1.1-0.3c0.3-0.2,0.6-0.5,0.7-0.8c0.1-0.3,0.2-0.8,0.2-1.4v-4h1.3v7.4H57.3z"/>
	<path class="st1" d="M60.4,178.3v-7.4h1.1v1.1c0.5-0.8,1.3-1.2,2.4-1.2c0.4,0,0.9,0.1,1.2,0.2c0.4,0.2,0.7,0.4,0.8,0.6
		c0.2,0.3,0.3,0.6,0.4,0.9c0,0.2,0.1,0.6,0.1,1.2v4.5h-1.3v-4.5c0-0.5,0-0.9-0.1-1.1c-0.1-0.3-0.3-0.5-0.5-0.6
		c-0.2-0.2-0.5-0.2-0.9-0.2c-0.5,0-1,0.2-1.4,0.5c-0.4,0.3-0.6,1-0.6,1.9v4H60.4z"/>
	<path class="st1" d="M69.2,174.5c0,1,0.2,1.7,0.6,2.1c0.4,0.4,0.9,0.7,1.5,0.7c0.6,0,1.1-0.2,1.5-0.7c0.4-0.4,0.6-1.1,0.6-2.1
		c0-0.9-0.2-1.6-0.6-2c-0.4-0.5-0.9-0.7-1.5-0.7c-0.6,0-1,0.2-1.4,0.7C69.4,172.9,69.2,173.6,69.2,174.5L69.2,174.5z M68.1,178.9
		l1.2,0.2c0.1,0.4,0.2,0.7,0.4,0.8c0.3,0.2,0.7,0.3,1.3,0.3c0.6,0,1-0.1,1.3-0.3c0.3-0.2,0.5-0.6,0.6-1c0.1-0.3,0.1-0.8,0.1-1.6
		c-0.5,0.6-1.2,1-2.1,1c-1,0-1.8-0.4-2.4-1.1c-0.6-0.7-0.8-1.6-0.8-2.6c0-0.7,0.1-1.4,0.4-2c0.3-0.6,0.6-1.1,1.1-1.4
		c0.5-0.3,1.1-0.5,1.7-0.5c0.9,0,1.6,0.4,2.2,1.1v-0.9h1.1v6.4c0,1.2-0.1,2-0.4,2.4c-0.2,0.5-0.6,0.9-1.1,1.1
		c-0.5,0.3-1.1,0.4-1.9,0.4c-0.9,0-1.6-0.2-2.1-0.6C68.4,180.3,68.1,179.7,68.1,178.9z"/>
	<path class="st1" d="M76.6,178.3v-1.4H78v1.4c0,0.5-0.1,0.9-0.3,1.3c-0.2,0.3-0.5,0.6-0.9,0.7l-0.3-0.5c0.3-0.1,0.5-0.3,0.6-0.5
		c0.1-0.2,0.2-0.6,0.2-1H76.6z"/>
	<path class="st1" d="M86.1,178.3l-2.7-10.2h1.4l1.5,6.7c0.2,0.7,0.3,1.4,0.4,2.1c0.3-1.1,0.4-1.7,0.5-1.9l1.9-6.9h1.6l1.5,5.2
		c0.4,1.3,0.6,2.5,0.8,3.6c0.1-0.6,0.3-1.4,0.5-2.2l1.6-6.6h1.4l-2.8,10.2h-1.3l-2.1-7.8c-0.2-0.6-0.3-1.1-0.3-1.2
		c-0.1,0.5-0.2,0.9-0.3,1.2l-2.1,7.8H86.1z"/>
	<path class="st1" d="M97.6,178.3v-7.4h1.3v7.4H97.6L97.6,178.3z M97.6,169.5v-1.4h1.3v1.4H97.6z"/>
	<path class="st1" d="M100.3,176.1l1.2-0.2c0.1,0.5,0.3,0.9,0.6,1.1c0.3,0.3,0.8,0.4,1.3,0.4c0.6,0,1-0.1,1.3-0.4
		c0.3-0.2,0.4-0.5,0.4-0.8c0-0.3-0.1-0.5-0.4-0.7c-0.2-0.1-0.6-0.3-1.3-0.4c-0.9-0.2-1.6-0.4-1.9-0.6c-0.4-0.2-0.6-0.4-0.8-0.7
		c-0.2-0.3-0.3-0.6-0.3-1c0-0.3,0.1-0.6,0.2-0.9c0.2-0.3,0.4-0.5,0.6-0.7c0.2-0.1,0.5-0.3,0.8-0.4c0.3-0.1,0.7-0.2,1.1-0.2
		c0.6,0,1.1,0.1,1.5,0.3c0.4,0.2,0.8,0.4,1,0.7c0.2,0.3,0.4,0.7,0.4,1.1l-1.2,0.2c-0.1-0.4-0.2-0.7-0.5-0.9
		c-0.3-0.2-0.6-0.3-1.1-0.3c-0.6,0-1,0.1-1.2,0.3c-0.2,0.2-0.4,0.4-0.4,0.7c0,0.2,0.1,0.3,0.2,0.4c0.1,0.1,0.3,0.2,0.5,0.3
		c0.1,0,0.5,0.2,1.1,0.3c0.9,0.2,1.5,0.4,1.9,0.6c0.4,0.2,0.6,0.4,0.8,0.7c0.2,0.3,0.3,0.6,0.3,1.1c0,0.4-0.1,0.8-0.4,1.2
		c-0.2,0.4-0.6,0.7-1.1,0.9c-0.5,0.2-1,0.3-1.6,0.3c-1,0-1.7-0.2-2.2-0.6C100.7,177.5,100.4,176.9,100.3,176.1z"/>
	<path class="st1" d="M107.4,176.1l1.2-0.2c0.1,0.5,0.3,0.9,0.6,1.1c0.3,0.3,0.8,0.4,1.3,0.4c0.6,0,1-0.1,1.3-0.4
		c0.3-0.2,0.4-0.5,0.4-0.8c0-0.3-0.1-0.5-0.4-0.7c-0.2-0.1-0.6-0.3-1.3-0.4c-0.9-0.2-1.6-0.4-1.9-0.6c-0.4-0.2-0.6-0.4-0.8-0.7
		c-0.2-0.3-0.3-0.6-0.3-1c0-0.3,0.1-0.6,0.2-0.9c0.2-0.3,0.4-0.5,0.6-0.7c0.2-0.1,0.5-0.3,0.8-0.4c0.3-0.1,0.7-0.2,1.1-0.2
		c0.6,0,1.1,0.1,1.5,0.3c0.4,0.2,0.8,0.4,1,0.7c0.2,0.3,0.4,0.7,0.4,1.1L112,173c-0.1-0.4-0.2-0.7-0.5-0.9c-0.3-0.2-0.6-0.3-1.1-0.3
		c-0.6,0-1,0.1-1.2,0.3c-0.2,0.2-0.4,0.4-0.4,0.7c0,0.2,0.1,0.3,0.2,0.4c0.1,0.1,0.3,0.2,0.5,0.3c0.1,0,0.5,0.2,1.1,0.3
		c0.9,0.2,1.5,0.4,1.9,0.6c0.4,0.2,0.6,0.4,0.8,0.7c0.2,0.3,0.3,0.6,0.3,1.1c0,0.4-0.1,0.8-0.4,1.2c-0.2,0.4-0.6,0.7-1.1,0.9
		c-0.5,0.2-1,0.3-1.6,0.3c-1,0-1.7-0.2-2.2-0.6C107.8,177.5,107.5,176.9,107.4,176.1z"/>
	<path class="st1" d="M116,173.9h4.1c-0.1-0.6-0.2-1.1-0.5-1.4c-0.4-0.5-0.9-0.7-1.5-0.7c-0.6,0-1.1,0.2-1.4,0.6
		C116.2,172.7,116,173.2,116,173.9L116,173.9z M120.1,175.9l1.3,0.2c-0.2,0.8-0.6,1.3-1.1,1.8c-0.6,0.4-1.3,0.6-2.1,0.6
		c-1.1,0-1.9-0.3-2.6-1c-0.6-0.7-0.9-1.6-0.9-2.8c0-1.2,0.3-2.2,1-2.9c0.6-0.7,1.5-1,2.5-1c1,0,1.8,0.3,2.4,1
		c0.6,0.7,0.9,1.6,0.9,2.8c0,0.1,0,0.2,0,0.3h-5.5c0,0.8,0.3,1.4,0.7,1.9c0.4,0.4,0.9,0.6,1.5,0.6c0.5,0,0.8-0.1,1.2-0.4
		C119.6,176.8,119.9,176.4,120.1,175.9z"/>
	<path class="st1" d="M122.9,178.3v-7.4h1.1v1.1c0.5-0.8,1.3-1.2,2.4-1.2c0.4,0,0.9,0.1,1.2,0.2c0.4,0.2,0.7,0.4,0.8,0.6
		c0.2,0.3,0.3,0.6,0.4,0.9c0,0.2,0.1,0.6,0.1,1.2v4.5h-1.3v-4.5c0-0.5,0-0.9-0.1-1.1c-0.1-0.3-0.3-0.5-0.5-0.6
		c-0.2-0.2-0.5-0.2-0.9-0.2c-0.5,0-1,0.2-1.4,0.5c-0.4,0.3-0.6,1-0.6,1.9v4H122.9z"/>
	<path class="st1" d="M130.3,176.1l1.2-0.2c0.1,0.5,0.3,0.9,0.6,1.1c0.3,0.3,0.8,0.4,1.3,0.4c0.6,0,1-0.1,1.3-0.4
		c0.3-0.2,0.4-0.5,0.4-0.8c0-0.3-0.1-0.5-0.4-0.7c-0.2-0.1-0.6-0.3-1.3-0.4c-0.9-0.2-1.6-0.4-1.9-0.6c-0.4-0.2-0.6-0.4-0.8-0.7
		c-0.2-0.3-0.3-0.6-0.3-1c0-0.3,0.1-0.6,0.2-0.9c0.2-0.3,0.4-0.5,0.6-0.7c0.2-0.1,0.5-0.3,0.8-0.4c0.3-0.1,0.7-0.2,1.1-0.2
		c0.6,0,1.1,0.1,1.5,0.3c0.4,0.2,0.8,0.4,1,0.7c0.2,0.3,0.4,0.7,0.4,1.1L135,173c-0.1-0.4-0.2-0.7-0.5-0.9c-0.3-0.2-0.6-0.3-1.1-0.3
		c-0.6,0-1,0.1-1.2,0.3c-0.2,0.2-0.4,0.4-0.4,0.7c0,0.2,0.1,0.3,0.2,0.4c0.1,0.1,0.3,0.2,0.5,0.3c0.1,0,0.5,0.2,1.1,0.3
		c0.9,0.2,1.5,0.4,1.9,0.6c0.4,0.2,0.6,0.4,0.8,0.7c0.2,0.3,0.3,0.6,0.3,1.1c0,0.4-0.1,0.8-0.4,1.2c-0.2,0.4-0.6,0.7-1.1,0.9
		c-0.5,0.2-1,0.3-1.6,0.3c-1,0-1.7-0.2-2.2-0.6C130.8,177.5,130.5,176.9,130.3,176.1z"/>
	<path class="st1" d="M142.8,175.6l1.2,0.2c-0.1,0.8-0.5,1.5-1,2c-0.6,0.5-1.2,0.7-2,0.7c-1,0-1.8-0.3-2.4-1
		c-0.6-0.7-0.9-1.6-0.9-2.8c0-0.8,0.1-1.5,0.4-2.1c0.3-0.6,0.7-1,1.2-1.3c0.5-0.3,1.1-0.4,1.8-0.4c0.8,0,1.5,0.2,2,0.6
		c0.5,0.4,0.8,1,1,1.7l-1.2,0.2c-0.1-0.5-0.3-0.9-0.6-1.1c-0.3-0.3-0.6-0.4-1.1-0.4c-0.6,0-1.1,0.2-1.5,0.7
		c-0.4,0.5-0.6,1.2-0.6,2.2c0,1,0.2,1.7,0.6,2.2c0.4,0.5,0.9,0.7,1.5,0.7c0.5,0,0.9-0.2,1.2-0.5
		C142.5,176.7,142.7,176.2,142.8,175.6z"/>
	<path class="st1" d="M145.1,178.3v-10.2h1.3v3.7c0.6-0.7,1.3-1,2.2-1c0.5,0,1,0.1,1.4,0.3c0.4,0.2,0.7,0.5,0.9,0.9
		c0.2,0.4,0.3,0.9,0.3,1.7v4.7h-1.3v-4.7c0-0.6-0.1-1.1-0.4-1.4c-0.3-0.3-0.7-0.4-1.1-0.4c-0.4,0-0.7,0.1-1,0.3
		c-0.3,0.2-0.6,0.5-0.7,0.8c-0.1,0.3-0.2,0.8-0.2,1.4v4H145.1z"/>
	<path class="st1" d="M157.7,174.6c-0.5,0.2-1.1,0.3-2.1,0.5c-0.5,0.1-0.9,0.2-1.1,0.3c-0.2,0.1-0.4,0.2-0.5,0.4
		c-0.1,0.2-0.2,0.4-0.2,0.6c0,0.3,0.1,0.6,0.4,0.8c0.3,0.2,0.6,0.3,1.1,0.3c0.5,0,0.9-0.1,1.3-0.3c0.4-0.2,0.7-0.5,0.8-0.9
		c0.1-0.3,0.2-0.7,0.2-1.3L157.7,174.6L157.7,174.6z M157.8,177.4c-0.5,0.4-0.9,0.7-1.3,0.8c-0.4,0.2-0.9,0.2-1.4,0.2
		c-0.8,0-1.4-0.2-1.9-0.6c-0.4-0.4-0.7-0.9-0.7-1.5c0-0.4,0.1-0.7,0.2-1c0.2-0.3,0.4-0.5,0.7-0.7c0.3-0.2,0.6-0.3,0.9-0.4
		c0.2-0.1,0.6-0.1,1.1-0.2c1-0.1,1.8-0.3,2.2-0.4c0-0.2,0-0.3,0-0.3c0-0.5-0.1-0.9-0.4-1.1c-0.3-0.3-0.8-0.4-1.4-0.4
		c-0.6,0-1,0.1-1.3,0.3c-0.3,0.2-0.5,0.6-0.6,1.1l-1.2-0.2c0.1-0.5,0.3-0.9,0.6-1.3c0.3-0.3,0.6-0.6,1.1-0.7c0.5-0.2,1-0.3,1.7-0.3
		c0.6,0,1.1,0.1,1.5,0.2c0.4,0.1,0.7,0.3,0.9,0.6c0.2,0.2,0.3,0.5,0.4,0.9c0,0.2,0.1,0.6,0.1,1.2v1.7c0,1.2,0,1.9,0.1,2.2
		c0.1,0.3,0.2,0.6,0.3,0.9h-1.3C158,178,157.9,177.7,157.8,177.4z"/>
	<path class="st1" d="M161.2,178.3v-6.4h-1.1v-1h1.1v-0.8c0-0.5,0-0.9,0.1-1.1c0.1-0.3,0.3-0.6,0.6-0.8c0.3-0.2,0.7-0.3,1.3-0.3
		c0.4,0,0.7,0,1.2,0.1l-0.2,1.1c-0.3,0-0.5-0.1-0.7-0.1c-0.4,0-0.6,0.1-0.8,0.2c-0.2,0.2-0.2,0.5-0.2,0.9v0.7h1.4v1h-1.4v6.4H161.2z
		"/>
	<path class="st1" d="M167.6,177.2l0.2,1.1c-0.4,0.1-0.7,0.1-0.9,0.1c-0.5,0-0.8-0.1-1.1-0.2c-0.2-0.1-0.4-0.3-0.5-0.6
		c-0.1-0.2-0.2-0.7-0.2-1.5v-4.3h-0.9v-1h0.9v-1.8l1.3-0.8v2.6h1.3v1h-1.3v4.3c0,0.4,0,0.6,0.1,0.7c0,0.1,0.1,0.2,0.2,0.2
		c0.1,0.1,0.2,0.1,0.4,0.1C167.2,177.2,167.4,177.2,167.6,177.2z"/>
	<path class="st1" d="M108.8,193.8v-1.1c-0.6,0.8-1.4,1.2-2.3,1.2c-0.4,0-0.8-0.1-1.2-0.3c-0.4-0.2-0.7-0.4-0.8-0.6
		c-0.2-0.3-0.3-0.6-0.4-0.9c-0.1-0.2-0.1-0.6-0.1-1.2v-4.6h1.3v4.1c0,0.7,0,1.1,0.1,1.3c0.1,0.3,0.2,0.6,0.5,0.8
		c0.3,0.2,0.6,0.3,0.9,0.3c0.4,0,0.7-0.1,1.1-0.3c0.3-0.2,0.6-0.5,0.7-0.8c0.1-0.3,0.2-0.8,0.2-1.4v-4h1.3v7.4H108.8z"/>
	<path class="st1" d="M111.9,193.8v-7.4h1.1v1c0.5-0.8,1.3-1.2,2.4-1.2c0.4,0,0.9,0.1,1.2,0.2c0.4,0.2,0.7,0.4,0.8,0.6
		c0.2,0.3,0.3,0.6,0.4,0.9c0,0.2,0.1,0.6,0.1,1.2v4.5h-1.3v-4.5c0-0.5,0-0.9-0.1-1.1c-0.1-0.3-0.3-0.5-0.5-0.6
		c-0.2-0.2-0.5-0.2-0.9-0.2c-0.5,0-1,0.2-1.4,0.5c-0.4,0.3-0.6,1-0.6,1.9v4H111.9z"/>
	<path class="st1" d="M120.6,190.1c0,0.9,0.2,1.7,0.6,2.1c0.4,0.5,0.9,0.7,1.4,0.7c0.5,0,1-0.2,1.4-0.7c0.4-0.4,0.6-1.1,0.6-2
		c0-1-0.2-1.8-0.6-2.2c-0.4-0.5-0.9-0.7-1.4-0.7c-0.6,0-1,0.2-1.4,0.7C120.8,188.4,120.6,189.2,120.6,190.1L120.6,190.1z
		 M124.6,193.8v-0.9c-0.5,0.7-1.2,1.1-2.1,1.1c-0.6,0-1.1-0.2-1.6-0.5c-0.5-0.3-0.9-0.8-1.1-1.4c-0.3-0.6-0.4-1.3-0.4-2
		c0-0.7,0.1-1.4,0.4-2c0.2-0.6,0.6-1.1,1.1-1.4c0.5-0.3,1-0.5,1.6-0.5c0.4,0,0.8,0.1,1.2,0.3c0.3,0.2,0.6,0.4,0.8,0.7v-3.7h1.3v10.2
		H124.6z"/>
	<polygon class="st1" points="131.8,193.8 131.8,183.6 133.1,183.6 133.1,188.7 138.2,183.6 140,183.6 135.7,187.8 140.2,193.8 
		138.4,193.8 134.8,188.7 133.1,190.3 133.1,193.8 	"/>
	<path class="st1" d="M146,193.8v-1.1c-0.6,0.8-1.4,1.2-2.3,1.2c-0.4,0-0.8-0.1-1.2-0.3c-0.4-0.2-0.7-0.4-0.8-0.6
		c-0.2-0.3-0.3-0.6-0.4-0.9c-0.1-0.2-0.1-0.6-0.1-1.2v-4.6h1.3v4.1c0,0.7,0,1.1,0.1,1.3c0.1,0.3,0.2,0.6,0.5,0.8
		c0.3,0.2,0.6,0.3,0.9,0.3c0.4,0,0.7-0.1,1.1-0.3c0.3-0.2,0.6-0.5,0.7-0.8c0.1-0.3,0.2-0.8,0.2-1.4v-4h1.3v7.4H146z"/>
	<rect x="149" y="183.6" class="st1" width="1.3" height="10.2"/>
	<path class="st1" d="M155,192.7l0.2,1.1c-0.4,0.1-0.7,0.1-0.9,0.1c-0.5,0-0.8-0.1-1.1-0.2c-0.2-0.1-0.4-0.3-0.5-0.6
		c-0.1-0.2-0.2-0.7-0.2-1.5v-4.3h-0.9v-1h0.9v-1.8l1.3-0.8v2.6h1.3v1h-1.3v4.3c0,0.4,0,0.6,0.1,0.7c0,0.1,0.1,0.2,0.2,0.2
		c0.1,0.1,0.2,0.1,0.4,0.1C154.6,192.7,154.7,192.7,155,192.7z"/>
	<path class="st1" d="M161,193.8v-1.1c-0.6,0.8-1.4,1.2-2.3,1.2c-0.4,0-0.8-0.1-1.2-0.3c-0.4-0.2-0.7-0.4-0.8-0.6
		c-0.2-0.3-0.3-0.6-0.4-0.9c-0.1-0.2-0.1-0.6-0.1-1.2v-4.6h1.3v4.1c0,0.7,0,1.1,0.1,1.3c0.1,0.3,0.2,0.6,0.5,0.8
		c0.3,0.2,0.6,0.3,0.9,0.3c0.4,0,0.7-0.1,1.1-0.3c0.3-0.2,0.6-0.5,0.7-0.8c0.1-0.3,0.2-0.8,0.2-1.4v-4h1.3v7.4H161z"/>
	<path class="st1" d="M164.1,193.8v-7.4h1.1v1.1c0.3-0.5,0.6-0.9,0.8-1c0.2-0.2,0.5-0.3,0.8-0.3c0.4,0,0.9,0.1,1.3,0.4l-0.4,1.2
		c-0.3-0.2-0.6-0.3-0.9-0.3c-0.3,0-0.5,0.1-0.7,0.2c-0.2,0.2-0.4,0.4-0.5,0.7c-0.1,0.4-0.2,0.9-0.2,1.5v3.9H164.1z"/>
	<path class="st2" d="M205.8,138.7v6.8h1.5c0.6,0,1,0,1.2-0.1c0.3-0.1,0.6-0.2,0.8-0.4c0.2-0.2,0.4-0.5,0.5-1
		c0.1-0.5,0.2-1.1,0.2-1.9c0-0.8-0.1-1.4-0.2-1.8c-0.1-0.4-0.3-0.8-0.6-1c-0.3-0.2-0.6-0.4-1-0.5c-0.3-0.1-0.9-0.1-1.7-0.1H205.8
		L205.8,138.7z M203.8,137h3.8c0.8,0,1.5,0.1,1.9,0.2c0.6,0.2,1.1,0.5,1.5,0.9c0.4,0.5,0.8,1,1,1.7c0.2,0.7,0.3,1.5,0.3,2.4
		c0,0.8-0.1,1.6-0.3,2.2c-0.3,0.7-0.6,1.3-1.1,1.8c-0.4,0.3-0.8,0.6-1.4,0.8c-0.5,0.1-1.1,0.2-1.8,0.2h-3.9V137z"/>
	<path class="st2" d="M218.1,143.6c-0.2,0.1-0.6,0.2-1.2,0.3c-0.5,0.1-0.9,0.2-1.1,0.3c-0.3,0.2-0.4,0.4-0.4,0.7
		c0,0.3,0.1,0.5,0.3,0.7c0.2,0.2,0.5,0.3,0.8,0.3c0.4,0,0.7-0.1,1-0.3c0.2-0.2,0.4-0.4,0.5-0.6c0.1-0.2,0.1-0.5,0.1-1V143.6
		L218.1,143.6z M215.5,142.1l-1.8-0.3c0.2-0.7,0.5-1.3,1-1.6c0.5-0.3,1.2-0.5,2.2-0.5c0.9,0,1.5,0.1,2,0.3c0.4,0.2,0.7,0.5,0.9,0.8
		c0.2,0.3,0.3,0.9,0.3,1.8l0,2.3c0,0.7,0,1.1,0.1,1.4c0.1,0.3,0.2,0.6,0.4,1h-1.9c-0.1-0.1-0.1-0.3-0.2-0.6c0-0.1-0.1-0.2-0.1-0.2
		c-0.3,0.3-0.7,0.6-1.1,0.7c-0.4,0.2-0.8,0.2-1.2,0.2c-0.8,0-1.4-0.2-1.8-0.6c-0.4-0.4-0.7-0.9-0.7-1.6c0-0.4,0.1-0.8,0.3-1.1
		c0.2-0.3,0.5-0.6,0.8-0.8c0.4-0.2,0.9-0.3,1.6-0.5c0.9-0.2,1.5-0.3,1.9-0.5v-0.2c0-0.4-0.1-0.7-0.3-0.8c-0.2-0.2-0.5-0.2-1.1-0.2
		c-0.4,0-0.6,0.1-0.8,0.2C215.8,141.5,215.6,141.7,215.5,142.1z"/>
	<path class="st2" d="M221.3,145.1l2-0.3c0.1,0.4,0.3,0.7,0.5,0.9c0.3,0.2,0.6,0.3,1.1,0.3c0.5,0,0.9-0.1,1.1-0.3
		c0.2-0.1,0.3-0.3,0.3-0.5c0-0.1,0-0.3-0.1-0.4c-0.1-0.1-0.3-0.2-0.7-0.3c-1.6-0.3-2.6-0.7-3-1c-0.6-0.4-0.9-1-0.9-1.7
		c0-0.6,0.3-1.2,0.8-1.6c0.5-0.4,1.3-0.7,2.4-0.7c1,0,1.8,0.2,2.3,0.5c0.5,0.3,0.8,0.8,1,1.5l-1.8,0.3c-0.1-0.3-0.2-0.5-0.5-0.7
		c-0.2-0.2-0.5-0.2-1-0.2c-0.5,0-0.9,0.1-1.1,0.2c-0.1,0.1-0.2,0.2-0.2,0.4c0,0.1,0.1,0.3,0.2,0.4c0.2,0.1,0.8,0.3,1.8,0.6
		c1,0.2,1.8,0.5,2.2,0.9c0.4,0.3,0.6,0.8,0.6,1.5c0,0.7-0.3,1.3-0.8,1.7c-0.6,0.5-1.4,0.7-2.5,0.7c-1,0-1.8-0.2-2.4-0.6
		C221.9,146.3,221.5,145.8,221.3,145.1z"/>
	<polygon class="st2" points="235.3,147.2 232.9,137 235,137 236.5,144 238.4,137 240.8,137 242.6,144.1 244.2,137 246.2,137 
		243.8,147.2 241.6,147.2 239.6,139.5 237.5,147.2 	"/>
	<path class="st2" d="M250.8,143.6c-0.2,0.1-0.6,0.2-1.2,0.3c-0.5,0.1-0.9,0.2-1.1,0.3c-0.3,0.2-0.4,0.4-0.4,0.7
		c0,0.3,0.1,0.5,0.3,0.7c0.2,0.2,0.5,0.3,0.8,0.3c0.4,0,0.7-0.1,1-0.3c0.2-0.2,0.4-0.4,0.5-0.6c0.1-0.2,0.1-0.5,0.1-1V143.6
		L250.8,143.6z M248.2,142.1l-1.8-0.3c0.2-0.7,0.5-1.3,1-1.6c0.5-0.3,1.2-0.5,2.2-0.5c0.9,0,1.5,0.1,2,0.3c0.4,0.2,0.7,0.5,0.9,0.8
		c0.2,0.3,0.3,0.9,0.3,1.8l0,2.3c0,0.7,0,1.1,0.1,1.4c0.1,0.3,0.2,0.6,0.4,1h-1.9c-0.1-0.1-0.1-0.3-0.2-0.6c0-0.1-0.1-0.2-0.1-0.2
		c-0.3,0.3-0.7,0.6-1.1,0.7c-0.4,0.2-0.8,0.2-1.2,0.2c-0.8,0-1.4-0.2-1.8-0.6c-0.4-0.4-0.7-0.9-0.7-1.6c0-0.4,0.1-0.8,0.3-1.1
		c0.2-0.3,0.5-0.6,0.8-0.8c0.4-0.2,0.9-0.3,1.6-0.5c0.9-0.2,1.5-0.3,1.9-0.5v-0.2c0-0.4-0.1-0.7-0.3-0.8c-0.2-0.2-0.5-0.2-1.1-0.2
		c-0.3,0-0.6,0.1-0.8,0.2C248.5,141.5,248.3,141.7,248.2,142.1z"/>
	<path class="st2" d="M258.1,139.8v1.6h-1.3v3c0,0.6,0,1,0,1.1c0,0.1,0.1,0.2,0.2,0.2c0.1,0.1,0.2,0.1,0.3,0.1
		c0.2,0,0.4-0.1,0.8-0.2l0.2,1.5c-0.4,0.2-1,0.3-1.5,0.3c-0.3,0-0.7-0.1-0.9-0.2c-0.3-0.1-0.5-0.3-0.6-0.5c-0.1-0.2-0.2-0.4-0.3-0.8
		c0-0.2-0.1-0.7-0.1-1.4v-3.2h-0.9v-1.6h0.9v-1.5l2-1.1v2.6H258.1z"/>
	<path class="st2" d="M262.8,139.8v1.6h-1.3v3c0,0.6,0,1,0,1.1c0,0.1,0.1,0.2,0.2,0.2c0.1,0.1,0.2,0.1,0.3,0.1
		c0.2,0,0.4-0.1,0.8-0.2l0.2,1.5c-0.4,0.2-1,0.3-1.5,0.3c-0.3,0-0.7-0.1-0.9-0.2c-0.3-0.1-0.5-0.3-0.6-0.5c-0.1-0.2-0.2-0.4-0.3-0.8
		c0-0.2-0.1-0.7-0.1-1.4v-3.2h-0.9v-1.6h0.9v-1.5l2-1.1v2.6H262.8z"/>
	<path class="st2" d="M268.6,142.9c0-0.6-0.2-1-0.4-1.3c-0.3-0.3-0.6-0.4-1-0.4c-0.4,0-0.8,0.2-1.1,0.5c-0.3,0.3-0.4,0.7-0.4,1.3
		H268.6L268.6,142.9z M268.5,144.8l2,0.3c-0.3,0.7-0.6,1.3-1.2,1.6c-0.5,0.4-1.2,0.6-2,0.6c-1.3,0-2.2-0.4-2.9-1.3
		c-0.5-0.7-0.7-1.5-0.7-2.5c0-1.2,0.3-2.2,1-2.9c0.6-0.7,1.5-1,2.4-1c1.1,0,2,0.4,2.6,1.1c0.6,0.7,0.9,1.8,0.9,3.3h-4.9
		c0,0.6,0.2,1,0.5,1.4c0.3,0.3,0.7,0.5,1.1,0.5c0.3,0,0.6-0.1,0.8-0.3C268.2,145.5,268.3,145.2,268.5,144.8z"/>
	<path class="st2" d="M278.8,147.2h-2v-3.8c0-0.8,0-1.3-0.1-1.6c-0.1-0.2-0.2-0.4-0.4-0.5c-0.2-0.1-0.4-0.2-0.7-0.2
		c-0.3,0-0.6,0.1-0.9,0.3c-0.3,0.2-0.5,0.4-0.6,0.7c-0.1,0.3-0.1,0.9-0.1,1.7v3.4h-2v-7.4h1.8v1.1c0.6-0.8,1.5-1.2,2.4-1.2
		c0.4,0,0.8,0.1,1.2,0.2c0.4,0.2,0.6,0.4,0.8,0.6c0.2,0.2,0.3,0.5,0.4,0.8c0.1,0.3,0.1,0.7,0.1,1.3V147.2z"/>
	<path class="st2" d="M280.6,139.8h1.8v1c0.6-0.8,1.4-1.2,2.3-1.2c0.5,0,0.9,0.1,1.2,0.3c0.3,0.2,0.6,0.5,0.9,0.9
		c0.3-0.4,0.7-0.7,1.1-0.9c0.4-0.2,0.8-0.3,1.2-0.3c0.5,0,1,0.1,1.4,0.3c0.4,0.2,0.7,0.5,0.8,1c0.1,0.3,0.2,0.8,0.2,1.5v4.7h-2V143
		c0-0.7-0.1-1.2-0.2-1.4c-0.2-0.3-0.5-0.4-0.8-0.4c-0.3,0-0.5,0.1-0.8,0.3c-0.2,0.2-0.4,0.4-0.5,0.7c-0.1,0.3-0.2,0.8-0.2,1.5v3.6
		h-2v-4.1c0-0.7,0-1.2-0.1-1.4c-0.1-0.2-0.2-0.4-0.3-0.5c-0.1-0.1-0.3-0.2-0.6-0.2c-0.3,0-0.6,0.1-0.8,0.2c-0.2,0.2-0.4,0.4-0.5,0.7
		c-0.1,0.3-0.2,0.8-0.2,1.5v3.6h-2V139.8z"/>
	<path class="st2" d="M297.8,142.9c0-0.6-0.2-1-0.4-1.3c-0.3-0.3-0.6-0.4-1-0.4c-0.4,0-0.8,0.2-1.1,0.5c-0.3,0.3-0.4,0.7-0.4,1.3
		H297.8L297.8,142.9z M297.7,144.8l2,0.3c-0.3,0.7-0.6,1.3-1.2,1.6c-0.5,0.4-1.2,0.6-2,0.6c-1.3,0-2.2-0.4-2.9-1.3
		c-0.5-0.7-0.7-1.5-0.7-2.5c0-1.2,0.3-2.2,1-2.9c0.6-0.7,1.5-1,2.4-1c1.1,0,2,0.4,2.6,1.1c0.6,0.7,0.9,1.8,0.9,3.3h-4.9
		c0,0.6,0.2,1,0.5,1.4c0.3,0.3,0.7,0.5,1.1,0.5c0.3,0,0.6-0.1,0.8-0.3C297.5,145.5,297.6,145.2,297.7,144.8z"/>
	<path class="st2" d="M305.8,142.9c0-0.6-0.2-1-0.4-1.3c-0.3-0.3-0.6-0.4-1-0.4c-0.4,0-0.8,0.2-1.1,0.5c-0.3,0.3-0.4,0.7-0.4,1.3
		H305.8L305.8,142.9z M305.7,144.8l2,0.3c-0.3,0.7-0.6,1.3-1.2,1.6c-0.5,0.4-1.2,0.6-2,0.6c-1.3,0-2.2-0.4-2.9-1.3
		c-0.5-0.7-0.7-1.5-0.7-2.5c0-1.2,0.3-2.2,1-2.9c0.6-0.7,1.5-1,2.4-1c1.1,0,2,0.4,2.6,1.1c0.6,0.7,0.9,1.8,0.9,3.3h-4.9
		c0,0.6,0.2,1,0.5,1.4c0.3,0.3,0.7,0.5,1.1,0.5c0.3,0,0.6-0.1,0.8-0.3C305.4,145.5,305.5,145.2,305.7,144.8z"/>
	<path class="st2" d="M311.2,147.2h-2v-7.4h1.8v1.1c0.3-0.5,0.6-0.8,0.8-1c0.2-0.2,0.5-0.2,0.8-0.2c0.4,0,0.9,0.1,1.3,0.4l-0.6,1.7
		c-0.3-0.2-0.6-0.3-0.9-0.3c-0.3,0-0.5,0.1-0.7,0.2c-0.2,0.2-0.3,0.4-0.4,0.8c-0.1,0.4-0.2,1.2-0.2,2.5V147.2z"/>
	<path class="st2" d="M205.6,162.7l-2.7-10.2h1.4l1.5,6.7c0.2,0.7,0.3,1.4,0.4,2.1c0.3-1.1,0.4-1.7,0.5-1.9l1.9-6.9h1.6l1.5,5.2
		c0.4,1.3,0.6,2.5,0.8,3.6c0.1-0.6,0.3-1.4,0.5-2.2l1.6-6.6h1.4l-2.8,10.2h-1.3l-2.1-7.8c-0.2-0.6-0.3-1.1-0.3-1.2
		c-0.1,0.5-0.2,0.9-0.3,1.2l-2.1,7.8H205.6z"/>
	<path class="st2" d="M217.8,158.3h4.1c-0.1-0.6-0.2-1.1-0.5-1.4c-0.4-0.5-0.9-0.7-1.5-0.7c-0.6,0-1.1,0.2-1.4,0.6
		C218.1,157.1,217.9,157.7,217.8,158.3L217.8,158.3z M221.9,160.3l1.3,0.2c-0.2,0.8-0.6,1.3-1.1,1.8c-0.6,0.4-1.3,0.6-2.1,0.6
		c-1.1,0-1.9-0.3-2.6-1c-0.6-0.7-0.9-1.6-0.9-2.8c0-1.2,0.3-2.2,1-2.9c0.6-0.7,1.5-1,2.5-1c1,0,1.8,0.3,2.4,1
		c0.6,0.7,0.9,1.6,0.9,2.8c0,0.1,0,0.2,0,0.3h-5.5c0,0.8,0.3,1.4,0.7,1.9c0.4,0.4,0.9,0.6,1.5,0.6c0.5,0,0.8-0.1,1.2-0.4
		C221.5,161.2,221.7,160.9,221.9,160.3z"/>
	<rect x="224.8" y="152.5" class="st2" width="1.3" height="10.2"/>
	<path class="st2" d="M230.7,161.6l0.2,1.1c-0.4,0.1-0.7,0.1-0.9,0.1c-0.5,0-0.8-0.1-1.1-0.2c-0.2-0.1-0.4-0.3-0.5-0.6
		c-0.1-0.2-0.2-0.7-0.2-1.5v-4.3h-0.9v-1h0.9v-1.8l1.3-0.8v2.6h1.3v1h-1.3v4.3c0,0.4,0,0.6,0.1,0.7c0,0.1,0.1,0.2,0.2,0.2
		c0.1,0.1,0.2,0.1,0.4,0.1C230.3,161.6,230.5,161.6,230.7,161.6z"/>
	<path class="st2" d="M232.9,158.3h4.1c-0.1-0.6-0.2-1.1-0.5-1.4c-0.4-0.5-0.9-0.7-1.5-0.7c-0.6,0-1.1,0.2-1.4,0.6
		C233.1,157.1,232.9,157.7,232.9,158.3L232.9,158.3z M237,160.3l1.3,0.2c-0.2,0.8-0.6,1.3-1.1,1.8c-0.6,0.4-1.3,0.6-2.1,0.6
		c-1.1,0-1.9-0.3-2.6-1c-0.6-0.7-0.9-1.6-0.9-2.8c0-1.2,0.3-2.2,1-2.9c0.6-0.7,1.5-1,2.5-1c1,0,1.8,0.3,2.4,1
		c0.6,0.7,0.9,1.6,0.9,2.8c0,0.1,0,0.2,0,0.3h-5.5c0,0.8,0.3,1.4,0.7,1.9c0.4,0.4,0.9,0.6,1.5,0.6c0.5,0,0.8-0.1,1.2-0.4
		C236.5,161.2,236.8,160.9,237,160.3z"/>
	<path class="st2" d="M239.8,162.7v-7.4h1.1v1.1c0.3-0.5,0.6-0.9,0.8-1c0.2-0.2,0.5-0.3,0.8-0.3c0.4,0,0.9,0.1,1.3,0.4l-0.4,1.2
		c-0.3-0.2-0.6-0.3-0.9-0.3c-0.3,0-0.5,0.1-0.7,0.2c-0.2,0.2-0.4,0.4-0.5,0.7c-0.1,0.4-0.2,0.9-0.2,1.5v3.9H239.8z"/>
	<path class="st2" d="M245.7,159c0,0.9,0.1,1.5,0.4,1.9c0.4,0.6,0.9,1,1.6,1c0.5,0,1-0.2,1.4-0.7c0.4-0.5,0.6-1.2,0.6-2.1
		c0-1-0.2-1.7-0.6-2.1c-0.4-0.5-0.8-0.7-1.4-0.7c-0.5,0-1,0.2-1.4,0.7C245.9,157.4,245.7,158.1,245.7,159L245.7,159z M245.7,162.7
		h-1.2v-10.2h1.3v3.6c0.5-0.7,1.2-1,2-1c0.5,0,0.9,0.1,1.3,0.3c0.4,0.2,0.7,0.4,1,0.8c0.3,0.3,0.5,0.7,0.6,1.2
		c0.1,0.5,0.2,1,0.2,1.5c0,1.3-0.3,2.2-0.9,2.9c-0.6,0.7-1.4,1-2.2,1c-0.9,0-1.6-0.4-2-1.1V162.7z"/>
	<path class="st2" d="M253.4,158.3h4.1c-0.1-0.6-0.2-1.1-0.5-1.4c-0.4-0.5-0.9-0.7-1.5-0.7c-0.6,0-1.1,0.2-1.4,0.6
		C253.7,157.1,253.5,157.7,253.4,158.3L253.4,158.3z M257.5,160.3l1.3,0.2c-0.2,0.8-0.6,1.3-1.1,1.8c-0.6,0.4-1.3,0.6-2.1,0.6
		c-1.1,0-1.9-0.3-2.6-1c-0.6-0.7-0.9-1.6-0.9-2.8c0-1.2,0.3-2.2,1-2.9c0.6-0.7,1.5-1,2.5-1c1,0,1.8,0.3,2.4,1
		c0.6,0.7,0.9,1.6,0.9,2.8c0,0.1,0,0.2,0,0.3h-5.5c0,0.8,0.3,1.4,0.7,1.9c0.4,0.4,0.9,0.6,1.5,0.6c0.5,0,0.8-0.1,1.2-0.4
		C257.1,161.2,257.4,160.9,257.5,160.3z"/>
	<path class="st2" d="M263.9,160.5l1.2-0.2c0.1,0.5,0.3,0.9,0.6,1.1c0.3,0.3,0.8,0.4,1.3,0.4c0.6,0,1-0.1,1.3-0.4
		c0.3-0.2,0.4-0.5,0.4-0.8c0-0.3-0.1-0.5-0.4-0.7c-0.2-0.1-0.6-0.3-1.3-0.4c-0.9-0.2-1.6-0.4-1.9-0.6c-0.4-0.2-0.6-0.4-0.8-0.7
		c-0.2-0.3-0.3-0.6-0.3-1c0-0.3,0.1-0.6,0.2-0.9c0.2-0.3,0.4-0.5,0.6-0.7c0.2-0.1,0.5-0.3,0.8-0.4c0.3-0.1,0.7-0.2,1.1-0.2
		c0.6,0,1.1,0.1,1.5,0.3c0.4,0.2,0.8,0.4,1,0.7c0.2,0.3,0.4,0.7,0.4,1.1l-1.2,0.2c-0.1-0.4-0.2-0.7-0.5-0.9
		c-0.3-0.2-0.6-0.3-1.1-0.3c-0.6,0-1,0.1-1.2,0.3c-0.2,0.2-0.4,0.4-0.4,0.7c0,0.2,0.1,0.3,0.2,0.4c0.1,0.1,0.3,0.2,0.5,0.3
		c0.1,0,0.5,0.2,1.1,0.3c0.9,0.2,1.5,0.4,1.9,0.6c0.4,0.2,0.6,0.4,0.8,0.7c0.2,0.3,0.3,0.6,0.3,1.1c0,0.4-0.1,0.8-0.4,1.2
		c-0.2,0.4-0.6,0.7-1.1,0.9c-0.5,0.2-1,0.3-1.6,0.3c-1,0-1.7-0.2-2.2-0.6C264.3,161.9,264,161.3,263.9,160.5z"/>
	<path class="st2" d="M272.4,158.3h4.1c-0.1-0.6-0.2-1.1-0.5-1.4c-0.4-0.5-0.9-0.7-1.5-0.7c-0.6,0-1.1,0.2-1.4,0.6
		C272.7,157.1,272.5,157.7,272.4,158.3L272.4,158.3z M276.5,160.3l1.3,0.2c-0.2,0.8-0.6,1.3-1.1,1.8c-0.6,0.4-1.3,0.6-2.1,0.6
		c-1.1,0-1.9-0.3-2.6-1c-0.6-0.7-0.9-1.6-0.9-2.8c0-1.2,0.3-2.2,1-2.9c0.6-0.7,1.5-1,2.5-1c1,0,1.8,0.3,2.4,1
		c0.6,0.7,0.9,1.6,0.9,2.8c0,0.1,0,0.2,0,0.3h-5.5c0,0.8,0.3,1.4,0.7,1.9c0.4,0.4,0.9,0.6,1.5,0.6c0.5,0,0.8-0.1,1.2-0.4
		C276.1,161.2,276.4,160.9,276.5,160.3z"/>
	<path class="st2" d="M279.4,162.7v-7.4h1.3v7.4H279.4L279.4,162.7z M279.4,153.9v-1.4h1.3v1.4H279.4z"/>
	<path class="st2" d="M285.3,161.6l0.2,1.1c-0.4,0.1-0.7,0.1-0.9,0.1c-0.5,0-0.8-0.1-1.1-0.2c-0.3-0.1-0.4-0.3-0.5-0.6
		c-0.1-0.2-0.2-0.7-0.2-1.5v-4.3h-0.9v-1h0.9v-1.8l1.3-0.8v2.6h1.3v1H284v4.3c0,0.4,0,0.6,0.1,0.7c0,0.1,0.1,0.2,0.2,0.2
		c0.1,0.1,0.2,0.1,0.4,0.1C284.9,161.6,285.1,161.6,285.3,161.6z"/>
	<path class="st2" d="M296.7,161.5v1.2H290c0-0.3,0-0.6,0.1-0.9c0.2-0.5,0.4-0.9,0.8-1.4c0.4-0.4,0.9-1,1.6-1.5
		c1.1-0.9,1.9-1.6,2.2-2.2c0.4-0.5,0.6-1,0.6-1.5c0-0.5-0.2-0.9-0.5-1.3c-0.4-0.3-0.8-0.5-1.4-0.5c-0.6,0-1.1,0.2-1.5,0.5
		c-0.4,0.4-0.5,0.9-0.6,1.5l-1.3-0.1c0.1-1,0.4-1.7,1-2.2c0.6-0.5,1.4-0.8,2.3-0.8c1,0,1.8,0.3,2.3,0.8c0.6,0.5,0.9,1.2,0.9,2
		c0,0.4-0.1,0.8-0.3,1.2c-0.2,0.4-0.4,0.8-0.8,1.2c-0.4,0.4-1,1-1.9,1.8c-0.8,0.6-1.2,1.1-1.5,1.3c-0.2,0.2-0.4,0.5-0.5,0.7H296.7z"
		/>
	<path class="st2" d="M299.3,157.7c0,1.7,0.2,2.8,0.6,3.3c0.4,0.6,0.9,0.8,1.4,0.8c0.6,0,1.1-0.3,1.4-0.8c0.4-0.6,0.6-1.7,0.6-3.3
		c0-1.7-0.2-2.8-0.6-3.3c-0.4-0.6-0.9-0.8-1.5-0.8c-0.6,0-1,0.2-1.4,0.7C299.6,154.9,299.3,156,299.3,157.7L299.3,157.7z
		 M298.1,157.7c0-1.2,0.1-2.2,0.4-2.9c0.2-0.7,0.6-1.3,1.1-1.7c0.5-0.4,1.1-0.6,1.8-0.6c0.5,0,1,0.1,1.4,0.3c0.4,0.2,0.8,0.5,1,1
		c0.3,0.4,0.5,0.9,0.6,1.5c0.2,0.6,0.2,1.4,0.2,2.4c0,1.2-0.1,2.2-0.4,2.9c-0.2,0.7-0.6,1.3-1.1,1.7c-0.5,0.4-1.1,0.6-1.9,0.6
		c-1,0-1.8-0.3-2.3-1C298.4,161,298.1,159.6,298.1,157.7z"/>
	<path class="st2" d="M307.3,157.7c0,1.7,0.2,2.8,0.6,3.3c0.4,0.6,0.9,0.8,1.4,0.8c0.6,0,1.1-0.3,1.4-0.8c0.4-0.6,0.6-1.7,0.6-3.3
		c0-1.7-0.2-2.8-0.6-3.3c-0.4-0.6-0.9-0.8-1.5-0.8c-0.6,0-1,0.2-1.4,0.7C307.5,154.9,307.3,156,307.3,157.7L307.3,157.7z M306,157.7
		c0-1.2,0.1-2.2,0.4-2.9c0.2-0.7,0.6-1.3,1.1-1.7c0.5-0.4,1.1-0.6,1.8-0.6c0.5,0,1,0.1,1.4,0.3c0.4,0.2,0.8,0.5,1,1
		c0.3,0.4,0.5,0.9,0.6,1.5c0.2,0.6,0.2,1.4,0.2,2.4c0,1.2-0.1,2.2-0.4,2.9c-0.2,0.7-0.6,1.3-1.1,1.7c-0.5,0.4-1.1,0.6-1.9,0.6
		c-1,0-1.8-0.3-2.3-1C306.3,161,306,159.6,306,157.7z"/>
	<path class="st2" d="M187.3,18.5c0,0.9-0.8,1.7-1.7,1.7c-0.9,0-1.7-0.8-1.7-1.7c0-0.9,0.8-1.7,1.7-1.7
		C186.5,16.8,187.3,17.5,187.3,18.5z"/>
	<path class="st2" d="M187.3,24.5c0,0.9-0.8,1.7-1.7,1.7c-0.9,0-1.7-0.8-1.7-1.7c0-0.9,0.8-1.7,1.7-1.7
		C186.5,22.8,187.3,23.5,187.3,24.5z"/>
	<path class="st2" d="M187.3,30.9c0,0.9-0.8,1.7-1.7,1.7c-0.9,0-1.7-0.8-1.7-1.7c0-0.9,0.8-1.7,1.7-1.7
		C186.5,29.3,187.3,30,187.3,30.9z"/>
	<path class="st2" d="M187.3,37.4c0,0.9-0.8,1.7-1.7,1.7c-0.9,0-1.7-0.8-1.7-1.7c0-0.9,0.8-1.7,1.7-1.7
		C186.5,35.8,187.3,36.5,187.3,37.4z"/>
	<path class="st2" d="M187.3,44.4c0,0.9-0.8,1.7-1.7,1.7c-0.9,0-1.7-0.8-1.7-1.7c0-0.9,0.8-1.7,1.7-1.7
		C186.5,42.7,187.3,43.5,187.3,44.4z"/>
	<path class="st2" d="M187.3,51.4c0,0.9-0.8,1.7-1.7,1.7c-0.9,0-1.7-0.8-1.7-1.7c0-0.9,0.8-1.7,1.7-1.7
		C186.5,49.7,187.3,50.5,187.3,51.4z"/>
	<path class="st2" d="M187.3,58.6c0,0.9-0.8,1.7-1.7,1.7c-0.9,0-1.7-0.8-1.7-1.7c0-0.9,0.8-1.7,1.7-1.7
		C186.5,56.9,187.3,57.7,187.3,58.6z"/>
	<path class="st2" d="M187.3,65.8c0,0.9-0.8,1.7-1.7,1.7c-0.9,0-1.7-0.8-1.7-1.7c0-0.9,0.8-1.7,1.7-1.7
		C186.5,64.1,187.3,64.9,187.3,65.8z"/>
	<path class="st2" d="M187.3,73.6c0,0.9-0.8,1.7-1.7,1.7c-0.9,0-1.7-0.8-1.7-1.7c0-0.9,0.8-1.7,1.7-1.7
		C186.5,71.9,187.3,72.6,187.3,73.6z"/>
	<path class="st2" d="M187.3,81.3c0,0.9-0.8,1.7-1.7,1.7c-0.9,0-1.7-0.8-1.7-1.7c0-0.9,0.8-1.7,1.7-1.7
		C186.5,79.7,187.3,80.4,187.3,81.3z"/>
	<path class="st2" d="M187.3,89.5c0,0.9-0.8,1.7-1.7,1.7c-0.9,0-1.7-0.8-1.7-1.7c0-0.9,0.8-1.7,1.7-1.7
		C186.5,87.9,187.3,88.6,187.3,89.5z"/>
	<path class="st2" d="M187.3,97.9c0,0.9-0.8,1.7-1.7,1.7c-0.9,0-1.7-0.8-1.7-1.7c0-0.9,0.8-1.7,1.7-1.7
		C186.5,96.2,187.3,97,187.3,97.9z"/>
	<path class="st2" d="M187.3,106.7c0,0.9-0.8,1.7-1.7,1.7c-0.9,0-1.7-0.8-1.7-1.7c0-0.9,0.8-1.7,1.7-1.7
		C186.5,105,187.3,105.8,187.3,106.7z"/>
	<path class="st2" d="M187.3,116.7c0,0.9-0.8,1.7-1.7,1.7c-0.9,0-1.7-0.8-1.7-1.7c0-0.9,0.8-1.7,1.7-1.7
		C186.5,115,187.3,115.8,187.3,116.7z"/>
	<path class="st2" d="M187.3,127.7c0,0.9-0.8,1.7-1.7,1.7c-0.9,0-1.7-0.8-1.7-1.7c0-0.9,0.8-1.7,1.7-1.7
		C186.5,126,187.3,126.7,187.3,127.7z"/>
	<path class="st2" d="M187.3,140.6c0,0.9-0.8,1.7-1.7,1.7c-0.9,0-1.7-0.8-1.7-1.7c0-0.9,0.8-1.7,1.7-1.7
		C186.5,139,187.3,139.7,187.3,140.6z"/>
	<path class="st2" d="M187.3,154.6c0,0.9-0.8,1.7-1.7,1.7c-0.9,0-1.7-0.8-1.7-1.7c0-0.9,0.8-1.7,1.7-1.7
		C186.5,152.9,187.3,153.7,187.3,154.6z"/>
	<path class="st2" d="M187.3,170.6c0,0.9-0.8,1.7-1.7,1.7c-0.9,0-1.7-0.8-1.7-1.7c0-0.9,0.8-1.7,1.7-1.7
		C186.5,168.9,187.3,169.6,187.3,170.6z"/>
	<path class="st2" d="M187.3,188.6c0,0.9-0.8,1.7-1.7,1.7c-0.9,0-1.7-0.8-1.7-1.7c0-0.9,0.8-1.7,1.7-1.7
		C186.5,186.9,187.3,187.6,187.3,188.6z"/>
	<path class="st2" d="M187.3,208.5c0,0.9-0.8,1.7-1.7,1.7c-0.9,0-1.7-0.8-1.7-1.7c0-0.9,0.8-1.7,1.7-1.7
		C186.5,206.8,187.3,207.6,187.3,208.5z"/>
	<path class="st2" d="M252.8,100.7L252.8,100.7l0-9.9l-0.1,0l15.4-15.4l-22-22l-22,22L239.8,91l0,9.6c-11.5-2.9-20-13.3-20-25.7
		c0-14.7,11.9-26.6,26.6-26.6c14.7,0,26.6,11.9,26.6,26.6C272.9,87.8,264.1,97.9,252.8,100.7L252.8,100.7z M246.1,43.6
		c-17.4,0-31.4,14.1-31.4,31.4c0,15.8,11.7,28.9,26.8,31.1c0.3,0.1,0.6,0.1,0.9,0.1c1.5,0,2.3-1.3,2.3-2.3V88.6l0,0l-13.4-13.4
		l15-15l15,15L248,88.5l0.1-0.1v15.4c0,1.7,1,2.7,2.4,2.4c15.2-2.2,27.1-15.3,27.1-31.1C277.5,57.7,263.4,43.6,246.1,43.6z"/>
	<path class="st2" d="M217.7,50.2l0.2,0.1c0,0.1-0.1,0.1-0.2,0.3c-0.1,0.1-0.1,0.2-0.2,0.2c0,0.1-0.1,0.2-0.2,0.3
		c-0.1,0.1-0.1,0.2-0.1,0.2c-0.6-0.3-1.2-0.5-1.8-0.7c-0.6-0.2-1.1-0.4-1.7-0.6c0.3,0.4,0.5,0.7,0.7,1.1c0.2,0.3,0.5,0.7,0.7,1
		c0.3,0.4,0.5,0.7,0.7,1l-0.2,0.3l-0.2,0.3c-0.3-0.1-0.7-0.3-1.2-0.4c-0.4-0.1-0.8-0.3-1.2-0.4c-0.5-0.1-0.9-0.3-1.2-0.4
		c0.1,0.1,0.3,0.4,0.7,1c0.4,0.5,0.6,0.8,0.8,1c0.2,0.3,0.5,0.6,0.8,1l-0.2,0.3l-0.2,0.3c-0.5-0.7-1-1.5-1.5-2.2
		c-0.5-0.7-1-1.4-1.5-2.1c0.1-0.1,0.1-0.1,0.1-0.2c0,0,0.1-0.1,0.1-0.1c0-0.1,0.1-0.1,0.1-0.2c0-0.1,0.1-0.1,0.1-0.1
		c0.4,0.2,0.8,0.3,1.1,0.4c0.4,0.1,0.7,0.2,1.2,0.4c0.1,0,0.5,0.1,1.2,0.3c-0.2-0.3-0.5-0.7-0.7-1c-0.2-0.3-0.5-0.7-0.7-1
		c-0.4-0.6-0.6-0.9-0.7-1c0.1-0.1,0.1-0.1,0.1-0.2c0,0,0.1-0.1,0.1-0.1c0-0.1,0.1-0.1,0.1-0.2c0-0.1,0.1-0.1,0.1-0.1
		c0.4,0.2,0.9,0.4,1.5,0.6c0.5,0.2,1,0.4,1.5,0.5C216.7,49.9,217.2,50,217.7,50.2z"/>
	<path class="st2" d="M212.1,59c0.2-0.5,0.2-0.9,0-1.3c-0.2-0.4-0.7-0.8-1.4-1.1c-0.5-0.2-0.9-0.3-1.3-0.2c-0.5,0.1-0.8,0.3-1,0.8
		c-0.2,0.5-0.2,0.9,0.1,1.4c0.3,0.4,0.7,0.8,1.3,1c0.5,0.2,0.9,0.3,1.4,0.3C211.5,59.7,211.9,59.4,212.1,59L212.1,59z M209,60.5
		c-0.7-0.3-1.1-0.8-1.3-1.5c-0.2-0.7-0.2-1.4,0.2-2.2c0.3-0.7,0.8-1.2,1.4-1.5c0.6-0.2,1.3-0.2,2,0.1c0.7,0.3,1.1,0.8,1.3,1.4
		c0.2,0.7,0.2,1.4-0.2,2.2c-0.4,0.8-1,1.4-1.7,1.5C210.2,60.9,209.6,60.8,209,60.5z"/>
	<path class="st2" d="M210.1,63.8l-1.8-0.5c0,0,0,0.1,0,0.1c0,0,0,0.1,0,0.1c-0.2,0.6,0.1,1,0.7,1.2c0.1,0,0.2,0.1,0.4,0.1
		c0.2,0,0.4,0,0.5-0.2c0.1-0.1,0.2-0.3,0.2-0.5L210.1,63.8L210.1,63.8z M206,61.5l4.7,1.4l-0.4,1.5c-0.1,0.3-0.2,0.5-0.2,0.7
		c-0.1,0.1-0.1,0.3-0.2,0.4c-0.3,0.3-0.7,0.4-1.2,0.3c-0.3-0.1-0.6-0.3-0.7-0.5c-0.2-0.3-0.2-0.6-0.2-0.9c-0.4,0.1-0.8,0.2-1.4,0.4
		c-0.4,0.1-0.7,0.2-0.9,0.3l-0.5,0.1c0-0.1,0.1-0.2,0.1-0.4c0.1-0.1,0.1-0.2,0.1-0.3c0-0.1,0.1-0.2,0.1-0.4c0-0.2,0.1-0.2,0.1-0.3
		l1.7-0.4l0.9-0.2l0,0l-2.2-0.6c0-0.1,0-0.1,0.1-0.2c0.1-0.2,0.1-0.3,0.1-0.3c0-0.1,0-0.2,0.1-0.3C206,61.6,206,61.5,206,61.5z"/>
	<path class="st2" d="M209.3,68.9l-4.3-0.7c0,0.3-0.1,0.6-0.1,0.8c0,0.2,0,0.5-0.1,0.9c-0.1,0-0.1,0-0.2-0.1c-0.1,0-0.1,0-0.1,0
		c0,0-0.1,0-0.2,0c-0.1,0-0.1,0-0.2,0l0.4-2.7l4.8,0.8c0,0.1,0,0.2-0.1,0.3c0,0.1,0,0.2-0.1,0.2c0,0.1,0,0.1,0,0.2
		C209.3,68.7,209.3,68.9,209.3,68.9z"/>
	<path class="st2" d="M208.4,73l-4.1-0.1l0,0.6c0,0.5,0.1,1,0.4,1.3c0.4,0.3,0.9,0.5,1.7,0.5c0.7,0,1.1-0.1,1.5-0.4
		c0.3-0.3,0.5-0.7,0.5-1.2L208.4,73L208.4,73z M208.9,72l0,2.5c0,0.7-0.3,1.3-0.7,1.6c-0.4,0.3-1,0.5-1.6,0.5
		c-0.8,0-1.4-0.3-1.9-0.8c-0.4-0.5-0.7-1.1-0.6-1.9l0-2L208.9,72z"/>
	<path class="st2" d="M204.5,82.1l4.8-1.1c0,0.1,0,0.2,0.1,0.3c0,0.1,0,0.2,0,0.2c0,0.1,0,0.1,0,0.2c0.1,0.2,0.1,0.3,0.1,0.3
		l-1.9,0.4c0,0.2,0.1,0.4,0.1,0.6c0,0.3,0.1,0.4,0.1,0.4c0,0.2,0.1,0.3,0.1,0.4c0.1,0.4,0.2,0.6,0.2,0.7l1.9-0.4
		c0,0.1,0,0.2,0.1,0.3c0,0.1,0,0.2,0,0.2c0,0.1,0,0.1,0,0.2c0.1,0.2,0.1,0.3,0.1,0.3l-4.8,1.1c0-0.1,0-0.1,0-0.2c0-0.2,0-0.3,0-0.3
		c0-0.1,0-0.2-0.1-0.3c0-0.1-0.1-0.2-0.1-0.2l2.3-0.5c0-0.2-0.1-0.3-0.1-0.4c-0.1-0.4-0.1-0.6-0.1-0.7c0-0.2-0.1-0.4-0.2-0.6
		c-0.1-0.3-0.1-0.4-0.1-0.4l-2.3,0.5c0-0.1,0-0.1,0-0.2c0-0.2,0-0.3,0-0.3c0-0.1,0-0.2-0.1-0.3C204.5,82.2,204.5,82.1,204.5,82.1z"
		/>
	<path class="st2" d="M210.8,86.9l1,2.6c-0.1,0-0.1,0-0.2,0c-0.1,0-0.1,0-0.1,0c0,0-0.1,0-0.1,0.1c-0.1,0-0.1,0.1-0.1,0.1
		c-0.1-0.2-0.1-0.5-0.2-0.7c-0.1-0.2-0.2-0.5-0.3-0.9l-1.4,0.5l0.3,0.7c0.1,0.2,0.1,0.3,0.2,0.4c0,0.1,0.1,0.2,0.2,0.4
		c-0.1,0-0.1,0-0.2,0c-0.1,0-0.1,0-0.1,0c0,0-0.1,0-0.1,0.1c-0.1,0-0.1,0.1-0.1,0.1c0-0.1-0.1-0.3-0.1-0.4c0-0.2-0.1-0.3-0.1-0.4
		l-0.3-0.7l-1.7,0.6c0.1,0.3,0.2,0.6,0.3,0.8c0.1,0.2,0.2,0.5,0.3,0.7c-0.1,0-0.1,0-0.2,0c-0.1,0-0.1,0-0.1,0c0,0-0.1,0-0.1,0.1
		c-0.1,0-0.1,0.1-0.1,0.1l-1-2.6L210.8,86.9z"/>
	<path class="st2" d="M212.5,92l-1.7,0.9c0,0,0,0.1,0,0.1c0,0,0,0.1,0,0.1c0.3,0.6,0.7,0.7,1.4,0.3c0.1-0.1,0.2-0.1,0.3-0.2
		c0.2-0.1,0.3-0.3,0.3-0.5c0-0.1-0.1-0.3-0.2-0.5L212.5,92L212.5,92z M208,93.2l4.4-2.3l0.7,1.4c0.2,0.3,0.3,0.5,0.3,0.6
		c0.1,0.1,0.1,0.3,0.1,0.4c0,0.5-0.2,0.8-0.6,1c-0.3,0.2-0.6,0.2-0.9,0.1c-0.3-0.1-0.6-0.2-0.8-0.5c-0.2,0.3-0.5,0.7-0.8,1.3
		c-0.2,0.4-0.3,0.6-0.4,0.8l-0.3,0.5c0-0.1-0.1-0.2-0.2-0.3c-0.1-0.1-0.1-0.2-0.1-0.3c0-0.1-0.1-0.2-0.2-0.3
		c-0.1-0.1-0.1-0.2-0.1-0.2l0.9-1.5l0.5-0.8l0,0l-2,1.1c0-0.1-0.1-0.1-0.1-0.2c-0.1-0.2-0.1-0.3-0.1-0.3c0-0.1-0.1-0.2-0.2-0.3
		C208.1,93.2,208,93.2,208,93.2z"/>
	<path class="st2" d="M210.9,98.2l4.1-2.8c0,0.1,0.1,0.2,0.2,0.3c0.1,0.1,0.1,0.2,0.1,0.2c0,0.1,0.1,0.1,0.1,0.2
		c0.1,0.2,0.2,0.2,0.2,0.3l-4.1,2.8c0-0.1-0.1-0.1-0.1-0.2c-0.1-0.2-0.2-0.3-0.2-0.3c0-0.1-0.1-0.2-0.2-0.3
		C210.9,98.3,210.9,98.2,210.9,98.2z"/>
	<path class="st2" d="M217.6,99.8l-3.4,2.8c-0.1-0.1-0.1-0.1-0.1-0.2c-0.1-0.2-0.2-0.3-0.2-0.3c-0.1-0.1-0.1-0.1-0.2-0.2
		c-0.1-0.1-0.1-0.1-0.2-0.2l3.4-2.8c-0.2-0.2-0.3-0.4-0.4-0.5c-0.1-0.1-0.3-0.3-0.5-0.5c0.1,0,0.1-0.1,0.2-0.1c0,0,0.1-0.1,0.1-0.1
		c0.1,0,0.1-0.1,0.1-0.1c0,0,0.1-0.1,0.1-0.1l2.4,2.8c-0.1,0-0.1,0.1-0.1,0.1c0,0-0.1,0.1-0.1,0.1c-0.1,0-0.1,0.1-0.1,0.1
		c0,0-0.1,0.1-0.1,0.1c-0.2-0.3-0.3-0.5-0.4-0.5C217.9,100.1,217.7,100,217.6,99.8z"/>
	<path class="st2" d="M218.4,104.3l1,0.9l0.6-1.7L218.4,104.3L218.4,104.3z M219.2,105.6l-1.2-1.1c-0.4,0.2-0.7,0.4-0.9,0.5
		c-0.2,0.1-0.4,0.2-0.5,0.3l-0.2-0.3l-0.3-0.2l4.9-2.3l0.2,0.2l0.2,0.2l-1.9,5c-0.1-0.1-0.1-0.1-0.3-0.2c-0.1-0.1-0.2-0.2-0.2-0.2
		c-0.1-0.1-0.2-0.1-0.3-0.2c-0.1-0.1-0.2-0.1-0.2-0.2c0.1-0.3,0.3-0.6,0.3-0.7C219,106.1,219.1,105.8,219.2,105.6z"/>
	<path class="st2" d="M226.1,109.7l-1.1,1.7c-0.4-0.1-0.7-0.2-1-0.4c-0.3-0.1-0.5-0.3-0.8-0.4c-0.7-0.5-1.1-1-1.3-1.6
		c-0.2-0.7-0.1-1.4,0.3-2c0.5-0.7,1.1-1.1,1.8-1.2c0.7-0.1,1.4,0.1,2.1,0.6c0.3,0.2,0.5,0.4,0.7,0.6c0.2,0.2,0.4,0.5,0.5,0.7
		c-0.2,0.1-0.4,0.3-0.6,0.5l-0.1-0.1c0-0.3-0.1-0.5-0.2-0.8c-0.1-0.2-0.3-0.4-0.6-0.6c-0.5-0.3-1-0.4-1.5-0.2
		c-0.5,0.2-0.9,0.6-1.3,1.1c-0.3,0.5-0.5,1-0.4,1.5c0.1,0.5,0.3,0.8,0.8,1.1c0.1,0.1,0.3,0.2,0.4,0.2c0.1,0,0.2,0.1,0.4,0.1l0.9-1.4
		c0.1,0,0.2,0.1,0.3,0.2c0.1,0.1,0.2,0.1,0.2,0.1c0.1,0,0.1,0.1,0.2,0.1C226,109.6,226.1,109.7,226.1,109.7z"/>
	<path class="st2" d="M229.1,108.2l2.5,1.2c0,0-0.1,0.1-0.1,0.1c0,0-0.1,0.1-0.1,0.1c0,0,0,0.1-0.1,0.1c0,0.1,0,0.1,0,0.2
		c-0.2-0.1-0.4-0.3-0.7-0.4c-0.2-0.1-0.5-0.3-0.8-0.4l-0.7,1.4l0.7,0.3c0.2,0.1,0.3,0.1,0.4,0.2c0.1,0,0.2,0.1,0.4,0.1
		c0,0-0.1,0.1-0.1,0.1c0,0-0.1,0.1-0.1,0.1c0,0,0,0.1-0.1,0.1c0,0.1,0,0.1,0,0.2c-0.1-0.1-0.2-0.1-0.4-0.2c-0.1-0.1-0.3-0.2-0.4-0.2
		l-0.7-0.3l-0.8,1.6c0.3,0.1,0.6,0.3,0.8,0.4c0.2,0.1,0.5,0.2,0.7,0.3c0,0-0.1,0.1-0.1,0.1c0,0-0.1,0.1-0.1,0.1c0,0,0,0.1-0.1,0.1
		c0,0.1,0,0.1,0,0.2l-2.5-1.2L229.1,108.2z"/>
	<path class="st2" d="M242.2,112.5l-0.2,2c0.1,0,0.2,0,0.2,0c0.1,0,0.1,0,0.2,0c0.2,0,0.4-0.1,0.5-0.3c0.1-0.2,0.2-0.3,0.2-0.6
		c0-0.3,0-0.5-0.1-0.7c-0.1-0.2-0.3-0.3-0.5-0.3L242.2,112.5L242.2,112.5z M242,114.9l-0.2,2.1c-0.1,0-0.1,0-0.2,0
		c-0.2,0-0.3-0.1-0.3-0.1c-0.1,0-0.2,0-0.3,0c-0.1,0-0.2,0-0.2,0l0.5-4.9l1.8,0.2c1,0.1,1.5,0.5,1.4,1.4c-0.1,0.6-0.3,1-0.7,1.2
		C243.3,114.9,242.7,114.9,242,114.9z"/>
	<path class="st2" d="M246.9,115.4l1.3-0.1l-0.7-1.6L246.9,115.4L246.9,115.4z M248.4,115.8l-1.7,0.1c-0.1,0.4-0.2,0.8-0.3,1
		c-0.1,0.2-0.1,0.4-0.1,0.5l-0.3,0l-0.3,0l1.9-5.1l0.3,0l0.3,0l2.2,4.9c-0.1,0-0.2,0-0.4,0c-0.1,0-0.2,0-0.3,0c-0.1,0-0.2,0-0.4,0
		c-0.1,0-0.2,0-0.3,0c-0.1-0.3-0.2-0.6-0.3-0.8C248.6,116.2,248.5,116,248.4,115.8z"/>
	<path class="st2" d="M253.4,112.2l0.8,4.3c-0.1,0-0.1,0-0.2,0c-0.2,0-0.3,0-0.3,0c-0.1,0-0.2,0-0.3,0.1c-0.1,0-0.2,0.1-0.2,0.1
		l-0.8-4.3c-0.3,0-0.5,0.1-0.7,0.1c-0.2,0-0.4,0.1-0.7,0.2c0-0.1,0-0.1,0-0.2c0-0.1,0-0.1,0-0.1c0-0.1,0-0.1,0-0.2c0,0,0-0.1,0-0.1
		l3.6-0.6c0,0.1,0,0.1,0,0.2c0,0.1,0,0.1,0,0.1c0,0.1,0,0.1,0,0.2c0,0,0,0.1,0,0.1c-0.4,0-0.6,0-0.6,0
		C253.8,112.2,253.6,112.2,253.4,112.2z"/>
	<path class="st2" d="M257,111.2l0.6,1.8c0,0,0.1,0,0.1,0c0,0,0.1,0,0.1,0c0.6-0.2,0.8-0.6,0.6-1.3c0-0.1-0.1-0.2-0.1-0.3
		c-0.1-0.2-0.3-0.3-0.5-0.3c-0.1,0-0.3,0-0.6,0.1L257,111.2L257,111.2z M257.3,115.9l-1.5-4.7l1.5-0.5c0.3-0.1,0.5-0.2,0.7-0.2
		c0.1,0,0.3,0,0.5,0c0.5,0.1,0.8,0.4,0.9,0.8c0.1,0.3,0.1,0.6,0,0.9c-0.1,0.3-0.3,0.5-0.6,0.7c0.3,0.3,0.7,0.6,1.1,1
		c0.3,0.3,0.5,0.5,0.7,0.6l0.4,0.3c-0.1,0-0.2,0.1-0.4,0.1c-0.2,0-0.2,0.1-0.3,0.1c-0.1,0-0.2,0.1-0.3,0.1c-0.1,0.1-0.2,0.1-0.3,0.1
		l-1.3-1.2l-0.7-0.6l0,0l0.7,2.2c-0.1,0-0.1,0-0.2,0.1c-0.2,0-0.3,0.1-0.3,0.1c-0.1,0-0.2,0.1-0.3,0.1
		C257.4,115.8,257.3,115.9,257.3,115.9z"/>
	<path class="st2" d="M262.8,113.9l-2-4.5c0.1,0,0.2-0.1,0.3-0.1c0.1,0,0.2-0.1,0.2-0.1c0.1,0,0.1-0.1,0.2-0.1
		c0.2-0.1,0.3-0.2,0.3-0.2l2,4.5c-0.1,0-0.1,0.1-0.2,0.1c-0.2,0.1-0.3,0.1-0.3,0.1c-0.1,0-0.2,0.1-0.3,0.1
		C262.9,113.9,262.8,113.9,262.8,113.9z"/>
	<path class="st2" d="M267.5,109.7c0-0.4-0.1-0.8-0.1-1.2c0-0.4-0.1-0.8-0.1-1.3c-0.1-0.6-0.1-1-0.1-1.3c0.1,0,0.1,0,0.2-0.1
		c0,0,0.1,0,0.1-0.1c0,0,0.1,0,0.1-0.1c0.1,0,0.1-0.1,0.1-0.1c0.4,0.5,0.8,1,1.1,1.4c0.6,0.8,0.9,1.2,1,1.3c0.3,0.3,0.6,0.7,1,1.1
		c-0.1,0-0.2,0.1-0.3,0.2c-0.1,0.1-0.2,0.1-0.2,0.1c-0.1,0-0.2,0.1-0.3,0.2c-0.1,0.1-0.2,0.1-0.2,0.1c-0.2-0.4-0.5-0.8-0.9-1.3
		c-0.4-0.5-0.7-0.9-1.1-1.4c0,0.4,0.1,0.8,0.1,1.2c0,0.4,0.1,0.8,0.1,1.2c0,0.3,0.1,0.7,0.1,1.2c-0.1,0-0.1,0.1-0.2,0.1
		c0,0,0,0-0.1,0.1c-0.3-0.2-0.6-0.4-1-0.6c-0.4-0.3-0.7-0.5-1-0.6c-0.4-0.2-0.7-0.4-1.1-0.7c0.2,0.5,0.4,0.9,0.5,1.1
		c0.2,0.4,0.3,0.7,0.5,1c0.2,0.3,0.3,0.6,0.5,0.8c-0.1,0-0.1,0.1-0.2,0.1c-0.1,0-0.1,0-0.1,0.1c-0.1,0-0.1,0.1-0.1,0.1
		c0,0-0.1,0.1-0.1,0.1c-0.2-0.4-0.4-0.9-0.6-1.4c-0.1-0.3-0.3-0.8-0.6-1.5c-0.3-0.7-0.6-1.3-0.7-1.7c0.1,0,0.1,0,0.2-0.1
		c0,0,0.1,0,0.1-0.1c0.1,0,0.1-0.1,0.1-0.1c0,0,0.1-0.1,0.1-0.1c0.2,0.2,0.6,0.4,1,0.7c0.4,0.2,0.7,0.4,1.1,0.7
		C266.7,109.3,267.1,109.5,267.5,109.7z"/>
	<path class="st2" d="M271.3,103.1c-0.4,0.3-0.5,0.7-0.5,1.2c0.1,0.5,0.3,1,0.9,1.6c0.4,0.4,0.7,0.6,1.1,0.8c0.5,0.1,0.9,0,1.3-0.3
		c0.4-0.3,0.5-0.8,0.4-1.3c-0.1-0.5-0.3-1-0.8-1.5c-0.4-0.4-0.7-0.7-1.2-0.8C272.1,102.7,271.7,102.8,271.3,103.1L271.3,103.1z
		 M274.7,102.9c0.5,0.5,0.7,1.2,0.6,1.9c-0.1,0.7-0.4,1.4-1,2c-0.6,0.5-1.2,0.8-1.9,0.8c-0.7,0-1.3-0.3-1.8-0.9
		c-0.5-0.6-0.7-1.2-0.7-1.9c0.1-0.7,0.4-1.4,1.1-2c0.7-0.6,1.4-0.9,2.1-0.7C273.8,102.1,274.3,102.4,274.7,102.9z"/>
	<path class="st2" d="M277.8,103.1l-3.7-3.2c0.1-0.1,0.1-0.1,0.2-0.2c0.1-0.1,0.1-0.1,0.2-0.2c0.1-0.1,0.1-0.1,0.1-0.2
		c0.1-0.2,0.2-0.3,0.2-0.3l3.7,3.2c-0.1,0.1-0.1,0.1-0.1,0.1c-0.1,0.1-0.2,0.2-0.2,0.2c-0.1,0.1-0.1,0.1-0.2,0.2
		C277.9,103.1,277.9,103.1,277.8,103.1z"/>
	<path class="st2" d="M280.2,100.4l-4.1-2.7l0.4-0.6c0.5-0.1,1-0.2,1.5-0.2c0.3-0.1,0.8-0.1,1.5-0.2c0.7-0.1,1.2-0.2,1.5-0.2
		l-2.8-1.9l0.2-0.2l0.1-0.2l4.1,2.7l-0.3,0.5c-0.6,0.1-1.2,0.2-1.8,0.3c-0.6,0.1-1.2,0.2-1.8,0.3l-1.1,0.2l2.9,1.9l-0.2,0.2
		L280.2,100.4z"/>
	<path class="st2" d="M279.4,92.4l1.2-2.5c0,0,0.1,0.1,0.1,0.1c0,0,0.1,0.1,0.1,0.1c0,0,0.1,0,0.1,0.1c0.1,0,0.1,0,0.2,0
		c-0.1,0.2-0.3,0.4-0.4,0.7c-0.1,0.2-0.3,0.5-0.4,0.8l1.4,0.7l0.3-0.7c0.1-0.2,0.1-0.3,0.2-0.4c0-0.1,0.1-0.2,0.1-0.4
		c0,0,0.1,0.1,0.1,0.1c0,0,0.1,0.1,0.1,0.1c0,0,0.1,0,0.1,0.1c0.1,0,0.1,0,0.2,0c-0.1,0.1-0.1,0.2-0.2,0.4c-0.1,0.1-0.2,0.3-0.2,0.4
		l-0.3,0.7l1.6,0.8c0.1-0.3,0.3-0.6,0.4-0.8c0.1-0.2,0.2-0.5,0.3-0.7c0,0,0.1,0.1,0.1,0.1c0,0,0.1,0.1,0.1,0.1c0,0,0.1,0,0.1,0.1
		c0.1,0,0.1,0,0.2,0.1l-1.2,2.5L279.4,92.4z"/>
	<path class="st2" d="M286,84.1c-0.3-0.3-0.6-0.5-0.9-0.8c-0.3-0.3-0.7-0.5-1-0.8c-0.5-0.4-0.8-0.6-1-0.8c0-0.1,0-0.1,0.1-0.2
		c0,0,0-0.1,0-0.1c0,0,0-0.1,0-0.2c0-0.1,0-0.1,0-0.2c0.6,0.1,1.2,0.1,1.8,0.2c0.9,0.1,1.5,0.2,1.6,0.2c0.4,0,0.9,0.1,1.5,0.1
		c0,0.1,0,0.2-0.1,0.3c0,0.1-0.1,0.2-0.1,0.3c0,0.1,0,0.2-0.1,0.3c0,0.1,0,0.2,0,0.3c-0.4-0.1-1-0.2-1.6-0.3
		c-0.6-0.1-1.2-0.1-1.7-0.2c0.3,0.3,0.6,0.5,1,0.8c0.3,0.3,0.6,0.5,0.9,0.8c0.2,0.2,0.5,0.4,1,0.8c0,0.1,0,0.1-0.1,0.2
		c0,0,0,0.1,0,0.1c-0.4,0.1-0.7,0.2-1.1,0.2c-0.5,0.1-0.8,0.2-1.2,0.3c-0.4,0.1-0.8,0.2-1.2,0.3c0.5,0.2,0.9,0.3,1.1,0.4
		c0.4,0.1,0.7,0.3,1.1,0.4c0.3,0.1,0.6,0.2,0.9,0.3c0,0.1,0,0.1-0.1,0.2c0,0.1,0,0.1,0,0.1c0,0.1,0,0.1,0,0.2c0,0,0,0.1,0,0.2
		c-0.4-0.2-0.9-0.4-1.4-0.6c-0.3-0.1-0.8-0.3-1.5-0.6c-0.7-0.3-1.3-0.5-1.7-0.6c0-0.1,0-0.1,0.1-0.2c0,0,0-0.1,0-0.1
		c0-0.1,0-0.1,0-0.2c0-0.1,0-0.1,0-0.1c0.3-0.1,0.7-0.1,1.2-0.3c0.4-0.1,0.8-0.2,1.2-0.3C285.2,84.3,285.6,84.2,286,84.1z"/>
	<path class="st2" d="M284,76.8c0,0.5,0.1,0.9,0.5,1.2c0.4,0.3,1,0.5,1.8,0.5c0.5,0,1-0.1,1.3-0.3c0.4-0.2,0.6-0.6,0.7-1.1
		c0-0.5-0.2-0.9-0.6-1.2c-0.4-0.3-0.9-0.4-1.6-0.5c-0.5,0-1,0.1-1.4,0.3C284.2,75.9,284,76.3,284,76.8L284,76.8z M286.2,74.2
		c0.7,0,1.3,0.3,1.8,0.8c0.5,0.6,0.7,1.3,0.7,2.1c0,0.8-0.3,1.4-0.8,1.9c-0.5,0.5-1.1,0.7-1.9,0.6c-0.7,0-1.3-0.3-1.8-0.8
		c-0.5-0.5-0.7-1.2-0.7-2.1c0-0.9,0.4-1.6,1-2.1C285,74.3,285.5,74.1,286.2,74.2z"/>
	<path class="st2" d="M288.5,72.1l-4.9,0.6l-0.1-0.7c0.3-0.4,0.6-0.7,1-1.2c0.2-0.2,0.5-0.6,1-1.2c0.5-0.6,0.8-0.9,1-1.2l-3.3,0.4
		l0-0.3l-0.1-0.3l4.9-0.6l0.1,0.6c-0.4,0.5-0.8,0.9-1.2,1.4c-0.4,0.5-0.8,0.9-1.2,1.4l-0.7,0.9l3.5-0.4l0,0.3L288.5,72.1z"/>
	<path class="st2" d="M282.9,65.5l3.9-1.1l-0.2-0.6c-0.2-0.5-0.4-0.9-0.8-1.1c-0.4-0.2-1-0.2-1.8,0c-0.6,0.2-1,0.5-1.3,0.8
		c-0.2,0.3-0.2,0.8-0.1,1.3L282.9,65.5L282.9,65.5z M282.8,66.6l-0.7-2.4c-0.2-0.7-0.1-1.3,0.2-1.8c0.3-0.4,0.8-0.8,1.4-0.9
		c0.8-0.2,1.4-0.2,2,0.2c0.6,0.3,1,0.9,1.2,1.6l0.6,1.9L282.8,66.6z"/>
	<path class="st2" d="M285.3,58.7l-4.5,1.9c0-0.1-0.1-0.2-0.1-0.3c0-0.1-0.1-0.2-0.1-0.2c0-0.1-0.1-0.1-0.1-0.2
		c-0.1-0.2-0.1-0.3-0.2-0.3l4.5-1.9c0,0.1,0.1,0.1,0.1,0.2c0.1,0.2,0.1,0.3,0.1,0.3c0,0.1,0.1,0.2,0.1,0.3
		C285.3,58.6,285.3,58.7,285.3,58.7z"/>
	<path class="st2" d="M281.7,55.6l-0.7-1.1l-1.1,1.4L281.7,55.6L281.7,55.6z M281.3,54.1l0.8,1.4c0.5-0.1,0.8-0.1,1-0.2
		c0.2,0,0.4-0.1,0.6-0.1l0.1,0.3l0.2,0.3l-5.3,0.7l-0.1-0.2l-0.2-0.2l3.3-4.2c0,0.1,0.1,0.2,0.2,0.3c0.1,0.1,0.1,0.2,0.1,0.2
		c0,0.1,0.1,0.2,0.2,0.3c0.1,0.1,0.1,0.2,0.1,0.2c-0.2,0.3-0.4,0.5-0.5,0.6C281.6,53.7,281.5,53.9,281.3,54.1z"/>
	<path class="st2" d="M276.1,52.4l3.5-2.6c-0.2-0.2-0.4-0.4-0.5-0.6c-0.1-0.2-0.3-0.4-0.6-0.6c0,0,0.1-0.1,0.1-0.1
		c0.1,0,0.1-0.1,0.1-0.1c0,0,0.1-0.1,0.1-0.1c0,0,0.1-0.1,0.1-0.1l1.7,2.2l-3.9,3c0-0.1-0.1-0.2-0.2-0.3c-0.1-0.1-0.1-0.2-0.1-0.2
		c0-0.1-0.1-0.1-0.1-0.2C276.2,52.5,276.1,52.4,276.1,52.4z"/>
	<path class="st2" d="M223.8,39.5l-0.2-0.2c0.1,0,0.2-0.1,0.3-0.1c0.1-0.1,0.2-0.1,0.2-0.1c0.1,0,0.2-0.1,0.3-0.2
		c0.1-0.1,0.2-0.1,0.2-0.1c0.4,0.5,0.9,1,1.3,1.4c0.4,0.4,0.8,0.9,1.2,1.3c-0.1-0.5-0.1-0.9-0.2-1.3c-0.1-0.4-0.1-0.8-0.2-1.2
		c-0.1-0.5-0.1-0.9-0.2-1.3l0.3-0.2l0.3-0.2c0.3,0.3,0.5,0.6,0.9,0.9c0.3,0.3,0.6,0.6,0.9,0.9c0.4,0.3,0.7,0.6,0.9,0.9
		c0-0.1-0.1-0.6-0.2-1.2c-0.1-0.6-0.2-1-0.2-1.2c-0.1-0.4-0.2-0.8-0.3-1.2l0.3-0.1l0.3-0.2c0.1,0.9,0.2,1.8,0.4,2.6
		c0.1,0.8,0.3,1.7,0.4,2.5c-0.1,0-0.1,0.1-0.2,0.1c-0.1,0-0.1,0-0.1,0.1c-0.1,0-0.1,0.1-0.2,0.1c-0.1,0-0.1,0.1-0.1,0.1
		c-0.3-0.3-0.6-0.6-0.8-0.9c-0.3-0.3-0.6-0.6-0.9-0.9c-0.1-0.1-0.4-0.4-0.9-0.8c0.1,0.4,0.1,0.8,0.2,1.2c0.1,0.4,0.1,0.8,0.2,1.2
		c0.1,0.7,0.2,1.1,0.2,1.3c-0.1,0-0.1,0.1-0.2,0.1c-0.1,0-0.1,0-0.1,0.1c-0.1,0-0.1,0.1-0.2,0.1c-0.1,0-0.1,0.1-0.1,0.1
		c-0.3-0.3-0.7-0.7-1.1-1.2c-0.4-0.4-0.7-0.8-1.1-1.2C224.6,40.3,224.2,39.9,223.8,39.5z"/>
	<path class="st2" d="M232.6,35.2l2.6-0.8c0,0.1,0,0.1,0,0.2c0,0.1,0,0.1,0,0.1c0,0,0,0.1,0.1,0.1c0,0.1,0.1,0.1,0.1,0.1
		c-0.2,0-0.5,0.1-0.7,0.2c-0.3,0.1-0.5,0.1-0.9,0.2l0.5,1.5l0.7-0.2c0.2-0.1,0.3-0.1,0.4-0.1c0.1,0,0.2-0.1,0.4-0.2
		c0,0.1,0,0.1,0,0.2c0,0.1,0,0.1,0,0.1c0,0,0,0.1,0.1,0.1c0,0.1,0.1,0.1,0.1,0.1c-0.1,0-0.3,0-0.4,0.1c-0.2,0-0.3,0.1-0.4,0.1
		l-0.7,0.2l0.5,1.7c0.3-0.1,0.6-0.2,0.9-0.3c0.2-0.1,0.5-0.2,0.7-0.3c0,0.1,0,0.1,0,0.2c0,0.1,0,0.1,0,0.1c0,0,0,0.1,0.1,0.1
		c0,0.1,0.1,0.1,0.1,0.1l-2.6,0.8L232.6,35.2z"/>
	<path class="st2" d="M239,33.6l0.7,4.3c0.3-0.1,0.6-0.1,0.8-0.2c0.2-0.1,0.5-0.1,0.8-0.2c0,0.1,0,0.1,0,0.2c0,0.1,0,0.1,0,0.1
		c0,0,0,0.1,0,0.1c0,0.1,0,0.1,0,0.2l-2.7,0.5l-0.8-4.8c0.1,0,0.2,0,0.3,0c0.1,0,0.2,0,0.2,0c0.1,0,0.1,0,0.2,0
		C238.9,33.6,239,33.6,239,33.6z"/>
	<path class="st2" d="M244.6,33.5l0.2,4.4c-0.1,0-0.1,0-0.2,0c-0.2,0-0.3,0-0.3,0c-0.1,0-0.2,0-0.3,0c-0.1,0-0.2,0-0.2,0l-0.2-4.4
		c-0.3,0-0.5,0-0.7,0.1c-0.2,0-0.4,0.1-0.7,0.1c0-0.1,0-0.1,0-0.2c0-0.1,0-0.1,0-0.1c0-0.1,0-0.1,0-0.2c0-0.1,0-0.1,0-0.1l3.7-0.2
		c0,0.1,0,0.1,0,0.2c0,0.1,0,0.1,0,0.1c0,0.1,0,0.1,0,0.2c0,0,0,0.1,0,0.1c-0.4,0-0.6,0-0.6,0C245,33.5,244.8,33.5,244.6,33.5z"/>
	<path class="st2" d="M248.6,33l2.7,0.2c0,0.1,0,0.1,0,0.2c0,0.1,0,0.1,0,0.1c0,0,0,0.1,0,0.2c0,0.1,0,0.1,0,0.2
		c-0.2-0.1-0.5-0.1-0.7-0.1c-0.3,0-0.6-0.1-0.9-0.1l-0.1,1.5l0.7,0.1c0.2,0,0.3,0,0.4,0c0.1,0,0.3,0,0.5,0c0,0.1,0,0.1,0,0.2
		c0,0.1,0,0.1,0,0.1c0,0,0,0.1,0,0.2c0,0.1,0,0.1,0,0.2c-0.1,0-0.3-0.1-0.4-0.1c-0.2,0-0.3,0-0.5-0.1l-0.7-0.1l-0.2,1.8
		c0.3,0,0.6,0,0.9,0.1c0.3,0,0.5,0,0.8,0c0,0.1,0,0.1,0,0.2c0,0.1,0,0.1,0,0.1c0,0,0,0.1,0,0.2c0,0.1,0,0.1,0,0.2l-2.7-0.2L248.6,33
		z"/>
	<path class="st2" d="M255.1,34.3l-0.4,1.9c0,0,0.1,0,0.1,0c0,0,0.1,0,0.1,0c0.6,0.1,1-0.1,1.1-0.8c0-0.1,0-0.2,0-0.4
		c0-0.2-0.1-0.4-0.2-0.5c-0.1-0.1-0.3-0.1-0.5-0.2L255.1,34.3L255.1,34.3z M253,38.5l1.1-4.8l1.5,0.3c0.3,0.1,0.6,0.1,0.7,0.2
		c0.1,0,0.3,0.1,0.4,0.2c0.4,0.3,0.5,0.7,0.4,1.1c-0.1,0.3-0.2,0.6-0.5,0.8c-0.2,0.2-0.5,0.3-0.9,0.2c0.1,0.4,0.3,0.8,0.5,1.4
		c0.1,0.4,0.2,0.7,0.3,0.8l0.2,0.5c-0.1,0-0.2-0.1-0.4-0.1c-0.1,0-0.2-0.1-0.3-0.1c-0.1,0-0.2,0-0.4-0.1c-0.2,0-0.2,0-0.3,0
		l-0.5-1.7l-0.3-0.9l0,0l-0.5,2.2c-0.1,0-0.1,0-0.2-0.1c-0.2-0.1-0.3-0.1-0.3-0.1c-0.1,0-0.2,0-0.3-0.1
		C253.1,38.5,253,38.5,253,38.5z"/>
	<path class="st2" d="M261.2,36.2l-0.6,1.6l0.2,0.1c0.1,0.1,0.2,0.1,0.3,0.1c0.1,0,0.2,0,0.3,0c0.1,0,0.2-0.1,0.3-0.2
		c0.1-0.1,0.2-0.2,0.2-0.4c0.1-0.2,0.1-0.4,0-0.6c-0.1-0.2-0.2-0.3-0.5-0.4C261.4,36.3,261.3,36.2,261.2,36.2L261.2,36.2z
		 M260.4,38.2l-0.7,1.8l0.3,0.1c0.2,0.1,0.4,0.1,0.6,0c0.2-0.1,0.4-0.3,0.5-0.5c0.1-0.3,0.1-0.6,0-0.9
		C261,38.5,260.8,38.3,260.4,38.2L260.4,38.2z M258.5,40l1.8-4.5l1.7,0.7c0.4,0.2,0.7,0.3,0.8,0.6c0.2,0.3,0.2,0.6,0.1,1
		c-0.1,0.3-0.3,0.5-0.6,0.6c-0.3,0.1-0.6,0.1-0.9,0l0,0.1c0.3,0.2,0.5,0.4,0.7,0.6c0.2,0.3,0.2,0.6,0.1,1c-0.2,0.4-0.5,0.7-0.9,0.8
		c-0.4,0.1-0.8,0-1.2-0.1L258.5,40z"/>
	<path class="st2" d="M266.2,38l2.4,1.4c0,0-0.1,0.1-0.1,0.1c0,0-0.1,0.1-0.1,0.1c0,0,0,0.1-0.1,0.1c0,0.1,0,0.1-0.1,0.1
		c-0.2-0.1-0.4-0.3-0.6-0.4c-0.2-0.1-0.5-0.3-0.8-0.5l-0.8,1.3l0.6,0.4c0.2,0.1,0.3,0.2,0.4,0.2c0.1,0,0.2,0.1,0.4,0.2
		c0,0-0.1,0.1-0.1,0.1c0,0-0.1,0.1-0.1,0.1c0,0,0,0.1-0.1,0.1c0,0.1,0,0.1-0.1,0.1c-0.1-0.1-0.2-0.2-0.3-0.3
		c-0.1-0.1-0.3-0.2-0.4-0.2l-0.6-0.4l-0.9,1.6c0.3,0.2,0.6,0.3,0.8,0.4c0.2,0.1,0.5,0.2,0.7,0.3c0,0-0.1,0.1-0.1,0.1
		c0,0-0.1,0.1-0.1,0.1c0,0,0,0.1-0.1,0.1c0,0.1,0,0.1-0.1,0.1l-2.4-1.4L266.2,38z"/>
	<path class="st2" d="M236.4,113.2c0,0.3-0.2,0.5-0.5,0.5c-0.3,0-0.5-0.2-0.5-0.5c0-0.3,0.2-0.5,0.5-0.5
		C236.1,112.7,236.4,112.9,236.4,113.2z"/>
	<path class="st2" d="M221,44.6c0,0.3-0.2,0.5-0.5,0.5c-0.3,0-0.5-0.2-0.5-0.5c0-0.3,0.2-0.5,0.5-0.5C220.7,44.1,221,44.3,221,44.6z
		"/>
	<path class="st2" d="M273.1,44.7c0,0.3-0.2,0.5-0.5,0.5c-0.3,0-0.5-0.2-0.5-0.5s0.2-0.5,0.5-0.5C272.9,44.2,273.1,44.4,273.1,44.7z
		"/>
	<path class="st2" d="M314.1,160.3l1.2-0.1c0.1,0.6,0.3,1,0.6,1.2c0.3,0.3,0.7,0.4,1.1,0.4c0.4,0,0.7-0.1,1-0.3
		c0.3-0.2,0.5-0.4,0.7-0.7c0.2-0.3,0.3-0.7,0.5-1.2c0.1-0.5,0.2-1,0.2-1.5c0-0.1,0-0.1,0-0.3c-0.3,0.4-0.6,0.7-1,1
		c-0.4,0.3-0.9,0.4-1.4,0.4c-0.9,0-1.6-0.3-2.2-0.9c-0.6-0.6-0.9-1.4-0.9-2.4c0-1,0.3-1.9,0.9-2.5c0.6-0.6,1.4-1,2.3-1
		c0.7,0,1.3,0.2,1.8,0.5c0.6,0.4,1,0.9,1.3,1.5c0.3,0.7,0.4,1.6,0.4,2.9c0,1.3-0.1,2.4-0.4,3.1c-0.3,0.8-0.7,1.4-1.3,1.8
		c-0.6,0.4-1.2,0.6-2,0.6c-0.8,0-1.5-0.2-2-0.7C314.5,161.8,314.2,161.2,314.1,160.3L314.1,160.3z M319.2,155.8
		c0-0.7-0.2-1.3-0.6-1.7c-0.4-0.4-0.9-0.6-1.4-0.6c-0.6,0-1,0.2-1.5,0.7c-0.4,0.5-0.6,1.1-0.6,1.8c0,0.7,0.2,1.2,0.6,1.6
		c0.4,0.4,0.9,0.6,1.5,0.6c0.6,0,1.1-0.2,1.4-0.6C319,157.1,319.2,156.5,319.2,155.8z"/>
</g>
</svg>
