<svg xmlns="http://www.w3.org/2000/svg" xmlns:xlink="http://www.w3.org/1999/xlink" viewBox="0 0 180 53"><defs><path id="a" d="M1210.999 618.5c0 14.635-11.812 26.5-26.384 26.5-14.573 0-26.385-11.865-26.385-26.5s11.812-26.5 26.385-26.5c14.572 0 26.384 11.865 26.384 26.5"/><path id="b" d="M1208.066 618.496c0 13.007-10.501 23.555-23.453 23.555s-23.453-10.548-23.453-23.555c0-13.01 10.5-23.556 23.453-23.556 12.952 0 23.453 10.545 23.453 23.556"/><path id="c" d="M1195.167 618.5c0 5.854-4.725 10.6-10.553 10.6-5.829 0-10.554-4.746-10.554-10.6 0-5.856 4.725-10.6 10.554-10.6 5.828 0 10.553 4.744 10.553 10.6"/><path id="d" d="M1128.475 613.128l.019-.264c.018-.15.075-.207.168-.226.526-.188.638-.226.695-.377.15-.49.206-2.205.206-4.805 0-1.451 0-3.11-.038-4.221-.018-.528-.093-.754-.262-.886-.225-.226-.45-.415-.526-.546-.093-.132-.056-.396.02-.434.243-.17 2.288-.961 2.663-1.187.17-.094.282.019.282.358 0 .17-.038.867-.038 2.808l-.018 5.408c0 .189.018.264.206.264.113 0 .394-.15.657-.396a16.544 16.544 0 0 0 1.782-1.847c.169-.207.038-.263-.075-.263h-.732c-.075 0-.131-.057-.112-.151l.112-.377c.02-.132.057-.17.17-.17.9-.056 2.25-.056 3.358-.15.056 0 .112.018.112.113 0 .075 0 .207-.094.414-.037.113-.075.151-.262.17-.45.056-.845.207-1.389.64-.469.377-.938.754-1.65 1.339-.057.037-.076.15.168.452.32.414 1.332 1.771 1.989 2.525.732.848.9 1.055 1.876 1.338.131.038.131.094.131.32 0 .283-.056.32-.15.32-.112 0-.6-.018-.938-.018a99.793 99.793 0 0 0-3.096-.057c-.075 0-.093-.019-.112-.075l-.094-.34c-.019-.131-.019-.15.038-.169.394-.113.562-.226.3-.546-.45-.566-.976-1.206-1.595-2.111-.169-.245-.3-.32-.469-.32-.113 0-.15.037-.169.188v1.432c0 .961.131 1.15.338 1.15.225 0 .563-.038.675-.038.113 0 .15.038.15.264 0 .245-.018.377-.037.471-.038.113-.075.113-.169.113-.113 0-.582-.038-1.876-.038-1.05 0-1.745.038-2.102.038-.093 0-.112-.019-.112-.113zm-7.51-.019l.169-.49c.45-.17.524-.207.562-.452.037-.226.074-1.187.074-2.412v-1.338c0-.622-.037-.66-.655-.83-.244-.075-.375-.414-.356-.546.768-.433 2.173-1.093 2.679-1.413.112-.075.187-.075.225-.075.037 0 .337.188.3.32-.076.528-.094.697-.113 1.602.318-.245 1.255-1.093 1.705-1.489a.844.844 0 0 1 .6-.226c.542 0 1.18.546 1.18 1.055 0 .528-.638 1.169-.769 1.3-.187.151-.337.189-.468.189a.456.456 0 0 1-.375-.189c-.13-.17-.543-.433-.749-.433-.281 0-.618.057-.88.283-.17.17-.225.301-.225.885v2.262c0 .433.056.98.13 1.112.038.131.076.207.263.188l1.087-.057c.112 0 .187.057.15.189l-.207.66h-2.622c-.918 0-1.518.037-1.593.037-.112 0-.13-.056-.112-.132zm-5.862-.913c.149 0 .354-.057.783-.246.15-.076.262-.19.28-.36.02-.208.038-1.116.038-1.419 0-.246-.019-.36-.094-.36-.82.152-1.157.303-1.511.53-.168.114-.261.265-.261.644 0 .624.242 1.21.765 1.21zm-.86-4.344l-1.275.395a1.72 1.72 0 0 1-.432.095c-.075 0-.337-.189-.337-.32 0-.208.112-.434.319-.698.6-.64 1.763-1.32 2.176-1.47.469-.188 1.144-.32 1.426-.32.77 0 1.407.339 1.745.716.375.396.45.754.45 1.093 0 1.394-.019 2.77-.019 3.561-.018.924.113 1.338.413 1.338.263 0 .62-.113.788-.188.075-.057.225.132.206.283l-.056.339c-.019.113-.037.132-.169.188-.3.151-1.557.566-2.42.566-.394 0-.807-.17-.9-1.037-.826.471-2.102 1.037-2.346 1.037-.394 0-.863-.245-1.182-.585a2.393 2.393 0 0 1-.544-1.507c0-.509.319-.905.9-1.206.826-.434 2.308-.83 3.228-.98.018-.49.018-.735.018-1.15 0-.565-.13-1.036-.28-1.168-.151-.17-.583-.358-1.014-.358a.76.76 0 0 0-.394.094c-.094.094-.15.434-.15 1.074 0 .113-.019.17-.15.208zm-5.97 2.148c0-.81-.3-1.715-.939-2.356-.525-.508-.975-.735-1.482-.735-.3 0-.675.113-1.05.302-.057.038-.113.264-.113.546v1.131c0 1.036.056 1.734.131 2.431.038.264.113.396.282.49.563.32 1.22.49 1.613.49.338 0 .657-.094.995-.34.262-.207.563-.847.563-1.96zm-6.83 7.801l-.15-.508c.9-.245 1.088-.32 1.22-1.131.056-.283.168-2.148.168-4.447v-1.772c0-1.243-.056-2.016-.112-2.28-.038-.17-.169-.245-.694-.339-.057 0-.244-.358-.113-.509.432-.339 1.614-1.055 2.402-1.489.15-.075.319-.075.45-.075.075.019.094.075.094.113v1.263c.563-.245 2.139-.943 2.401-.943.676 0 1.464.264 2.102.848.9.81 1.07 1.885 1.07 2.733 0 .867-.564 1.979-1.22 2.544-.45.377-1.595 1.112-2.402 1.394-.3.113-.488.151-.732.151s-.656-.038-.994-.132c-.15 0-.188.113-.188.283-.018.132-.037 1.15-.037 1.394 0 1.715.037 1.941.525 2.036.15.018.413.018.863.018.132 0 .188.038.15.17l-.094.358c-.037.17-.056.207-.3.207-.957-.018-3.602.189-4.334.189-.037 0-.056-.038-.075-.076zm-5.295-4.55l.018-.264c0-.113.019-.189.094-.226.094-.057.282-.132.413-.189.356-.17.469-.283.488-.717a76.5 76.5 0 0 0 .15-5.073c0-2.508 0-3.375-.038-4.092-.037-.622-.131-.66-1.032-.754-.075-.038-.075-.095 0-.434.02-.094.075-.132.207-.189.619-.264 1.857-.584 2.908-.98.037-.02.075-.02.094-.02.093 0 .112.076.112.152-.169 2.414-.225 5.62-.225 9.316 0 2.169.019 2.716.544 2.716.15 0 .413-.057.526-.057.168 0 .187.076.168.189-.018.094-.056.358-.093.49 0 .094-.113.094-.244.094-1.295 0-3.021.02-3.997.114-.075 0-.093 0-.093-.076zm-5.525-1.055c.149 0 .354-.057.783-.246.15-.076.262-.19.28-.36.02-.208.038-1.116.038-1.419 0-.246-.019-.36-.094-.36-.82.152-1.157.303-1.511.53-.168.114-.261.265-.261.644 0 .624.242 1.21.765 1.21zm-.86-4.344l-1.275.395a1.72 1.72 0 0 1-.432.095c-.075 0-.337-.189-.337-.32 0-.208.112-.434.319-.698.6-.64 1.763-1.32 2.176-1.47.469-.188 1.144-.32 1.426-.32.77 0 1.407.339 1.745.716.375.396.45.754.45 1.093 0 1.394-.019 2.77-.019 3.561-.018.924.113 1.338.413 1.338.263 0 .62-.113.788-.188.075-.057.225.132.206.283l-.056.339c-.019.113-.037.132-.169.188-.3.151-1.557.566-2.42.566-.394 0-.807-.17-.9-1.037-.826.471-2.102 1.037-2.346 1.037-.394 0-.863-.245-1.182-.585a2.393 2.393 0 0 1-.544-1.507c0-.509.319-.905.9-1.206.826-.434 2.308-.83 3.228-.98.018-.49.018-.735.018-1.15 0-.565-.13-1.036-.28-1.168-.151-.17-.583-.358-1.014-.358a.76.76 0 0 0-.394.094c-.094.094-.15.434-.15 1.074 0 .113-.019.17-.15.208zm-12.669 5.257l.057-.396c.6-.226.788-.263.9-.866.038-.415.057-1.583.057-2.243 0-.678-.02-1.281-.075-1.696-.02-.226-.075-.32-.807-.584-.132-.057-.207-.17-.15-.452 0-.038.075-.113.337-.226 1.07-.49 1.99-.924 2.158-1.018.094-.057.15-.075.338-.075.112 0 .187.037.187.207.02.301.038.565.038.754 0 .188.056.263.188.188.412-.245.881-.471 1.35-.716a2.151 2.151 0 0 1 1.107-.283c.582 0 .957.151 1.333.434.525.414.769 1.093.881 1.96.038.376.038 1.111.038 1.601v2.526c0 .131.019.226.075.226.169 0 .75-.057.9-.076.076 0 .113.038.113.17 0 .17-.075.509-.112.584-.038.094-.057.094-.15.094-1.783 0-2.927.076-3.49.076-.15 0-.207-.02-.263-.245l-.056-.264c.563-.226.694-.358.769-.942.094-.773.094-1.546.094-2.657 0-.98-.094-1.508-.375-1.81-.207-.226-.563-.358-.939-.358-.431 0-1.031.17-1.238.245-.112.057-.131.17-.15.641-.019.697-.019 2.827-.019 4.09 0 .357.019.376.938.621.113.038.132.076.075.208l-.13.376h-2.027c-.976 0-1.52.095-1.839.095-.075 0-.131-.057-.113-.189zm-6.027-6.765c-.375 0-.563.113-.77.32-.262.227-.506 1.093-.506 2.262 0 1.206.357 2.393.788 2.92.47.566.882.754 1.332.754.32 0 .545-.094.75-.32.282-.301.526-.942.526-2.092 0-.923-.169-2.525-.863-3.24-.319-.34-.807-.604-1.257-.604zm.6-.791c1.802 0 3.828 1.281 3.828 3.9a3.7 3.7 0 0 1-1.689 3.147c-.713.415-1.8.792-2.551.792-.882 0-2.327-.415-3.058-1.395-.47-.64-.77-1.601-.77-2.43 0-.773.282-1.715.807-2.337a4.763 4.763 0 0 1 1.37-1.037c.675-.358 1.67-.64 2.064-.64zm-8.879 3.641l-.056-1.905c0-.095-.113-.151-.844-.321-.075-.02-.113-.057-.038-.246.094-.283.113-.32.207-.34.675-.207 1.95-.528 2.72-.792.075-.019.094-.037.169-.037.056 0 .075.056.056.226-.075 1.245-.187 3.83-.187 4.812 0 .81-.02 1.188.018 1.471.02.264.094.359.338.34.432-.057.544-.057.6-.057.057 0 .15.114.15.189l-.074.566c0 .151-.057.151-.188.151-.713 0-1.445-.038-2.158-.038-.863 0-1.538.113-1.595.113-.075 0-.112-.018-.15-.094-.018-.056-.018-.283-.018-.453 0-.075.056-.094.131-.113.525-.113.807-.17.844-.698.019-.302.113-1.585.075-2.774zm1.458-7.674c.673 0 1.028.528 1.028 1.093 0 .81-.635 1.225-1.177 1.225-.523 0-1.008-.434-1.008-1.112 0-.867.71-1.206 1.157-1.206zm-6.397 2.638c.094 0 .15.075.15.32 0 .377-.075 1.3-.075 1.49.9 0 2.195-.095 2.44-.095.243 0 .262.019.262.207 0 .151-.038.509-.113.754-.037.15-.13.207-.337.207-.338.02-1.22 0-2.083.076-.113 0-.188.132-.188.339-.056 1.394-.018 2.657-.018 3.486 0 .848.619 1.3 1.182 1.3.3 0 .769-.15 1.032-.339.187-.132.225-.132.281-.019.056.151.094.283.094.415 0 .094-.038.188-.094.207-1.144.64-1.651.924-2.664.924-.507 0-1.238-.208-1.614-.735-.3-.396-.337-.773-.319-1.244.057-1.64.038-3.712.057-4.146.018-.15-.057-.188-.226-.207-.187-.057-.45-.057-.637-.076-.076-.037-.132-.301-.076-.339.45-.396 1.652-1.394 2.533-2.28.17-.188.32-.245.413-.245zm-8.545 8.038c.149 0 .354-.057.783-.246.15-.076.262-.19.28-.36.019-.208.038-1.116.038-1.419 0-.246-.019-.36-.094-.36-.82.152-1.157.303-1.511.53-.168.114-.262.265-.262.644 0 .624.243 1.21.766 1.21zm-.86-4.344l-1.275.395a1.72 1.72 0 0 1-.432.095c-.075 0-.337-.189-.337-.32 0-.208.112-.434.318-.698.6-.64 1.764-1.32 2.177-1.47.469-.188 1.144-.32 1.426-.32.77 0 1.407.339 1.745.716.375.396.45.754.45 1.093 0 1.394-.019 2.77-.019 3.561-.019.924.113 1.338.413 1.338.263 0 .62-.113.788-.188.075-.057.225.132.206.283l-.056.339c-.019.113-.037.132-.169.188-.3.151-1.557.566-2.42.566-.394 0-.807-.17-.9-1.037-.826.471-2.102 1.037-2.346 1.037-.394 0-.863-.245-1.182-.585a2.393 2.393 0 0 1-.544-1.507c0-.509.319-.905.9-1.206.826-.434 2.308-.83 3.228-.98.018-.49.018-.735.018-1.15 0-.565-.13-1.036-.281-1.168-.15-.17-.582-.358-1.013-.358a.76.76 0 0 0-.394.094c-.094.094-.15.434-.15 1.074 0 .113-.02.17-.15.208zm-17.134-6.407v-.472c.863.038 1.22.076 3.152.076.169 0 .3.019.375.075.094.076.15.17.15.264.038.32.901 1.34 1.126 1.566.957.98 3.04 3.15 6.604 6.412.057-.68.075-1.302.075-2.697 0-1.943-.037-3.168-.13-3.847-.038-.359-.076-.83-.432-.925-.207-.056-.957-.113-1.07-.15-.094-.057-.131-.076-.131-.189l-.038-.51h2.14c.693 0 1.632-.093 2.044-.093.094 0 .225.018.244.075l.113.49c-.657.208-.845.245-1.107.396-.413.246-.544.849-.657 3.15a105.534 105.534 0 0 0-.094 4.752c0 1.735.057 2.81.057 3.074 0 .321-.094.453-.657.755-.094.056-.188.038-.3-.132-.995-1.49-2.29-2.98-4.278-4.998-2.139-2.15-3.471-3.489-4.41-4.375-.018.679-.074 1.791-.093 2.885 0 .943-.038 4.017.169 4.79.15.529 1.144.698 1.538.774l.132.528c.018.056-.094.17-.15.17-.657 0-1.633-.076-2.383-.076-.638 0-1.276.038-1.557.057l-.207-.66c1.2-.264 1.238-.415 1.332-1.057.057-.433.207-2.13.207-3.922v-2.094c0-2.527-.113-2.923-.32-3.187-.337-.434-.656-.547-1.238-.679-.15-.056-.206-.094-.206-.226z"/><path id="e" d="M1130.615 635.028c.075 0 .675-.038 1.594-.038h2.627l.207-.66c.037-.131-.038-.188-.15-.188l-1.089.057c-.187.018-.225-.057-.262-.189-.075-.132-.132-.678-.132-1.112v-2.261c0-.584.057-.716.225-.886.263-.226.6-.282.882-.282.207 0 .62.263.75.433a.457.457 0 0 0 .376.188c.131 0 .281-.037.469-.188.131-.132.77-.773.77-1.3 0-.509-.639-1.056-1.183-1.056a.846.846 0 0 0-.6.227c-.45.395-1.389 1.243-1.708 1.488.02-.904.038-1.074.113-1.601.038-.132-.263-.32-.3-.32-.038 0-.113 0-.225.075-.507.32-1.914.98-2.683 1.413-.019.132.112.471.356.546.62.17.657.208.657.83v1.338c0 1.224-.038 2.185-.075 2.412-.038.245-.113.282-.563.452l-.169.49c-.019.075 0 .132.113.132zm-4.414-4.674c-.394.076-.995.208-1.989.396-.056-.942.32-2.073.676-2.337.206-.132.356-.17.45-.17.581 0 1.088.83 1.088 1.734 0 .208-.075.32-.225.377zm-2.083-2.336c-1.294.791-2.195 2.035-2.195 3.693 0 1.055.47 1.885.807 2.3.281.338 1.126 1.149 2.664 1.149.282 0 .6-.02.844-.095.657-.207 1.464-.603 2.44-1.375.15-.113.225-.245.262-.848 0-.113-.244-.113-.413.019-.619.546-1.332.885-2.232.885-1.164 0-2.027-.904-2.027-1.978 0-.264.057-.302.132-.32.713-.19 3.508-.717 4.184-.962.244-.094.431-.47.487-.66.02-.075.02-.15-.056-.207-.056-.075-.187-.056-.506 0a3.466 3.466 0 0 0-.901-1.545c-.431-.396-1.2-.64-1.82-.64-.431 0-1.088.226-1.67.584zm-6.496 2.336c-.394.076-.995.208-1.989.396-.056-.942.319-2.073.675-2.337.207-.132.357-.17.45-.17.582 0 1.089.83 1.089 1.734 0 .208-.075.32-.225.377zm-2.083-2.336c-1.294.791-2.195 2.035-2.195 3.693 0 1.055.47 1.885.807 2.3.281.338 1.126 1.149 2.664 1.149.282 0 .6-.02.844-.095.657-.207 1.464-.603 2.44-1.375.15-.113.225-.245.262-.848 0-.113-.244-.113-.413.019-.619.546-1.332.885-2.232.885-1.164 0-2.027-.904-2.027-1.978 0-.264.057-.302.132-.32.713-.19 3.508-.717 4.184-.962.244-.094.431-.47.487-.66.02-.075.02-.15-.056-.207-.056-.075-.187-.056-.506 0a3.466 3.466 0 0 0-.901-1.545c-.432-.396-1.2-.64-1.82-.64-.431 0-1.088.226-1.67.584zm-8.635 6.294c-.788-.17-.882-.17-.92-.453-.112-.998-.074-2.977-.074-4.108 0-.188.037-.32.206-.414.375-.208.976-.396 1.295-.396.206 0 .544.075.806.34.32.3.47.772.47 2.223 0 .509 0 1.809-.076 2.45-.037.339-.131.47-.506.64-.094.038-.094.095-.094.189.037.075.075.282.112.358.02.037.132.037.188.037.488-.037 1.22-.094 2.364-.094h1.107c.056-.019.131-.32.131-.47 0-.095-.037-.114-.13-.133-.376-.132-.733-.282-.901-.452-.076-.075-.113-.32-.113-.942 0-.81 0-1.696-.019-2.638-.019-1.847-.413-2.186-.732-2.507-.281-.282-.825-.433-1.125-.433-.45 0-.845.15-1.22.282-.413.189-.92.49-1.932 1.112-.488-.867-1.089-1.432-2.083-1.432-.225 0-.45.075-.675.17-.544.207-1.182.678-1.952 1.187l.038-1.3c0-.151-.056-.189-.169-.189-.244 0-.319.019-.563.132-.263.132-.9.584-2.27 1.3-.038.038.019.264.056.34.057.113.132.188.338.245.413.113.431.131.469.301.019.189.038.603.038 1.489 0 1.319 0 2.299-.076 2.751-.037.15-.112.264-.225.32a3.687 3.687 0 0 1-.544.283c-.019.132-.019.565.057.603.412-.038.881-.094 1.876-.094.488 0 1.595-.019 1.763-.019.038 0 .075-.34.075-.452 0-.113-.018-.151-.15-.189-.638-.207-.694-.282-.694-2.45 0-.64 0-1.809.056-2.167.02-.188.132-.339.3-.452.45-.282.845-.377 1.22-.377.394 0 .732.151.92.34.187.263.28.621.28 1.601 0 1.169 0 2.224-.112 3.072-.018.207-.056.264-.675.546-.056.038-.113.076-.113.113 0 .095-.018.34-.018.453 0 .056 0 .056.056.056.994-.075 2.683-.075 4.053-.075v-.509c0-.113-.038-.17-.113-.188zm-19.123.762c.319 0 .863-.094 1.838-.094h2.027l.13-.376c.057-.132.038-.17-.074-.207-.92-.245-.938-.264-.938-.621 0-1.261 0-3.388.019-4.084.018-.47.037-.584.15-.64.206-.075.806-.245 1.238-.245.375 0 .732.132.938.358.281.3.375.828.375 1.807 0 1.11 0 1.882-.094 2.653-.075.584-.206.715-.769.941l.056.264c.057.225.113.244.263.244.563 0 1.708-.075 3.49-.075.094 0 .113 0 .15-.094.038-.075.113-.414.113-.584 0-.131-.038-.169-.113-.169a13.4 13.4 0 0 1-.9.075c-.057 0-.076-.094-.076-.225v-2.522c0-.49 0-1.224-.037-1.6-.113-.866-.357-1.543-.882-1.957-.375-.283-.75-.433-1.332-.433-.45 0-.75.094-1.107.282-.47.245-.938.47-1.35.715-.132.076-.189 0-.189-.188s-.018-.452-.037-.753c0-.17-.075-.207-.188-.207-.187 0-.244.019-.337.075-.17.095-1.089.527-2.158 1.017-.263.113-.338.188-.338.226-.056.282.019.395.15.451.732.264.788.358.807.584.056.414.075 1.016.075 1.694 0 .658-.019 1.825-.056 2.24-.113.601-.3.639-.9.865l-.057.395c-.019.132.037.188.113.188zm-4.227-4.72c-.394.076-.994.208-1.988.396-.057-.942.319-2.073.675-2.337.206-.132.356-.17.45-.17.582 0 1.089.83 1.089 1.734 0 .208-.076.32-.226.377zm-2.082-2.336c-1.295.791-2.195 2.035-2.195 3.693 0 1.055.469 1.885.806 2.3.282.338 1.126 1.149 2.665 1.149.281 0 .6-.02.844-.095.657-.207 1.463-.603 2.439-1.375.15-.113.225-.245.263-.848 0-.113-.244-.113-.413.019-.62.546-1.332.885-2.233.885-1.163 0-2.026-.904-2.026-1.978 0-.264.056-.302.131-.32.713-.19 3.509-.717 4.184-.962.244-.094.432-.47.488-.66.019-.075.019-.15-.056-.207-.057-.075-.188-.056-.507 0a3.466 3.466 0 0 0-.9-1.545c-.432-.396-1.201-.64-1.82-.64-.432 0-1.089.226-1.67.584zm-6.534-1.828c-.882.887-2.083 1.886-2.533 2.283-.056.037 0 .301.075.34.188.018.45.018.638.075.169.018.244.056.225.207-.019.434 0 2.51-.056 4.15-.019.472.018.85.319 1.245.375.529 1.107.736 1.613.736 1.013 0 1.52-.283 2.664-.924.057-.02.094-.113.094-.208a1.18 1.18 0 0 0-.094-.415c-.056-.113-.093-.113-.28.02-.264.188-.733.339-1.033.339-.563 0-1.182-.453-1.182-1.302 0-.83-.037-2.094.019-3.49 0-.207.075-.34.187-.34.864-.075 1.745-.056 2.083-.075.206 0 .3-.057.338-.207a3.2 3.2 0 0 0 .112-.755c0-.189-.018-.208-.262-.208-.244 0-1.539.095-2.44.095 0-.189.076-1.113.076-1.49 0-.246-.057-.321-.15-.321-.094 0-.244.056-.413.245zm-6.67 0c-.88.887-2.079 1.886-2.528 2.283-.057.037 0 .301.075.34.187.018.45.018.636.075.169.018.244.056.225.207-.019.434 0 2.51-.056 4.15-.019.472.019.85.318 1.245.375.529 1.105.736 1.611.736 1.011 0 1.517-.283 2.66-.924.056-.02.093-.113.093-.208a1.2 1.2 0 0 0-.093-.415c-.057-.113-.094-.113-.281.02-.262.188-.73.339-1.03.339-.562 0-1.18-.453-1.18-1.302 0-.83-.038-2.094.018-3.49 0-.207.075-.34.188-.34.861-.075 1.742-.056 2.079-.075.206 0 .3-.057.337-.207a3.2 3.2 0 0 0 .112-.755c0-.189-.019-.208-.262-.208-.244 0-1.536.095-2.435.095 0-.189.075-1.113.075-1.49 0-.246-.056-.321-.15-.321-.093 0-.243.056-.412.245zm-8.893 6.576c0-.376.093-.527.262-.64.357-.226.694-.377 1.52-.528.075 0 .094.113.094.358 0 .302-.019 1.206-.038 1.413-.019.17-.131.283-.281.358-.432.189-.638.245-.788.245-.526 0-.77-.584-.77-1.206zm.056-3.335c0-.64.056-.98.15-1.074a.76.76 0 0 1 .394-.094c.431 0 .863.188 1.013.358.15.132.282.603.282 1.168 0 .415 0 .66-.02 1.15-.919.15-2.4.546-3.226.98-.582.3-.9.697-.9 1.205 0 .754.374 1.32.543 1.508.32.34.788.584 1.182.584.244 0 1.52-.565 2.345-1.036.094.867.507 1.036.901 1.036.863 0 2.12-.414 2.42-.565.132-.057.15-.076.17-.189l.056-.339c.018-.15-.132-.339-.207-.282-.169.075-.525.188-.788.188-.3 0-.431-.415-.413-1.338 0-.791.02-2.167.02-3.562 0-.339-.076-.697-.451-1.093-.338-.376-.976-.716-1.745-.716-.281 0-.957.132-1.426.32-.413.151-1.576.83-2.176 1.47-.207.264-.32.49-.32.698 0 .132.263.32.338.32.038 0 .207-.019.432-.094l1.276-.396c.131-.037.15-.094.15-.207zm-14.92 5.898c.243 0 .412 0 .525-.019.056-.018.13-.075.225-.301.319-.735.544-1.282.806-1.885.939-2.167 1.99-4.466 2.327-5.22.732 1.715 1.595 4.335 1.951 5.277.32.867.488 1.394.6 1.734.076.263.17.414.432.414.132 0 .45-.056.526-.264.394-.942.75-1.62.956-2.148 1.089-2.695 2.515-6.275 3.059-7.425.806-1.714.788-1.96 1.95-2.072.095 0 .113-.038.095-.151l-.038-.245c-.056-.207-.281-.226-.431-.226-.3.019-.676.037-1.464.037-.638 0-1.839-.075-2.026-.075-.15 0-.207.32-.207.509 0 .113.02.132.113.15.169.057.394.095.863.17.244.038.432.132.432.302 0 1.13-2.327 6.878-2.74 7.67-.037.056-.168.094-.187.037-1.126-2.582-1.97-5.126-2.72-7.293-.226-.64-.226-.754.806-.885.075-.076-.075-.585-.225-.641-.225-.019-1.05.056-2.045.056-1.22 0-1.614-.037-2.083-.037-.206 0-.338.094-.394.546-.019.132.038.15.094.15.826.039.994.133 1.2.547.188.34.3.698.883 2.3a.719.719 0 0 1-.02.527c-.562 1.395-1.594 4.033-1.988 4.824-.056.094-.169 0-.206-.075-1.089-2.431-1.933-4.41-2.796-6.671a7.641 7.641 0 0 1-.281-.942c-.075-.32.056-.396.806-.471.132-.02.17-.038.17-.151 0-.113-.076-.584-.282-.584-.826 0-1.632.037-2.458.037-.488 0-1.407-.037-1.707-.037-.207 0-.376.056-.432.17-.037.075-.131.225-.15.357 0 .151.075.17.188.189.975.17 1.125.339 1.745 1.847 1.332 3.165 2.345 5.728 2.926 7.142.563 1.394.863 2.355.995 2.638.056.15.112.188.206.188z"/></defs><use fill="#92b248" xlink:href="#a" transform="translate(-1031 -592)"/><use fill="#ead63e" xlink:href="#b" transform="translate(-1031 -592)"/><use fill="#5d7695" xlink:href="#c" transform="translate(-1031 -592)"/><use xlink:href="#d" transform="translate(-1031 -592)"/><use xlink:href="#e" transform="translate(-1031 -592)"/></svg>
