<svg xmlns="http://www.w3.org/2000/svg" viewBox="0 0 104 83.196">
  <path id="Icon_awesome-people-carry" data-name="Icon awesome-people-carry" d="M20.8,15.6A7.8,7.8,0,1,0,13,7.8,7.8,7.8,0,0,0,20.8,15.6Zm62.4,0a7.8,7.8,0,1,0-7.8-7.8A7.8,7.8,0,0,0,83.2,15.6Zm20.425,60.463-7.15-17.874-6.678,7.54-.325,2.957,4.5,11.244A5.2,5.2,0,0,0,98.8,83.2a5.052,5.052,0,0,0,1.934-.374A5.2,5.2,0,0,0,103.623,76.063ZM98.066,41.972,95.059,28.94a10.531,10.531,0,0,0-6.093-7.3,10.026,10.026,0,0,0-9.116.536,17.8,17.8,0,0,0-7.816,9.652L70.2,37.341,67.6,39V23.4A2.608,2.608,0,0,0,65,20.8H39a2.608,2.608,0,0,0-2.6,2.6V39l-2.616-1.657-1.836-5.508a17.676,17.676,0,0,0-7.816-9.652,10.029,10.029,0,0,0-9.116-.536,10.531,10.531,0,0,0-6.093,7.3L5.932,41.972a10.411,10.411,0,0,0,2.34,9.213L19.192,63.518l1.641,15.047A5.2,5.2,0,0,0,26,83.2c.195,0,.374-.016.569-.032a5.192,5.192,0,0,0,4.6-5.736L29.526,62.348a10.385,10.385,0,0,0-2.535-5.687L19.955,48.7l2.86-11.423,1.1,3.315a10.509,10.509,0,0,0,3.981,5.3l8.3,5.281A6.918,6.918,0,0,0,39,51.981H65a6.918,6.918,0,0,0,2.795-.812l8.3-5.281a10.443,10.443,0,0,0,3.981-5.3l1.1-3.315L84.042,48.7l-7.036,7.962a10.385,10.385,0,0,0-2.535,5.687L72.83,77.428a5.2,5.2,0,0,0,4.6,5.736c.195.016.374.032.569.032a5.2,5.2,0,0,0,5.167-4.631l1.641-15.047L95.726,51.185a10.458,10.458,0,0,0,2.34-9.213ZM7.525,58.189.375,76.063a5.2,5.2,0,0,0,9.652,3.867l4.5-11.244L14.2,65.728l-6.678-7.54Z" transform="translate(0.001)" fill="currentColor"/>
</svg>
