<svg xmlns="http://www.w3.org/2000/svg" viewBox="0 0 36.166 34">
  <path id="Icon_awesome-snapchat-ghost" data-name="Icon awesome-snapchat-ghost" d="M36.084,27.732c-.368.859-1.924,1.49-4.758,1.93a13.248,13.248,0,0,0-.46,1.692.818.818,0,0,1-.857.626h-.021c-.664,0-1.356-.305-2.744-.305a5.59,5.59,0,0,0-3.974,1.454,7.956,7.956,0,0,1-5.229,1.935c-2.235.165-4.1-1.194-5.147-1.936a5.584,5.584,0,0,0-3.973-1.454,26.679,26.679,0,0,0-2.744.333A.838.838,0,0,1,5.3,31.37a13.085,13.085,0,0,0-.461-1.7C3.379,29.438.085,28.864,0,27.394a.751.751,0,0,1,.627-.782c4.915-.809,7.129-5.856,7.221-6.07.005-.012.011-.024.017-.036a1.606,1.606,0,0,0,.174-1.325c-.357-.84-1.9-1.142-2.547-1.4-1.675-.662-1.908-1.422-1.809-1.943a1.818,1.818,0,0,1,2.331-1.092,4.042,4.042,0,0,0,1.663.445,1.442,1.442,0,0,0,.7-.153c-.144-2.538-.5-6.166.4-8.192a9.624,9.624,0,0,1,8.934-5.764l.714-.006a9.557,9.557,0,0,1,8.951,5.767c.9,2.024.547,5.636.4,8.194a1.384,1.384,0,0,0,.607.151,4.22,4.22,0,0,0,1.559-.442,1.912,1.912,0,0,1,1.447,0h0a1.467,1.467,0,0,1,1.1,1.262c.013.688-.6,1.283-1.828,1.767-.15.059-.332.117-.525.178-.692.219-1.738.551-2.021,1.22a1.6,1.6,0,0,0,.174,1.324c.006.012.012.024.017.036.092.214,2.3,5.26,7.221,6.07A.771.771,0,0,1,36.084,27.732Z" transform="translate(0 -1.078)" fill="currentColor"/>
</svg>
