<svg xmlns="http://www.w3.org/2000/svg" viewBox="0 0 104 83.199">
  <path id="Icon_awesome-solar-panel" data-name="Icon awesome-solar-panel" d="M70.2,72.8l-7.8.008V67.6H41.6v5.234l-7.8.008a2.6,2.6,0,0,0-2.6,2.6L31.2,80.6a2.6,2.6,0,0,0,2.6,2.6L70.2,83.157a2.6,2.6,0,0,0,2.6-2.6L72.8,75.4a2.6,2.6,0,0,0-2.6-2.6Zm24.9-68.456A5.268,5.268,0,0,0,89.872,0H14.126A5.268,5.268,0,0,0,8.9,4.345C-.539,59.988.007,56.563.005,57.2a5.251,5.251,0,0,0,5.3,5.2H98.7a5.251,5.251,0,0,0,5.3-5.166c0-.663.544,2.754-8.9-52.889ZM42.222,10.4H61.776L63.364,26H40.635ZM30.007,52H11.552l3.089-18.2h17.22Zm2.647-26H15.964l2.647-15.6H34.242Zm5.333,26L39.84,33.8H64.158L66.011,52ZM69.756,10.4H85.387L88.034,26H71.344ZM73.991,52,72.138,33.8h17.22L92.448,52H73.991Z" transform="translate(0)" fill="currentColor"/>
</svg>
