<svg xmlns="http://www.w3.org/2000/svg" viewBox="0 0 825.73 793.21"><g id="Ebene_2" data-name="Ebene 2"><g id="Ebene_1-2" data-name="Ebene 1"><path d="M384.93,281.21H353c0,1,.05,2,.05,3a95.49,95.49,0,0,1-3.87,27c-.39,1.35-.82,2.68-1.27,4a96,96,0,0,1-16.8,30h38.47A126.67,126.67,0,0,0,380.72,317c.16-.59.31-1.18.46-1.78.33-1.33.64-2.66.92-4A128.83,128.83,0,0,0,384.93,281.21ZM380.72,317a126.67,126.67,0,0,1-11.15,28.22h23L395.41,317Zm0,0a126.67,126.67,0,0,1-11.15,28.22h23L395.41,317Zm390.21-9a32.42,32.42,0,0,0-32.14-26.74H272.66A32.42,32.42,0,0,0,240.52,308c-.26,1.53-.52,3.06-.78,4.57-.51,3-1,6-1.53,9q-1.53,9-3,17.75-.57,3.36-1.13,6.68l-.57,3.35c-.14.81-.27,1.62-.41,2.43q-.9,5.29-1.78,10.46c-.36,2.12-.71,4.23-1.07,6.32l-.6,3.55c-.22,1.32-.45,2.63-.67,3.94s-.47,2.75-.7,4.12c0,.25-.09.49-.13.74q-2.37,13.94-4.56,26.85c-.51,3-1,6-1.52,9q-.57,3.38-1.14,6.69c-.11.67-.23,1.35-.34,2q-.54,3.15-1.06,6.24-1.91,11.22-3.67,21.59h0c-.06.33-.11.66-.17,1-.27,1.61-.54,3.19-.81,4.77s-.49,2.92-.73,4.36l-.36,2.08c-.29,1.72-.58,3.43-.87,5.12-.12.74-.25,1.47-.37,2.2-.2,1.16-.39,2.31-.59,3.45q-.82,4.94-1.64,9.64c0,.14,0,.28-.07.42-.21,1.27-.42,2.52-.64,3.76-.35,2.07-.69,4.11-1,6.12q-.24,1.44-.48,2.85c-.17,1-.35,2-.52,3.06-.11.66-.22,1.32-.34,2-.32,1.93-.65,3.84-1,5.71-.21,1.25-.42,2.48-.63,3.7q-.51,3-1,6c-.14.81-.27,1.61-.41,2.4q-.48,2.88-1,5.67a0,0,0,0,1,0,0c-.28,1.69-.57,3.35-.85,5a.59.59,0,0,1,0,.14q-.54,3.2-1.06,6.24c-.06.39-.13.78-.2,1.17q-.56,3.29-1.09,6.41c-.16,1-.33,2-.5,2.92-.32,1.92-.63,3.79-.95,5.62-.15.91-.3,1.82-.46,2.71s-.3,1.78-.45,2.65c-.22,1.31-.44,2.59-.65,3.85s-.38,2.23-.57,3.32c0,.28-.09.55-.13.82-.12.67-.23,1.32-.34,2-1.11,6.57-2.1,12.42-3,17.65-.12.74-.25,1.47-.37,2.18-.21,1.25-.42,2.46-.62,3.64-.14.82-.27,1.62-.4,2.41-.07.42-.14.84-.22,1.26-.13.83-.27,1.64-.41,2.43-.27,1.58-.52,3.08-.76,4.51s-.47,2.78-.68,4.07-.4,2.37-.58,3.46l0,.18c-.1.57-.19,1.13-.28,1.67,0,.1,0,.2-.05.3-.06.34-.11.68-.17,1-.12.72-.24,1.4-.35,2.06-.06.37-.11.72-.17,1.07l-.12.71q-.19,1.16-.36,2.19c-.33,2-.59,3.6-.8,4.93,0,.26-.08.5-.12.74-.23,1.44-.39,2.49-.5,3.28,0,.12,0,.23,0,.34s-.06.44-.08.62,0,.34-.06.49,0,.07,0,.1a8.6,8.6,0,0,0,0,1.59c0,17.32,14.29,32,32.6,32H793.1c18.23,0,32.51-14.56,32.59-31.79C825.71,629.34,829,650.37,770.93,308Zm-205,37.26,9.77,96H435.79l.36-3.53.61-6,2-19.22,6.84-67.26Zm-195.5,256H256.82l11-64.8,8-47.2h106Zm16.29-160H284L288.76,413l.85-5,6.09-35.88,4.56-26.86h96.19l-8.7,85.53Zm32.82,160,11.4-112H580.55l11.4,112Zm195.5-256h96.19l16.29,96H624.77Zm26.06,256-11.4-112h106l19,112ZM380.72,317a126.67,126.67,0,0,1-11.15,28.22h23L395.41,317Zm4.21-35.78H353c0,1,.05,2,.05,3a95.49,95.49,0,0,1-3.87,27c-.39,1.35-.82,2.68-1.27,4a96,96,0,0,1-16.8,30h38.47A126.67,126.67,0,0,0,380.72,317c.16-.59.31-1.18.46-1.78.33-1.33.64-2.66.92-4A128.83,128.83,0,0,0,384.93,281.21Zm0,0H353c0,1,.05,2,.05,3a95.49,95.49,0,0,1-3.87,27c-.39,1.35-.82,2.68-1.27,4a96,96,0,0,1-16.8,30h38.47A126.67,126.67,0,0,0,380.72,317c.16-.59.31-1.18.46-1.78.33-1.33.64-2.66.92-4A128.83,128.83,0,0,0,384.93,281.21Zm232.78,448-48,0V697.21h-128v32.21l-48,.05a16,16,0,0,0-16,16l0,31.73a16,16,0,0,0,16,16l224-.26a16,16,0,0,0,16-16l0-31.73A16,16,0,0,0,617.71,729.22Z"/><path d="M256,160a96,96,0,0,0-50.9,177.34q2.81-16.56,5.84-34.41a62.24,62.24,0,0,1,61.72-51.72h79.22A96.17,96.17,0,0,0,256,160Zm0,0a96,96,0,0,0-50.9,177.34q2.81-16.56,5.84-34.41a62.24,62.24,0,0,1,61.72-51.72h79.22A96.17,96.17,0,0,0,256,160Zm0,0a96,96,0,0,0-50.9,177.34q2.81-16.56,5.84-34.41a62.24,62.24,0,0,1,61.72-51.72h79.22A96.17,96.17,0,0,0,256,160Zm246.4,80.5-94.7-47.3L441.2,92.8c4.5-13.6-8.4-26.5-21.9-21.9L318.9,104.4,271.5,9.6a17.31,17.31,0,0,0-31,0l-47.3,94.7L92.7,70.8c-13.6-4.5-26.5,8.4-21.9,21.9l33.5,100.4L9.6,240.5a17.31,17.31,0,0,0,0,31l94.7,47.3L70.8,419.3c-4.5,13.6,8.4,26.5,21.9,21.9l100.4-33.5,0,.07,6.27-37a128,128,0,1,1,184.42-119.6H511.32A17,17,0,0,0,502.4,240.5ZM256,160a96,96,0,0,0-50.9,177.34q2.81-16.56,5.84-34.41a62.24,62.24,0,0,1,61.72-51.72h79.22A96.17,96.17,0,0,0,256,160Zm0,0a96,96,0,0,0-50.9,177.34q2.81-16.56,5.84-34.41a62.24,62.24,0,0,1,61.72-51.72h79.22A96.17,96.17,0,0,0,256,160Zm0,0a96,96,0,0,0-50.9,177.34q2.81-16.56,5.84-34.41a62.24,62.24,0,0,1,61.72-51.72h79.22A96.17,96.17,0,0,0,256,160Zm0,0a96,96,0,0,0-50.9,177.34q2.81-16.56,5.84-34.41a62.24,62.24,0,0,1,61.72-51.72h79.22A96.17,96.17,0,0,0,256,160Zm0,0a96,96,0,0,0-50.9,177.34q2.81-16.56,5.84-34.41a62.24,62.24,0,0,1,61.72-51.72h79.22A96.17,96.17,0,0,0,256,160Z"/></g></g></svg>