<svg xmlns="http://www.w3.org/2000/svg" viewBox="0 0 535.096 273.937">
  <g id="Gruppe_67" data-name="Gruppe 67" transform="translate(-1074.081 -239)">
    <g id="Gruppe_1" data-name="Gruppe 1" transform="translate(1226.526 403.266)">
      <path id="Pfad_1" data-name="Pfad 1" d="M1210.165,441.817V393.762h8.789l.257,7.635-1.668-.579a7.557,7.557,0,0,1,2.215-3.785,13.636,13.636,0,0,1,4.394-2.823,14.272,14.272,0,0,1,5.518-1.09,14.061,14.061,0,0,1,7.893,2.277,15.793,15.793,0,0,1,5.453,6.225,21.636,21.636,0,0,1,0,18.125,15.727,15.727,0,0,1-5.453,6.255,14.052,14.052,0,0,1-7.893,2.278,14.3,14.3,0,0,1-5.614-1.124,13.608,13.608,0,0,1-4.491-2.983,8.568,8.568,0,0,1-2.342-3.979l2.118-.9v22.52Zm17.451-21.364a8.1,8.1,0,0,0,4.427-1.22,8.282,8.282,0,0,0,3.015-3.432,11.383,11.383,0,0,0,1.091-5.1,11.176,11.176,0,0,0-1.091-5.068,8.417,8.417,0,0,0-2.983-3.4,8.055,8.055,0,0,0-4.459-1.22,8.39,8.39,0,0,0-4.492,1.188,8.055,8.055,0,0,0-3.015,3.4,12.465,12.465,0,0,0,0,10.2,8,8,0,0,0,7.506,4.653Z" transform="translate(-1206.122 -380.159)" fill="#333"/>
      <path id="Pfad_2" data-name="Pfad 2" d="M1259.437,428.352a13.282,13.282,0,0,1-7.636-2.309,16.16,16.16,0,0,1-5.39-6.288,20.111,20.111,0,0,1-1.989-9.112,19.826,19.826,0,0,1,2.022-9.11,15.734,15.734,0,0,1,5.484-6.225,14.2,14.2,0,0,1,7.893-2.245,13.667,13.667,0,0,1,4.587.738,12.122,12.122,0,0,1,3.657,2.021,12.969,12.969,0,0,1,2.663,2.952,11.165,11.165,0,0,1,1.539,3.593l-1.924-.321V393.77h9.046v33.94h-9.174v-8.147l2.052-.193a10.911,10.911,0,0,1-1.667,3.4,12.935,12.935,0,0,1-2.856,2.855,14.312,14.312,0,0,1-3.816,1.988A13.558,13.558,0,0,1,1259.437,428.352Zm2.5-7.891a8.209,8.209,0,0,0,4.491-1.22,8.076,8.076,0,0,0,2.984-3.433,11.862,11.862,0,0,0,1.058-5.165,11.5,11.5,0,0,0-1.058-5.068,8.332,8.332,0,0,0-2.984-3.432,8.056,8.056,0,0,0-4.491-1.251,7.789,7.789,0,0,0-4.4,1.251,8.633,8.633,0,0,0-2.983,3.432,11.162,11.162,0,0,0-1.092,5.068,11.514,11.514,0,0,0,1.092,5.165,8.357,8.357,0,0,0,2.983,3.433A7.935,7.935,0,0,0,1261.939,420.461Z" transform="translate(-1200.987 -380.168)" fill="#333"/>
      <path id="Pfad_3" data-name="Pfad 3" d="M1280.076,402.946V394.8h22.456v8.147Zm6.352,25.793V386.2h9.111v42.538Z" transform="translate(-1195.641 -381.197)" fill="#333"/>
      <path id="Pfad_4" data-name="Pfad 4" d="M1320.855,428.36a19.926,19.926,0,0,1-9.655-2.245,16.171,16.171,0,0,1-6.417-6.16,17.539,17.539,0,0,1-2.278-8.982,19.7,19.7,0,0,1,1.284-7.25,17.1,17.1,0,0,1,3.593-5.678,15.988,15.988,0,0,1,5.486-3.721,17.852,17.852,0,0,1,6.9-1.316,15.915,15.915,0,0,1,6.416,1.283,15.366,15.366,0,0,1,5.1,3.561,15.706,15.706,0,0,1,3.3,5.39,17.3,17.3,0,0,1,1.026,6.7l-.063,2.823H1308.28l-1.477-5.582h21.238l-1.027,1.155v-1.411a5.987,5.987,0,0,0-1.123-3.113,7.134,7.134,0,0,0-2.534-2.18,7.385,7.385,0,0,0-3.464-.8,9.7,9.7,0,0,0-4.781,1.09,7.128,7.128,0,0,0-2.983,3.209,11.678,11.678,0,0,0-1.027,5.132,10.351,10.351,0,0,0,1.315,5.325,9.035,9.035,0,0,0,3.722,3.5,12.151,12.151,0,0,0,5.677,1.251,11.474,11.474,0,0,0,4.107-.706,14.707,14.707,0,0,0,3.978-2.438l4.363,6.1a18.559,18.559,0,0,1-4.105,2.791,21.983,21.983,0,0,1-4.62,1.7A19.751,19.751,0,0,1,1320.855,428.36Z" transform="translate(-1192.278 -380.176)" fill="#333"/>
      <path id="Pfad_5" data-name="Pfad 5" d="M1337.156,427.71V393.77h8.724l.258,6.929-1.8.77a10.375,10.375,0,0,1,2.535-4.2,14.09,14.09,0,0,1,4.394-3.047,12.973,12.973,0,0,1,5.389-1.155,12.453,12.453,0,0,1,6.448,1.54,9.5,9.5,0,0,1,3.914,4.651,19.72,19.72,0,0,1,1.315,7.668V427.71h-9.111V407.628a10.06,10.06,0,0,0-.641-3.85,4.337,4.337,0,0,0-1.957-2.245,6.333,6.333,0,0,0-3.24-.642,8.223,8.223,0,0,0-2.856.482,6.286,6.286,0,0,0-2.246,1.379,6.949,6.949,0,0,0-1.476,2.053,5.775,5.775,0,0,0-.546,2.5v20.4h-9.11Z" transform="translate(-1187.085 -380.168)" fill="#333"/>
      <path id="Pfad_6" data-name="Pfad 6" d="M1383.666,428.352a21.352,21.352,0,0,1-8.438-1.572,15.109,15.109,0,0,1-5.936-4.331l5.71-4.876a11.327,11.327,0,0,0,4.364,3.047,13.594,13.594,0,0,0,4.876.93,6.511,6.511,0,0,0,1.765-.224,4.344,4.344,0,0,0,1.379-.642,2.657,2.657,0,0,0,.865-1.027,3.018,3.018,0,0,0,.29-1.316,2.474,2.474,0,0,0-1.155-2.181,11.913,11.913,0,0,0-1.99-.866q-1.347-.481-3.464-1.059a28.529,28.529,0,0,1-5.55-1.957,12.7,12.7,0,0,1-3.625-2.534,10.065,10.065,0,0,1-1.765-2.919,9.612,9.612,0,0,1-.608-3.5,8.661,8.661,0,0,1,1.027-4.2,9.816,9.816,0,0,1,2.854-3.239,14.055,14.055,0,0,1,4.2-2.085,16.75,16.75,0,0,1,5-.738,20.6,20.6,0,0,1,5.134.642,19.759,19.759,0,0,1,4.651,1.828,16.709,16.709,0,0,1,3.753,2.791l-4.877,5.39a16.354,16.354,0,0,0-2.6-1.989,14.043,14.043,0,0,0-2.983-1.411,8.833,8.833,0,0,0-2.76-.514,9.014,9.014,0,0,0-1.958.193,3.869,3.869,0,0,0-1.443.609,2.75,2.75,0,0,0-.867.995,2.84,2.84,0,0,0-.289,1.282,2.765,2.765,0,0,0,.354,1.349,3.23,3.23,0,0,0,.994,1.09,17.112,17.112,0,0,0,2.087.9q1.377.514,3.752,1.155a31.234,31.234,0,0,1,5.229,1.86,11.575,11.575,0,0,1,3.432,2.373,7.283,7.283,0,0,1,1.6,2.631,9.877,9.877,0,0,1,.514,3.273,9.288,9.288,0,0,1-1.763,5.582,12,12,0,0,1-4.846,3.85A16.439,16.439,0,0,1,1383.666,428.352Z" transform="translate(-1182.266 -380.168)" fill="#333"/>
      <path id="Pfad_7" data-name="Pfad 7" d="M1414.247,428.352a16.5,16.5,0,0,1-14.788-8.6,19.585,19.585,0,0,1,0-18.094,16.5,16.5,0,0,1,14.788-8.6,20.439,20.439,0,0,1,8.341,1.669,14.018,14.018,0,0,1,5.9,4.619l-5,6.031a10.563,10.563,0,0,0-2.245-2.214,11.66,11.66,0,0,0-2.92-1.572,9.331,9.331,0,0,0-3.24-.578,8.651,8.651,0,0,0-4.652,1.252,8.776,8.776,0,0,0-3.175,3.431,10.53,10.53,0,0,0-1.155,5,10.023,10.023,0,0,0,1.187,4.877,9.178,9.178,0,0,0,3.24,3.465,8.522,8.522,0,0,0,4.62,1.283,10.729,10.729,0,0,0,3.144-.45,9.266,9.266,0,0,0,2.791-1.411,12.96,12.96,0,0,0,2.406-2.31l4.941,6.031a14.867,14.867,0,0,1-6,4.458A20.167,20.167,0,0,1,1414.247,428.352Z" transform="translate(-1178.075 -380.168)" fill="#333"/>
      <path id="Pfad_8" data-name="Pfad 8" d="M1429.439,429.383V381.9h8.982v20.468l-1.8.769a10.376,10.376,0,0,1,2.535-4.2,14.088,14.088,0,0,1,4.394-3.047,12.978,12.978,0,0,1,5.391-1.155,12.46,12.46,0,0,1,6.448,1.54,9.5,9.5,0,0,1,3.913,4.652,19.7,19.7,0,0,1,1.316,7.667v20.787h-9.111V409.3a10.091,10.091,0,0,0-.64-3.85,4.331,4.331,0,0,0-1.959-2.245,6.325,6.325,0,0,0-3.239-.641,8.224,8.224,0,0,0-2.856.482,6.271,6.271,0,0,0-2.245,1.379,6.96,6.96,0,0,0-1.476,2.053,5.77,5.77,0,0,0-.545,2.5v20.4h-9.111Z" transform="translate(-1173.248 -381.841)" fill="#333"/>
      <path id="Pfad_9" data-name="Pfad 9" d="M1477.149,428.352a13.281,13.281,0,0,1-7.636-2.309,16.152,16.152,0,0,1-5.389-6.288,20.1,20.1,0,0,1-1.99-9.112,19.829,19.829,0,0,1,2.022-9.11,15.744,15.744,0,0,1,5.484-6.225,14.2,14.2,0,0,1,7.893-2.245,13.67,13.67,0,0,1,4.588.738,12.124,12.124,0,0,1,3.657,2.021,13,13,0,0,1,2.663,2.952,11.148,11.148,0,0,1,1.539,3.593l-1.924-.321V393.77h9.046v33.94h-9.175v-8.147l2.053-.193a10.96,10.96,0,0,1-1.667,3.4,12.94,12.94,0,0,1-2.855,2.855,14.33,14.33,0,0,1-3.816,1.988A13.553,13.553,0,0,1,1477.149,428.352Zm2.5-7.891a8.212,8.212,0,0,0,4.49-1.22,8.067,8.067,0,0,0,2.983-3.433,11.82,11.82,0,0,0,1.059-5.165,11.456,11.456,0,0,0-1.059-5.068,8.323,8.323,0,0,0-2.983-3.432,8.059,8.059,0,0,0-4.49-1.251,7.786,7.786,0,0,0-4.4,1.251,8.634,8.634,0,0,0-2.983,3.432,11.165,11.165,0,0,0-1.091,5.068,11.517,11.517,0,0,0,1.091,5.165,8.358,8.358,0,0,0,2.983,3.433A7.932,7.932,0,0,0,1479.651,420.461Z" transform="translate(-1168.346 -380.168)" fill="#333"/>
      <path id="Pfad_10" data-name="Pfad 10" d="M1498.345,403.985v-7.7H1519.9v7.7Zm5.068,25.406V393.077a11.657,11.657,0,0,1,1.412-5.71,10.53,10.53,0,0,1,3.882-4.042,11.112,11.112,0,0,1,5.806-1.475,12.107,12.107,0,0,1,4.235.737,11.075,11.075,0,0,1,3.4,1.957l-2.694,6.737a11.848,11.848,0,0,0-1.7-.867,4.254,4.254,0,0,0-1.573-.352,4.361,4.361,0,0,0-2.021.417,2.629,2.629,0,0,0-1.187,1.22,4.662,4.662,0,0,0-.385,2.02v35.673h-9.175Z" transform="translate(-1162.918 -381.849)" fill="#333"/>
      <path id="Pfad_11" data-name="Pfad 11" d="M1519.881,402.946V394.8h22.458v8.147Zm6.352,25.793V386.2h9.111v42.538Z" transform="translate(-1159.689 -381.197)" fill="#333"/>
      <path id="Pfad_12" data-name="Pfad 12" d="M1218.455,481.014,1206.65,447.65h3.721l9.817,29.129-1.733-.129,10.651-24h1.926l10.65,24-2.054.129,10.138-29.129h3.529l-11.806,33.364h-1.22L1228.913,454.9h2.31l-11.356,26.114Z" transform="translate(-1206.65 -371.984)" fill="#333"/>
      <path id="Pfad_13" data-name="Pfad 13" d="M1264.519,481.747a15.036,15.036,0,0,1-8.147-2.246,15.912,15.912,0,0,1-5.678-6.159,18.65,18.65,0,0,1-2.086-8.919,18.343,18.343,0,0,1,2.15-8.982,16.435,16.435,0,0,1,5.741-6.16,14.835,14.835,0,0,1,8.02-2.246,15.293,15.293,0,0,1,4.876.77,14.767,14.767,0,0,1,7.379,5.39,12.132,12.132,0,0,1,1.924,4.042l-1.282-.834.32-8.662h3.08v33.364h-3.208v-8.342l1.09-1.218a12.214,12.214,0,0,1-1.924,3.978,15.5,15.5,0,0,1-3.208,3.271,14.341,14.341,0,0,1-4.17,2.183A15.364,15.364,0,0,1,1264.519,481.747Zm.45-3.208a12.132,12.132,0,0,0,6.576-1.828,13.04,13.04,0,0,0,4.619-5,16.718,16.718,0,0,0,.033-14.628,12.794,12.794,0,0,0-4.588-5.006,13.088,13.088,0,0,0-13.344,0,12.8,12.8,0,0,0-4.588,5.006,15.431,15.431,0,0,0-1.667,7.281,15.71,15.71,0,0,0,1.637,7.25,12.717,12.717,0,0,0,4.554,5.069A12.317,12.317,0,0,0,1264.969,478.539Z" transform="translate(-1200.359 -372.076)" fill="#333"/>
      <path id="Pfad_14" data-name="Pfad 14" d="M1282.2,451.765v-2.952h20.21v2.952Zm8.02,30.412V439.895h3.208v42.282Z" transform="translate(-1195.324 -373.146)" fill="#333"/>
      <path id="Pfad_15" data-name="Pfad 15" d="M1302.226,451.765v-2.952h20.211v2.952Zm8.02,30.412V439.895h3.208v42.282Z" transform="translate(-1192.321 -373.146)" fill="#333"/>
      <path id="Pfad_16" data-name="Pfad 16" d="M1338.811,481.747a16.73,16.73,0,0,1-8.565-2.181,15.324,15.324,0,0,1-5.87-6.1,18.847,18.847,0,0,1-2.119-9.111,19.454,19.454,0,0,1,1.187-6.929,17.087,17.087,0,0,1,3.305-5.485,14.557,14.557,0,0,1,5.1-3.626,17.333,17.333,0,0,1,12.767-.128,12.8,12.8,0,0,1,4.718,3.305,14.169,14.169,0,0,1,2.887,5.068,18.392,18.392,0,0,1,.833,6.449l-.064,1.732h-28.359v-2.951h26.627l-1.411,1.155v-1.54a11.627,11.627,0,0,0-1.252-5.133,10.969,10.969,0,0,0-3.818-4.3,11.34,11.34,0,0,0-6.48-1.732,13.069,13.069,0,0,0-6.512,1.6,11.312,11.312,0,0,0-4.492,4.683,16.131,16.131,0,0,0-1.637,7.636,16.94,16.94,0,0,0,1.6,7.6,11.57,11.57,0,0,0,4.652,5,14.687,14.687,0,0,0,7.476,1.765,16.53,16.53,0,0,0,4.876-.77,17.548,17.548,0,0,0,5.645-3.336l1.668,2.373a17.8,17.8,0,0,1-3.336,2.471,18.593,18.593,0,0,1-9.432,2.47Z" transform="translate(-1189.318 -372.076)" fill="#333"/>
      <path id="Pfad_17" data-name="Pfad 17" d="M1354.674,481.106V447.742h3.079l.32,7.058h-.383a9.46,9.46,0,0,1,2.565-3.882,14.226,14.226,0,0,1,4.458-2.823,14.406,14.406,0,0,1,5.486-1.059,11.5,11.5,0,0,1,6,1.476,9.066,9.066,0,0,1,3.721,4.555,20.986,20.986,0,0,1,1.252,7.829v20.21h-3.208V461.024a16.166,16.166,0,0,0-1-6.128,7.369,7.369,0,0,0-2.918-3.592,9.019,9.019,0,0,0-4.813-1.188,11.523,11.523,0,0,0-8.146,3.209,10.491,10.491,0,0,0-2.375,3.367,9.824,9.824,0,0,0-.835,4.011v20.4h-3.207Z" transform="translate(-1184.458 -372.076)" fill="#333"/>
      <path id="Pfad_18" data-name="Pfad 18" d="M1385.808,481.106V447.742h3.08l.32,8.084-.771-.128a10.529,10.529,0,0,1,1.829-3.658,12.365,12.365,0,0,1,2.952-2.727,13.316,13.316,0,0,1,3.753-1.7,16.055,16.055,0,0,1,4.364-.578,11.588,11.588,0,0,1,4.459.835,7.9,7.9,0,0,1,3.5,3.015,17.538,17.538,0,0,1,2.311,6.16l-1.284-.9.449-1.091a11.452,11.452,0,0,1,1.861-2.984,13.917,13.917,0,0,1,2.888-2.565,14.86,14.86,0,0,1,3.753-1.8,14.361,14.361,0,0,1,4.458-.675,10.606,10.606,0,0,1,5.709,1.476,9.246,9.246,0,0,1,3.626,4.555,20.958,20.958,0,0,1,1.251,7.829v20.21H1431.1V461.024a17.212,17.212,0,0,0-.93-6.128,7.216,7.216,0,0,0-2.759-3.592,8.135,8.135,0,0,0-4.523-1.188,11.6,11.6,0,0,0-4.554.867,10.9,10.9,0,0,0-5.839,5.709,9.84,9.84,0,0,0-.835,4.011v20.4h-3.208V461.024a17.2,17.2,0,0,0-.931-6.128,7.153,7.153,0,0,0-2.792-3.592,8.3,8.3,0,0,0-4.554-1.188,11.43,11.43,0,0,0-4.491.867,10.9,10.9,0,0,0-5.838,5.709,9.825,9.825,0,0,0-.835,4.011v20.4Z" transform="translate(-1179.789 -372.076)" fill="#333"/>
      <path id="Pfad_19" data-name="Pfad 19" d="M1450.344,481.747a16.731,16.731,0,0,1-8.565-2.181,15.336,15.336,0,0,1-5.872-6.1,18.857,18.857,0,0,1-2.115-9.111,19.433,19.433,0,0,1,1.187-6.929,17.093,17.093,0,0,1,3.3-5.485,14.557,14.557,0,0,1,5.1-3.626,17.333,17.333,0,0,1,12.767-.128,12.778,12.778,0,0,1,4.716,3.305,14.129,14.129,0,0,1,2.887,5.068,18.352,18.352,0,0,1,.833,6.449l-.063,1.732h-28.359v-2.951h26.625l-1.411,1.155v-1.54a11.625,11.625,0,0,0-1.25-5.133,10.955,10.955,0,0,0-3.817-4.3,11.344,11.344,0,0,0-6.48-1.732,13.074,13.074,0,0,0-6.513,1.6,11.309,11.309,0,0,0-4.492,4.683,16.143,16.143,0,0,0-1.636,7.636,16.949,16.949,0,0,0,1.6,7.6,11.563,11.563,0,0,0,4.652,5,14.689,14.689,0,0,0,7.475,1.765,16.525,16.525,0,0,0,4.876-.77,17.52,17.52,0,0,0,5.646-3.336l1.667,2.373a17.785,17.785,0,0,1-3.335,2.471,18.59,18.59,0,0,1-9.432,2.47Z" transform="translate(-1172.596 -372.076)" fill="#333"/>
      <path id="Pfad_20" data-name="Pfad 20" d="M1480.473,481.747a16.729,16.729,0,0,1-8.565-2.181,15.327,15.327,0,0,1-5.871-6.1,18.846,18.846,0,0,1-2.116-9.111,19.465,19.465,0,0,1,1.186-6.929,17.134,17.134,0,0,1,3.3-5.485,14.538,14.538,0,0,1,5.1-3.626,17.336,17.336,0,0,1,12.768-.128A12.791,12.791,0,0,1,1491,451.5a14.134,14.134,0,0,1,2.886,5.068,18.374,18.374,0,0,1,.835,6.449l-.064,1.732h-28.359v-2.951h26.626l-1.411,1.155v-1.54a11.638,11.638,0,0,0-1.25-5.133,10.971,10.971,0,0,0-3.818-4.3,11.342,11.342,0,0,0-6.479-1.732,13.08,13.08,0,0,0-6.514,1.6,11.308,11.308,0,0,0-4.49,4.683,16.114,16.114,0,0,0-1.637,7.636,16.943,16.943,0,0,0,1.6,7.6,11.566,11.566,0,0,0,4.65,5,14.689,14.689,0,0,0,7.475,1.765,16.517,16.517,0,0,0,4.876-.77,17.525,17.525,0,0,0,5.646-3.336l1.668,2.373a17.8,17.8,0,0,1-3.335,2.471,18.575,18.575,0,0,1-4.3,1.8A18.773,18.773,0,0,1,1480.473,481.747Z" transform="translate(-1168.079 -372.076)" fill="#333"/>
      <path id="Pfad_21" data-name="Pfad 21" d="M1496.337,481.106V447.742h3.08l.32,7.444h-.447a12.953,12.953,0,0,1,2.179-3.979,11.529,11.529,0,0,1,3.626-3.015,10.327,10.327,0,0,1,4.971-1.155,11.994,11.994,0,0,1,2.021.161q.93.16,1.7.353l-.962,3.721a7.233,7.233,0,0,0-1.732-.513,9.923,9.923,0,0,0-1.476-.129,10.309,10.309,0,0,0-4.459.9,8.739,8.739,0,0,0-3.144,2.47,10.694,10.694,0,0,0-1.861,3.561,14.114,14.114,0,0,0-.609,4.171v19.376Z" transform="translate(-1163.219 -372.076)" fill="#333"/>
    </g>
    <g id="Gruppe_6" data-name="Gruppe 6" transform="translate(1074.081 239)">
      <g id="Gruppe_3" data-name="Gruppe 3" transform="translate(0)">
        <g id="Gruppe_2" data-name="Gruppe 2">
          <path id="Pfad_22" data-name="Pfad 22" d="M1490.113,376.181a88.609,88.609,0,0,1-12.939-4.336c-4.187-1.724-7.472-3.424-10.372-4.924-5.86-3.032-9.731-5.034-17.177-5.363-10.9-.482-17.293,3.214-25.39,7.892-8.309,4.8-17.727,10.24-33.492,12.057-9.906,1.142-36.221,4.176-49.239-11.249-10.053-11.912-8.888-31.342,3.362-56.19,9.352-18.966,23.458-37.4,32.558-45.815,3.161-2.92,10.557-9.757,21.9-12.488l.218-.05c-10.611-3.819-24.813-7.093-39.418-5.808-21.278,1.878-44.632,20.45-66.7,40.24-25.685,23.033-40.946,41.977-53.209,57.2-16.049,19.924-26.654,33.085-46.646,34.476-12.381.862-20.553-3.351-28.445-7.426-4.845-2.5-9.791-5.057-16.126-6.683a54.972,54.972,0,0,0-14.28-1.721c-14.135.375-19.031,8.061-31.18,11.349-6.541,1.77-16.193,2.538-29.457-2.3a107.466,107.466,0,0,0,33.325-9.328c10.368-4.884,16.123-9.8,27.346-10.375a57.345,57.345,0,0,1,17.34,2.151c7.212,1.9,12.784,4.78,17.946,7.446,7.479,3.862,13.381,6.917,22.792,6.26,15.333-1.068,23.761-11.529,39.062-30.52,11.843-14.7,28.066-34.838,54.392-58.447,26-23.319,45.425-39.676,72.9-42.931,0,0,32.791-3.884,58.272,16.783.749.606,8.226,6.747,6.929,9.333-1.385,2.765-11.1-1.928-22.556.715-7.955,1.835-13.171,6.269-17.149,9.946-18.128,16.755-50.955,68.429-35.009,87.327,9.322,11.045,32.293,8.4,39.842,7.528,13.56-1.563,21.594-6.2,29.365-10.693,8.455-4.884,17.191-9.934,31.217-9.316,9.8.432,15.279,3.267,21.623,6.55,2.822,1.459,5.849,3.027,9.675,4.593a95.269,95.269,0,0,0,11.5,3.837c11.892,3.045,24.519,2.067,29.2,1.592C1517.312,370.477,1502.624,379.02,1490.113,376.181Z" transform="translate(-1074.081 -239)" fill="#00aed6"/>
        </g>
      </g>
      <g id="Gruppe_5" data-name="Gruppe 5" transform="translate(278.278 17.074)">
        <g id="Gruppe_4" data-name="Gruppe 4" transform="translate(0 0)">
          <ellipse id="Ellipse_1" data-name="Ellipse 1" cx="5.351" cy="4.27" rx="5.351" ry="4.27" transform="translate(0 0.305) rotate(-1.635)" fill="#00aed6"/>
        </g>
      </g>
    </g>
  </g>
</svg>
