<svg xmlns="http://www.w3.org/2000/svg" viewBox="0 0 1920 680">
  <g id="Gruppe_22" data-name="Gruppe 22" opacity="0.996">
    <g id="Gruppe_3" data-name="Gruppe 3" transform="translate(0)">
      <g id="Gruppe_2" data-name="Gruppe 2">
        <path id="Pfad_22" data-name="Pfad 22" d="M2930,850.962c-27.04-6.141-57.724-19.344-57.724-19.344-18.68-7.691-33.333-15.272-46.27-21.966-26.139-13.528-43.411-22.458-76.628-23.925-48.628-2.15-77.146,14.337-113.266,35.206-37.067,21.411-79.081,45.681-149.409,53.785-44.189,5.1-161.582,18.627-219.652-50.184-44.847-53.14-39.652-139.818,15-250.664,41.717-84.605,104.646-166.857,145.242-204.381,14.1-13.025,47.1-43.527,97.714-55.711.323-.077.645-.154.969-.225-47.333-17.036-110.69-31.64-175.841-25.911-94.922,8.377-199.1,91.229-297.553,179.512-114.582,102.75-182.661,187.26-237.365,255.157-71.595,88.879-118.9,147.59-208.086,153.8-55.234,3.847-91.687-14.948-126.9-33.129-21.614-11.167-43.679-22.561-71.939-29.815-6.217-1.595-33.766-8.469-63.7-7.678-63.056,1.671-84.9,35.96-139.095,50.626-29.179,7.9-72.237,11.321-131.41-10.265,67.5-8.151,116.454-26.438,148.664-41.613,46.253-21.786,71.923-43.731,121.99-46.281,35.8-1.821,68.3,7.213,77.353,9.6,32.173,8.484,57.03,21.324,80.056,33.216,33.364,17.231,59.69,30.856,101.672,27.927,68.4-4.767,106-51.432,174.258-136.151,52.829-65.589,125.2-155.412,242.644-260.732,116.008-104.027,202.638-176.994,325.215-191.517,0,0,146.282-17.328,259.954,74.87,3.34,2.7,36.695,30.1,30.912,41.633-6.181,12.332-49.519-8.6-100.622,3.191-35.489,8.187-58.757,27.968-76.5,44.367C2378.8,479.1,2232.364,709.616,2303.5,793.919c41.584,49.272,144.062,37.458,177.735,33.58,60.488-6.972,96.33-27.675,131-47.7,37.717-21.787,76.69-44.317,139.259-41.557,43.717,1.929,68.158,14.574,96.459,29.22,12.587,6.509,26.1,13.5,43.159,20.488a425.082,425.082,0,0,0,51.29,17.117c53.05,13.585,109.378,9.219,130.272,7.1C3051.333,825.518,2985.809,863.628,2930,850.962Z" transform="translate(-1074.081 -239)" fill="#00aed6"/>
      </g>
    </g>
    <g id="Gruppe_5" data-name="Gruppe 5" transform="translate(1241.398 76.166)">
      <g id="Gruppe_4" data-name="Gruppe 4" transform="translate(0 0)">
        <ellipse id="Ellipse_1" data-name="Ellipse 1" cx="23.871" cy="19.049" rx="23.871" ry="19.049" transform="translate(0 1.362) rotate(-1.635)" fill="#00aed6"/>
      </g>
    </g>
  </g>
</svg>
